SplineFontDB: 3.0
FontName: Mops
FullName: Mops Antiqua
FamilyName: Mops
Weight: Medium
Copyright: OFL (Open Font License)\nCreated by Uwe Borchert,,, with FontForge 2.0 (http://fontforge.sf.net)
UComments: "2010-10-2: Created." 
Version: 1.3 (20130319++)
DefaultBaseFilename: Mops
ItalicAngle: 0
UnderlinePosition: -100
UnderlineWidth: 50
Ascent: 800
Descent: 200
LayerCount: 2
Layer: 0 1 "Back"  1
Layer: 1 1 "Fore"  0
XUID: [1021 271 2074714964 13457541]
FSType: 0
OS2Version: 0
OS2_WeightWidthSlopeOnly: 0
OS2_UseTypoMetrics: 1
CreationTime: 1286024351
ModificationTime: 1368381596
PfmFamily: 17
TTFWeight: 500
TTFWidth: 5
LineGap: 90
VLineGap: 0
OS2TypoAscent: 0
OS2TypoAOffset: 1
OS2TypoDescent: 0
OS2TypoDOffset: 1
OS2TypoLinegap: 90
OS2WinAscent: 0
OS2WinAOffset: 1
OS2WinDescent: 0
OS2WinDOffset: 1
HheadAscent: 0
HheadAOffset: 1
HheadDescent: 0
HheadDOffset: 1
OS2Vendor: 'PfEd'
Lookup: 4 0 1 "'liga' standard ligatures"  {"standard ligatures"  } ['liga' ('DFLT' <'dflt' > 'latn' <'dflt' > ) ]
Lookup: 1 0 0 "'cv01' Blackletter style"  {"z and germandbls "  } ['cv01' ('DFLT' <'dflt' > 'latn' <'dflt' > ) ]
Lookup: 258 0 0 "Kerning"  {"Kern Latin Classes" [75,20,6] } ['    ' ('DFLT' <'dflt' > 'latn' <'dflt' > ) ]
MarkAttachClasses: 1
DEI: 91125
KernClass2: 7 12 "Kern Latin Classes" 
 1 A
 21 T Tcommaaccent Tcaron
 22 V W Y Ydieresis Yacute
 39 h m n ntilde nacute ncaron ncommaaccent
 10 f longs ff
 5 K M X
 11 m n r s t x
 1 d
 89 i l igrave iacute icircumflex idieresis lacute lcaron itilde lcommaaccent iogonek imacron
 1 p
 1 u
 22 v w y yacute ydieresis
 1 z
 5 V W Y
 76 a agrave aacute acircumflex atilde adieresis aring ae aogonek amacron abreve
 190 c e o q ccedilla egrave eacute ecircumflex edieresis eth ograve oacute ocircumflex otilde odieresis oslash ohungarumlaut uhungarumlaut ccaron ecaron cacute eogonek emacron edotaccent omacron
 12 comma period

StartChar: zero
Encoding: 16 48 0
Width: 442
VWidth: 0
Flags: W
HStem: -6 49<175.29 273.542> 472.062 40.938<186.989 264.145>
VStem: 28 99<135.691 376.232> 316 97<124.583 385.424>
LayerCount: 2
Fore
SplineSet
143 494 m 0,0,1
 173 513 173 513 223 513 c 128,-1,2
 273 513 273 513 304 494 c 0,3,4
 413 427 413 427 413 253 c 0,5,6
 413 198 413 198 408 172.5 c 128,-1,7
 403 147 403 147 383 108 c 0,8,9
 348 40 348 40 294 12 c 1,10,11
 262 -6 262 -6 232.5 -6 c 128,-1,12
 203 -6 203 -6 170 4 c 128,-1,13
 137 14 137 14 111 38 c 128,-1,14
 85 62 85 62 56.5 120.5 c 128,-1,15
 28 179 28 179 28 254 c 0,16,17
 28 290 28 290 36 328 c 0,18,19
 60 444 60 444 143 494 c 0,0,1
257 458 m 0,20,21
 237.312 472.062 237.312 472.062 229.051 472.062 c 0,22,23
 228.5 472.062 228.5 472.062 228 472 c 2,24,-1
 218 472 l 1,25,26
 203 469 203 469 175 441.5 c 128,-1,27
 147 414 147 414 134 334 c 0,28,29
 127 291 127 291 127 252 c 0,30,31
 127 113 127 113 174 66 c 0,32,33
 197 43 197 43 227 43 c 128,-1,34
 257 43 257 43 277 68.5 c 128,-1,35
 297 94 297 94 306.5 151.5 c 128,-1,36
 316 209 316 209 316 243 c 0,37,38
 316 415 316 415 257 458 c 0,20,21
EndSplineSet
Validated: 3073
EndChar

StartChar: one
Encoding: 17 49 1
Width: 272
VWidth: 0
Flags: W
HStem: -2 49<36.9287 86.9064 219 245.068> 436 50<26.1226 87.2631> 497 20G<149 167>
VStem: 97.5 90.5<55 421.558>
LayerCount: 2
Fore
SplineSet
35 19 m 0,0,1
 35 25 35 25 43.5 34.5 c 128,-1,2
 52 44 52 44 65.5 47 c 128,-1,3
 79 50 79 50 81.5 51.5 c 128,-1,4
 84 53 84 53 87 54 c 128,-1,5
 90 55 90 55 91 66.5 c 128,-1,6
 92 78 92 78 93.5 85 c 128,-1,7
 95 92 95 92 95.5 118.5 c 128,-1,8
 96 145 96 145 97.5 200 c 128,-1,9
 99 255 99 255 99 300 c 128,-1,10
 99 345 99 345 97 376.5 c 128,-1,11
 95 408 95 408 87.5 422 c 128,-1,12
 80 436 80 436 62 436 c 128,-1,13
 44 436 44 436 34.5 446 c 128,-1,14
 25 456 25 456 25 463 c 128,-1,15
 25 470 25 470 37.5 478 c 128,-1,16
 50 486 50 486 83 486 c 128,-1,17
 116 486 116 486 128 501.5 c 128,-1,18
 140 517 140 517 158 517 c 128,-1,19
 176 517 176 517 182 500.5 c 128,-1,20
 188 484 188 484 187 393 c 0,21,22
 187 301 187 301 188 270 c 1,23,-1
 188 55 l 1,24,-1
 219 44 l 2,25,26
 246 34 246 34 246 20.5 c 128,-1,27
 246 7 246 7 219.5 2.5 c 128,-1,28
 193 -2 193 -2 114 -2 c 128,-1,29
 35 -2 35 -2 35 19 c 0,0,1
EndSplineSet
Validated: 3105
EndChar

StartChar: two
Encoding: 18 50 2
Width: 356
VWidth: 0
Flags: W
HStem: -6 110<119.846 260.588> 468 43<122.207 201.207>
VStem: 29 99<356.34 434.813> 29 85<372.59 455.202> 228 99<323.902 441.33>
LayerCount: 2
Fore
SplineSet
46 -7 m 0,0,1
 28 -7 28 -7 28 40 c 0,2,3
 28 120 28 120 138 234 c 0,4,5
 207 306 207 306 217.5 327 c 128,-1,6
 228 348 228 348 228 365 c 0,7,8
 228 420 228 420 204 444 c 128,-1,9
 180 468 180 468 164 468 c 128,-1,10
 148 468 148 468 131 454.5 c 128,-1,11
 114 441 114 441 114 435 c 128,-1,12
 114 429 114 429 117 426 c 0,13,14
 128 415 128 415 128 388 c 128,-1,15
 128 361 128 361 113 352.5 c 128,-1,16
 98 344 98 344 87 344 c 0,17,18
 47 344 47 344 33 383 c 0,19,20
 29 394 29 394 29 405 c 0,21,22
 29 447 29 447 87 486 c 0,23,24
 124 511 124 511 170 511 c 0,25,26
 191 511 191 511 213 506 c 0,27,28
 286 490 286 490 312 436 c 0,29,30
 327 406 327 406 327 384.5 c 0,31,32
 327 362 327 362 320 348 c 0,33,34
 303 311 303 311 218 229 c 1,35,-1
 166 177 l 2,36,37
 128 138 128 138 108 111 c 0,38,39
 103 104 103 104 100 86 c 257,40,41
 108 94 108 94 114 95 c 0,42,43
 177 104 177 104 212.5 104 c 128,-1,44
 248 104 248 104 261 108 c 128,-1,45
 274 112 274 112 282 130 c 128,-1,46
 290 148 290 148 302 148 c 0,47,48
 327 148 327 148 327 84.5 c 128,-1,49
 327 21 327 21 278 -1 c 0,50,51
 267 -6 267 -6 244 -6 c 128,-1,52
 221 -6 221 -6 171.5 5.5 c 128,-1,53
 122 17 122 17 107 17 c 128,-1,54
 92 17 92 17 74 5 c 128,-1,55
 56 -7 56 -7 46 -7 c 0,0,1
EndSplineSet
Validated: 3073
EndChar

StartChar: three
Encoding: 19 51 3
Width: 369
VWidth: 0
Flags: W
HStem: -6 47<127.752 222.734> 223 64.5<76.1963 147.992> 472 39<133.992 216.582>
VStem: 26 85<51.8339 137.708> 55 78<389.67 465.713> 232 83<352.895 460.13> 245.5 96.5<79.9905 232.833>
LayerCount: 2
Fore
SplineSet
170 41 m 0,0,1
 245 41 245 41 245.5 146 c 128,-1,2
 246 251 246 251 184 251 c 0,3,4
 153 251 153 251 133 237 c 128,-1,5
 113 223 113 223 100 223 c 0,6,7
 75 223 75 223 75 255 c 0,8,9
 75 277 75 277 91.5 287.5 c 128,-1,10
 108 298 108 298 148 305 c 128,-1,11
 188 312 188 312 206 330 c 1,12,13
 232 359 232 359 232 412 c 0,14,15
 232 428 232 428 218.5 450 c 128,-1,16
 205 472 205 472 177 472 c 0,17,18
 133 472 133 472 133 447 c 0,19,20
 133 438 133 438 141.5 425.5 c 128,-1,21
 150 413 150 413 149 405 c 128,-1,22
 148 397 148 397 136 379 c 128,-1,23
 124 361 124 361 107.5 361 c 128,-1,24
 91 361 91 361 73 377.5 c 128,-1,25
 55 394 55 394 55 409 c 0,26,27
 55 459 55 459 108 491 c 0,28,29
 141 511 141 511 185 511 c 0,30,31
 201 511 201 511 218 509 c 0,32,33
 285 499 285 499 305 462 c 0,34,35
 315 442 315 442 315 422 c 0,36,37
 315 371 315 371 267 319 c 1,38,39
 250 299 250 299 250 295 c 128,-1,40
 250 291 250 291 256.5 291 c 128,-1,41
 263 291 263 291 297 261 c 0,42,43
 342 223 342 223 342 155 c 128,-1,44
 342 87 342 87 282 34 c 0,45,46
 236 -6 236 -6 172 -6 c 0,47,48
 144 -6 144 -6 108.5 6 c 128,-1,49
 73 18 73 18 49.5 44.5 c 128,-1,50
 26 71 26 71 26 102.5 c 128,-1,51
 26 134 26 134 47 146 c 0,52,53
 54 151 54 151 62.5 151 c 128,-1,54
 71 151 71 151 86 140.5 c 128,-1,55
 101 130 101 130 111 96 c 128,-1,56
 121 62 121 62 131.5 51.5 c 128,-1,57
 142 41 142 41 170 41 c 0,0,1
EndSplineSet
Validated: 3105
EndChar

StartChar: four
Encoding: 20 52 4
Width: 397
VWidth: 0
Flags: W
HStem: -6 21G<175 283> 103 388<44 188> 165 38<272 306> 361 20G<255 265.5>
VStem: 156 109<390.75 482.5> 186.5 83.5<63.3477 157 203 299.276> 219.5 50.5<274.907 361.615> 307 64<104.834 164.996>
LayerCount: 2
Fore
SplineSet
307 122 m 1,0,-1
 310 147 l 1,1,2
 310 165 310 165 295 165 c 0,3,4
 286 165 286 165 270 158 c 257,5,6
 271 152 271 152 272 144 c 2,7,-1
 270 96 l 2,8,9
 270 73 270 73 278 62 c 128,-1,10
 286 51 286 51 311.5 39.5 c 128,-1,11
 337 28 337 28 337 14 c 0,12,13
 337 -6 337 -6 229 -6 c 128,-1,14
 121 -6 121 -6 121 14 c 0,15,16
 121 28 121 28 147 40 c 128,-1,17
 173 52 173 52 179.5 63 c 128,-1,18
 186 74 186 74 186.5 101 c 128,-1,19
 187 128 187 128 188 157 c 257,20,21
 171 152 171 152 117 127.5 c 128,-1,22
 63 103 63 103 44 103 c 128,-1,23
 25 103 25 103 25 117 c 0,24,25
 25 150 25 150 90.5 263 c 128,-1,26
 156 376 156 376 156 405.5 c 128,-1,27
 156 435 156 435 128 448 c 128,-1,28
 100 461 100 461 100 473 c 0,29,30
 100 479 100 479 106 484 c 1,31,32
 111 491 111 491 188 491 c 128,-1,33
 265 491 265 491 265 474 c 0,34,35
 265 460 265 460 204.5 353 c 128,-1,36
 144 246 144 246 102 184 c 2,37,-1
 87 162 l 1,38,-1
 138 184 l 2,39,40
 166 196 166 196 187 202 c 1,41,42
 188 218 188 218 189 241.5 c 128,-1,43
 190 265 190 265 219.5 323 c 128,-1,44
 249 381 249 381 261 381 c 0,45,46
 270 381 270 381 270 294 c 2,47,-1
 272 203 l 1,48,-1
 306 199 l 2,49,50
 334 196 334 196 358 165 c 0,51,52
 371 148 371 148 371 137 c 0,53,54
 371 108 371 108 339 102 c 0,55,56
 333 100 333 100 328 100 c 0,57,58
 307 100 307 100 307 122 c 1,0,-1
EndSplineSet
Validated: 3073
EndChar

StartChar: five
Encoding: 21 53 5
Width: 383
VWidth: 0
Flags: W
HStem: -8 47<110.347 215.837> 281.5 56<118.866 220.419> 414 94<140.234 294.568> 423 85<136.887 218>
VStem: 26 108<82.1753 156.059> 254 100.5<84.8243 245.18>
LayerCount: 2
Fore
SplineSet
66 229 m 1,0,1
 46 229 46 229 46 255 c 128,-1,2
 46 281 46 281 74 381 c 128,-1,3
 102 481 102 481 113.5 493.5 c 128,-1,4
 125 506 125 506 135.5 507 c 128,-1,5
 146 508 146 508 154 508 c 2,6,-1
 250 504 l 2,7,8
 261 504 261 504 270.5 506 c 128,-1,9
 280 508 280 508 289.5 523 c 128,-1,10
 299 538 299 538 311 538 c 0,11,12
 329 538 329 538 329 499 c 128,-1,13
 329 460 329 460 314.5 438.5 c 128,-1,14
 300 417 300 417 291 415.5 c 128,-1,15
 282 414 282 414 268 414 c 128,-1,16
 254 414 254 414 218 417 c 2,17,-1
 139 423 l 1,18,-1
 123 370 l 1,19,20
 110 314 110 314 109 308 c 257,21,22
 142 337 142 337 181 337.5 c 128,-1,23
 220 338 220 338 272 321 c 128,-1,24
 324 304 324 304 346 237 c 0,25,26
 355 208 355 208 354.5 177.5 c 128,-1,27
 354 147 354 147 346 116 c 0,28,29
 326 53 326 53 275.5 22.5 c 128,-1,30
 225 -8 225 -8 166 -8 c 128,-1,31
 107 -8 107 -8 61 32 c 0,32,33
 40 50 40 50 33 63.5 c 128,-1,34
 26 77 26 77 26 98 c 0,35,36
 26 146 26 146 59 164 c 0,37,38
 71 171 71 171 87 171 c 128,-1,39
 103 171 103 171 117.5 154 c 128,-1,40
 132 137 132 137 134 129 c 128,-1,41
 136 121 136 121 126.5 100.5 c 128,-1,42
 117 80 117 80 105 80 c 128,-1,43
 93 80 93 80 111 60 c 128,-1,44
 129 40 129 40 162 39 c 0,45,46
 164 39 164 39 164 40 c 1,47,48
 198 40 198 40 221 66 c 1,49,50
 254 101 254 101 254 163 c 128,-1,51
 254 225 254 225 223 258 c 0,52,53
 201 281 201 281 165 281.5 c 128,-1,54
 129 282 129 282 105.5 256 c 128,-1,55
 82 230 82 230 66 229 c 1,0,1
EndSplineSet
Validated: 3105
EndChar

StartChar: six
Encoding: 22 54 6
Width: 416
VWidth: 0
Flags: W
HStem: -6 56<169.363 265.204> 265 55<178.791 273.776> 463 48<186.177 274.961>
VStem: 29 99<118.317 363.046> 276 92<395.195 462.77> 297 91<89.5505 241.208>
LayerCount: 2
Fore
SplineSet
297 172 m 0,0,1
 297 217 297 217 276.5 241 c 128,-1,2
 256 265 256 265 235 265 c 128,-1,3
 214 265 214 265 197.5 259 c 128,-1,4
 181 253 181 253 167.5 253 c 128,-1,5
 154 253 154 253 154 264.5 c 128,-1,6
 154 276 154 276 169 290 c 0,7,8
 200 320 200 320 247 320 c 0,9,10
 326 320 326 320 365 262 c 0,11,12
 388 227 388 227 388 174.5 c 128,-1,13
 388 122 388 122 359 77 c 0,14,15
 307 -6 307 -6 218 -6 c 0,16,17
 155 -6 155 -6 108 37 c 0,18,19
 29 109 29 109 29 235 c 0,20,21
 29 402 29 402 142 479 c 0,22,23
 171 498 171 498 190.5 504.5 c 128,-1,24
 210 511 210 511 240 511 c 0,25,26
 300 511 300 511 334 486 c 128,-1,27
 368 461 368 461 368 417 c 0,28,29
 368 394 368 394 347.5 379 c 128,-1,30
 327 364 327 364 316 364 c 0,31,32
 280 364 280 364 267 393 c 0,33,34
 263 402 263 402 263 412 c 0,35,36
 264 422 264 422 270 433 c 128,-1,37
 276 444 276 444 276 450 c 0,38,39
 276 463 276 463 253 463 c 2,40,-1
 236 463 l 1,41,42
 174 462 174 462 143 359 c 0,43,44
 128 307 128 307 128 236 c 128,-1,45
 128 165 128 165 141 120 c 128,-1,46
 154 75 154 75 189 58 c 0,47,48
 204 50 204 50 221 50 c 128,-1,49
 238 50 238 50 257 64 c 0,50,51
 297 95 297 95 297 172 c 0,0,1
EndSplineSet
Validated: 3073
EndChar

StartChar: seven
Encoding: 23 55 7
Width: 352
VWidth: 0
Flags: W
HStem: 417 93<94.8661 258.595> 417 78<105.065 258.595> 498 20G<293.5 314>
VStem: 70 122<14.0625 138.309>
LayerCount: 2
Fore
SplineSet
218 417 m 1,0,-1
 145 417 l 2,1,2
 106 417 106 417 94.5 414.5 c 128,-1,3
 83 412 83 412 74 395.5 c 128,-1,4
 65 379 65 379 47.5 374.5 c 128,-1,5
 30 370 30 370 28 377 c 0,6,7
 27 379 27 379 27 386.5 c 128,-1,8
 27 394 27 394 32.5 432 c 128,-1,9
 38 470 38 470 54 490 c 128,-1,10
 70 510 70 510 104 510 c 128,-1,11
 138 510 138 510 181 502.5 c 128,-1,12
 224 495 224 495 233 495 c 2,13,-1
 249 495 l 2,14,15
 258 495 258 495 274 506.5 c 128,-1,16
 290 518 290 518 297 518 c 2,17,-1
 304 518 l 1,18,19
 324 515 324 515 324 476 c 0,20,21
 324 403 324 403 253 301 c 0,22,23
 234 274 234 274 177 174 c 0,24,25
 162 147 162 147 177.5 112.5 c 128,-1,26
 193 78 193 78 192 62 c 1,27,28
 192 20 192 20 179 11 c 1,29,30
 155 -10 155 -10 139.5 -10 c 128,-1,31
 124 -10 124 -10 115 -5 c 0,32,33
 70 18 70 18 70 89 c 128,-1,34
 70 160 70 160 153 265 c 2,35,-1
 198 322 l 2,36,37
 240 374 240 374 247 391 c 0,38,39
 253 408 253 408 259 432 c 257,40,41
 246 421 246 421 238.5 418.5 c 128,-1,42
 231 416 231 416 218 417 c 1,0,-1
EndSplineSet
Validated: 3105
EndChar

StartChar: eight
Encoding: 24 56 8
Width: 380
VWidth: 0
Flags: W
HStem: -8 39<147.454 236.29> 469 40<153.788 241.613>
VStem: 26 81<67.1879 197.151> 60 78<375.72 453.179> 255 70<363.335 456.805> 275 78<66.1618 162.865>
LayerCount: 2
Fore
SplineSet
72 436 m 0,0,1
 107 509 107 509 200 509 c 0,2,3
 250 509 250 509 282 490 c 0,4,5
 325 465 325 465 325 422.5 c 128,-1,6
 325 380 325 380 280 336 c 2,7,-1
 244 301 l 1,8,-1
 283 270 l 2,9,10
 353 215 353 215 353 144.5 c 128,-1,11
 353 74 353 74 301.5 33 c 128,-1,12
 250 -8 250 -8 187 -8 c 128,-1,13
 124 -8 124 -8 75 36.5 c 128,-1,14
 26 81 26 81 26 130.5 c 128,-1,15
 26 180 26 180 77 234 c 2,16,-1
 118 278 l 1,17,-1
 93 311 l 1,18,19
 60 357 60 357 60 384 c 128,-1,20
 60 411 60 411 72 436 c 0,0,1
239.5 454.5 m 128,-1,22
 224 469 224 469 195 469 c 0,23,24
 166 468 166 468 152 448 c 128,-1,25
 138 428 138 428 138 418 c 0,26,27
 138 410 138 410 157 380 c 128,-1,28
 176 350 176 350 196 336 c 257,29,30
 219 350 219 350 237 367 c 128,-1,31
 255 384 255 384 255 412 c 128,-1,21
 255 440 255 440 239.5 454.5 c 128,-1,22
275 113 m 0,32,33
 275 150 275 150 226.5 189.5 c 128,-1,34
 178 229 178 229 163 243 c 1,35,36
 148 235 148 235 127.5 203 c 128,-1,37
 107 171 107 171 107 127 c 0,38,39
 107 70 107 70 158 44 c 0,40,41
 182 31 182 31 191 31 c 2,42,-1
 204 31 l 1,43,44
 222 34 222 34 248.5 61 c 128,-1,45
 275 88 275 88 275 113 c 0,32,33
EndSplineSet
Validated: 3073
EndChar

StartChar: nine
Encoding: 25 57 9
Width: 419
VWidth: 0
Flags: W
HStem: -7 50<148.315 222.524> 191 52<143.033 240.423> 461 51<153.77 248.388>
VStem: 26 92<269.378 414.213> 46 109<49.2518 127.634> 284 106<151.308 391.627>
LayerCount: 2
Fore
SplineSet
191 243 m 0,0,1
 207 243 207 243 224 248.5 c 128,-1,2
 241 254 241 254 252 254 c 128,-1,3
 263 254 263 254 263 243 c 128,-1,4
 263 232 263 232 239 211.5 c 128,-1,5
 215 191 215 191 170 191 c 0,6,7
 126 192 126 192 98 206 c 128,-1,8
 70 220 70 220 48 260 c 128,-1,9
 26 300 26 300 26 340 c 0,10,11
 26 378 26 378 52 422.5 c 128,-1,12
 78 467 78 467 115.5 489 c 0,13,14
 153 510 153 510 193 512 c 1,15,16
 274 512 274 512 325 458 c 1,17,18
 390 390 390 390 390 270 c 0,19,20
 390 200 390 200 362 135 c 128,-1,21
 334 70 334 70 275.5 31.5 c 128,-1,22
 217 -7 217 -7 167 -7 c 128,-1,23
 117 -7 117 -7 81.5 25.5 c 128,-1,24
 46 58 46 58 46 82 c 0,25,26
 46 119 46 119 80 135 c 0,27,28
 93 141 93 141 108.5 141 c 128,-1,29
 124 141 124 141 139.5 125.5 c 128,-1,30
 155 110 155 110 155 99 c 128,-1,31
 155 88 155 88 146.5 72.5 c 128,-1,32
 138 57 138 57 148 49 c 128,-1,33
 158 41 158 41 177.5 43 c 128,-1,34
 197 45 197 45 214 58 c 0,35,36
 250 83 250 83 267 131.5 c 128,-1,37
 284 180 284 180 284 274 c 128,-1,38
 284 368 284 368 264.5 414.5 c 128,-1,39
 245 461 245 461 196 461 c 0,40,41
 168 460 168 460 144 428 c 128,-1,42
 120 396 120 396 118 356 c 0,43,44
 118 353 118 353 119 349 c 1,45,46
 119 314 119 314 129 288 c 0,47,48
 148 243 148 243 191 243 c 0,0,1
EndSplineSet
Validated: 3073
EndChar

StartChar: semicolon
Encoding: 27 59 10
Width: 161
VWidth: 0
Flags: W
HStem: 230 91<47.4607 111.563>
VStem: 37 90<12.5886 87.6226 239.802 313.388>
LayerCount: 2
Fore
SplineSet
43 261 m 1,0,1
 38 272 38 272 38 283 c 128,-1,2
 38 294 38 294 50 308 c 128,-1,3
 62 322 62 322 74 321 c 0,4,5
 86 321 86 321 96 318 c 0,6,7
 126 306 126 306 126 277.5 c 128,-1,8
 126 249 126 249 112 239.5 c 128,-1,9
 98 230 98 230 88 230 c 0,10,11
 54 230 54 230 43 261 c 1,0,1
118 7 m 0,12,13
 110 -9 110 -9 81.5 -37.5 c 128,-1,14
 53 -66 53 -66 42 -66 c 128,-1,15
 31 -66 31 -66 31 -56 c 0,16,17
 31 -51 31 -51 48.5 -39.5 c 128,-1,18
 66 -28 66 -28 66 -10 c 128,-1,19
 66 8 66 8 51.5 20 c 128,-1,20
 37 32 37 32 37 54 c 128,-1,21
 37 76 37 76 49 88 c 128,-1,22
 61 100 61 100 81 100 c 0,23,24
 125 100 125 100 127 42 c 1,25,26
 125 23 125 23 118 7 c 0,12,13
EndSplineSet
Validated: 3073
EndChar

StartChar: at
Encoding: 32 64 11
Width: 543
VWidth: 0
Flags: W
HStem: 49 40<185.986 352.314> 180 41<222.573 297.51> 400 37<236.952 314.513> 519 39<209.743 377.812>
VStem: 29 57<194.745 385.364> 138 66<237.994 360.17> 323 77<280.696 428> 461 53<262.266 440.988>
LayerCount: 2
Fore
SplineSet
257 89 m 128,-1,1
 278 89 278 89 315 96 c 128,-1,2
 352 103 352 103 388 126.5 c 128,-1,3
 424 150 424 150 434 150 c 128,-1,4
 444 150 444 150 444 146 c 0,5,6
 444 137 444 137 414 110 c 0,7,8
 347 49 347 49 261 49 c 0,9,10
 204 49 204 49 146 81.5 c 128,-1,11
 88 114 88 114 51 184 c 0,12,13
 29 226 29 226 29 294 c 0,14,15
 29 418 29 418 126 499 c 0,16,17
 198 558 198 558 281 558 c 128,-1,18
 364 558 364 558 409 533 c 1,19,20
 471 501 471 501 497 441 c 0,21,22
 514 401 514 401 514 366 c 128,-1,23
 514 331 514 331 507.5 296.5 c 128,-1,24
 501 262 501 262 462 226.5 c 128,-1,25
 423 191 423 191 382.5 182.5 c 128,-1,26
 342 174 342 174 335 174 c 2,27,28
 321 174 l 2,29,30
 315 174 315 174 306 186 c 128,-1,31
 297 198 297 198 283 189 c 128,-1,32
 269 180 269 180 252 180 c 0,33,34
 198 180 198 180 177 195 c 0,35,36
 167 201 167 201 152.5 224.5 c 128,-1,37
 138 248 138 248 138 290 c 128,-1,38
 138 332 138 332 162 363 c 0,39,40
 217 437 217 437 284 437 c 0,41,42
 304 437 304 437 321 430 c 128,-1,43
 338 423 338 423 351 423 c 0,44,45
 363 424 363 424 373 430 c 128,-1,46
 383 436 383 436 389 436 c 0,47,48
 400 436 400 436 400 420 c 128,-1,49
 400 404 400 404 391.5 369.5 c 128,-1,50
 383 335 383 335 379 291 c 128,-1,51
 375 247 375 247 375 238 c 2,52,-1
 375 226 l 1,53,54
 377 219 377 219 394 222 c 1,55,56
 423 225 423 225 442 268 c 128,-1,57
 461 311 461 311 461 358.5 c 128,-1,58
 461 406 461 406 441.5 438 c 128,-1,59
 422 470 422 470 386.5 494.5 c 128,-1,60
 351 519 351 519 292.5 519 c 128,-1,61
 234 519 234 519 180 483 c 128,-1,62
 126 447 126 447 100 364 c 0,63,64
 86 321 86 321 86 284 c 128,-1,65
 86 247 86 247 99 213 c 128,-1,66
 112 179 112 179 150.5 140 c 128,-1,67
 189 101 189 101 212.5 95 c 128,-1,0
 236 89 236 89 257 89 c 128,-1,1
293 237 m 0,68,69
 323 261 323 261 323 350 c 0,70,71
 323 372 323 372 311.5 386 c 128,-1,72
 300 400 300 400 287 400 c 0,73,74
 240 400 240 400 219 359 c 0,75,76
 204 331 204 331 204 295 c 128,-1,77
 204 259 204 259 223.5 240 c 128,-1,78
 243 221 243 221 257.5 221 c 128,-1,79
 272 221 272 221 293 237 c 0,68,69
EndSplineSet
Validated: 3073
EndChar

StartChar: A
Encoding: 33 65 12
Width: 552
VWidth: 0
Flags: W
HStem: 0 40<492.077 539.935> 152 60<199 310.318> 565 20G<261.25 277.75>
LayerCount: 2
Fore
SplineSet
166 520 m 0,0,1
 163 527 163 527 173.5 537 c 128,-1,2
 184 547 184 547 218.5 566 c 128,-1,3
 253 585 253 585 269.5 585 c 128,-1,4
 286 585 286 585 292 570 c 0,5,6
 294 565 294 565 329 472 c 2,7,-1
 384 322 l 1,8,9
 469 84 469 84 482.5 64 c 128,-1,10
 496 44 496 44 519 40 c 0,11,12
 542 37 542 37 542 17 c 0,13,14
 542 9 542 9 540 5.5 c 128,-1,15
 538 2 538 2 524 0 c 128,-1,16
 510 -2 510 -2 491.5 -2.5 c 128,-1,17
 473 -3 473 -3 427.5 -3 c 128,-1,18
 382 -3 382 -3 368.5 -2.5 c 128,-1,19
 355 -2 355 -2 341 0 c 128,-1,20
 327 2 327 2 325 5.5 c 128,-1,21
 323 9 323 9 323 17 c 0,22,23
 323 37 323 37 346.5 41.5 c 128,-1,24
 370 46 370 46 370 67 c 0,25,26
 370 82 370 82 361 108 c 2,27,-1
 346 152 l 1,28,-1
 177 152 l 1,29,-1
 162 117 l 2,30,31
 149 87 149 87 149 69.5 c 128,-1,32
 149 52 149 52 176 39.5 c 128,-1,33
 203 27 203 27 203 12 c 0,34,35
 203 3 203 3 184.5 0 c 128,-1,36
 166 -3 166 -3 106 -3 c 128,-1,37
 46 -3 46 -3 28 0 c 128,-1,38
 10 3 10 3 10 17.5 c 128,-1,39
 10 32 10 32 34.5 38.5 c 128,-1,40
 59 45 59 45 71 60 c 128,-1,41
 83 75 83 75 132 203 c 2,42,-1
 192 362 l 1,43,44
 218 435 218 435 220 454.5 c 128,-1,45
 222 474 222 474 217 484.5 c 128,-1,46
 212 495 212 495 210.5 496 c 128,-1,47
 209 497 209 497 191 501.5 c 128,-1,48
 173 506 173 506 166 520 c 0,0,1
259 212 m 2,49,50
 305 212 305 212 310.5 214.5 c 128,-1,51
 316 217 316 217 316 225.5 c 128,-1,52
 316 234 316 234 309 253 c 2,53,-1
 293 299 l 2,54,55
 289 312 289 312 284 324 c 2,56,-1
 267 367 l 2,57,58
 259 381 l 0,59,-1
 257 371 l 0,60,61
 255 361 255 361 228 293 c 1,62,-1
 199 212 l 1,63,-1
 259 212 l 2,49,50
EndSplineSet
Validated: 3073
EndChar

StartChar: C
Encoding: 35 67 13
Width: 516
VWidth: 0
Flags: W
HStem: -12 63<263.565 396.912> 536 51<217.133 364.239>
VStem: 32 99<203.439 418.737>
LayerCount: 2
Fore
SplineSet
390 564 m 1,0,1
 391 576 391 576 390.5 593.5 c 128,-1,2
 390 611 390 611 392 614.5 c 128,-1,3
 394 618 394 618 406.5 618 c 128,-1,4
 419 618 419 618 428.5 599.5 c 128,-1,5
 438 581 438 581 458 522 c 0,6,7
 483 448 483 448 483.5 431.5 c 128,-1,8
 484 415 484 415 470.5 415 c 128,-1,9
 457 415 457 415 440 436 c 0,10,11
 374 516 374 516 345 526 c 128,-1,12
 316 536 316 536 289 536 c 0,13,14
 236 536 236 536 195 497 c 0,15,16
 131 436 131 436 131 325 c 0,17,18
 131 194 131 194 210 116 c 1,19,20
 273 51 273 51 334 51 c 0,21,22
 391 51 391 51 452 100 c 0,23,24
 468 112 468 112 484 114 c 0,25,26
 491 114 491 114 493.5 106 c 128,-1,27
 496 98 496 98 496 94 c 0,28,29
 496 75 496 75 468.5 50.5 c 128,-1,30
 441 26 441 26 390 7 c 128,-1,31
 339 -12 339 -12 293 -12 c 0,32,33
 215 -11 215 -11 153.5 31.5 c 128,-1,34
 92 74 92 74 56 153 c 0,35,36
 32 206 32 206 32 288 c 128,-1,37
 32 370 32 370 54.5 421 c 128,-1,38
 77 472 77 472 126.5 520 c 128,-1,39
 176 568 176 568 209 577.5 c 128,-1,40
 242 587 242 587 267.5 587 c 128,-1,41
 293 587 293 587 294 586 c 1,42,43
 345 586 345 586 365.5 578 c 128,-1,44
 386 570 386 570 390 564 c 1,0,1
EndSplineSet
Validated: 3073
EndChar

StartChar: B
Encoding: 34 66 14
Width: 468
VWidth: 0
Flags: W
HStem: -8 51<13.8477 61.3573 100.953 297.715> 279 44<166.98 238.604> 522 50.5<165 275.84>
VStem: 72 93<69 270.644 323.024 501.943> 305 104<375.263 493.775> 334 104<84.0009 236.43>
LayerCount: 2
Fore
SplineSet
12 563 m 0,0,1
 19 573 19 573 128 572.5 c 128,-1,2
 237 572 237 572 278.5 568.5 c 0,3,4
 320 566 320 566 342 554 c 0,5,6
 380 533 380 533 398 491 c 0,7,8
 409 466 409 466 409 444 c 0,9,10
 409 372 409 372 350 337 c 2,11,-1
 320 319 l 1,12,-1
 359 302 l 2,13,14
 438 267 438 267 438 163.5 c 128,-1,15
 438 60 438 60 352 17 c 0,16,17
 302 -8 302 -8 110 -8 c 0,18,19
 19 -8 19 -8 14 5.5 c 128,-1,20
 9 19 9 19 20 30.5 c 128,-1,21
 31 42 31 42 44 44 c 128,-1,22
 57 46 57 46 61.5 50 c 128,-1,23
 66 54 66 54 68 69 c 2,24,-1
 70 94 l 2,25,26
 72 117 72 117 72 301.5 c 128,-1,27
 72 486 72 486 67.5 502.5 c 128,-1,28
 63 519 63 519 46.5 521 c 128,-1,29
 30 523 30 523 20 534.5 c 128,-1,30
 10 546 10 546 10 552.5 c 128,-1,31
 10 559 10 559 12 563 c 0,0,1
234.5 343 m 128,-1,33
 281 363 281 363 293 380 c 128,-1,34
 305 397 305 397 305 435 c 128,-1,35
 305 473 305 473 280 497 c 1,36,37
 266 512 266 512 251 517 c 128,-1,38
 236 522 236 522 210 522 c 2,39,-1
 165 522 l 1,40,-1
 165 422 l 2,41,42
 165 323 165 323 168 323 c 0,43,32
 188 323 188 323 234.5 343 c 128,-1,33
334 161 m 0,44,45
 333 222 333 222 294 257 c 0,46,47
 268 279 268 279 227.5 279 c 128,-1,48
 187 279 187 279 164 254 c 1,49,50
 164 104 164 104 185 69 c 0,51,52
 200 43 200 43 243 43 c 128,-1,53
 286 43 286 43 310 80 c 128,-1,54
 334 117 334 117 334 161 c 0,44,45
EndSplineSet
Validated: 3105
EndChar

StartChar: D
Encoding: 36 68 15
Width: 519
VWidth: 0
Flags: W
HStem: -8 49<102.631 302.372> 522 50<168 274.061>
VStem: 74 94<66.6631 505> 381 106<155.884 396.018>
LayerCount: 2
Fore
SplineSet
10 543 m 0,0,1
 10 563 10 563 24.5 567.5 c 128,-1,2
 39 572 39 572 141.5 572 c 128,-1,3
 244 572 244 572 298 556 c 128,-1,4
 352 540 352 540 404 487 c 0,5,6
 434 457 434 457 448 434 c 128,-1,7
 462 411 462 411 474.5 367.5 c 128,-1,8
 487 324 487 324 487 264.5 c 128,-1,9
 487 205 487 205 459 140 c 1,10,11
 410 31 410 31 306 1 c 0,12,13
 276 -8 276 -8 218 -8 c 0,14,15
 56 -8 56 -8 33.5 -2.5 c 128,-1,16
 11 3 11 3 11 15 c 0,17,18
 11 29 11 29 41 42 c 2,19,-1
 74 56 l 1,20,-1
 74 505 l 1,21,-1
 49 518 l 2,22,23
 29 528 29 528 15 534 c 0,24,25
 10 536 10 536 10 543 c 0,0,1
324 458 m 0,26,27
 268 521 268 521 198 522 c 2,28,-1
 168 522 l 1,29,-1
 168 308 l 2,30,31
 168 157 168 157 171 120.5 c 128,-1,32
 174 84 174 84 193 62.5 c 128,-1,33
 212 41 212 41 247 41 c 128,-1,34
 282 41 282 41 318.5 76.5 c 128,-1,35
 355 112 355 112 368 158.5 c 128,-1,36
 381 205 381 205 381 276.5 c 128,-1,37
 381 348 381 348 368.5 384.5 c 128,-1,38
 356 421 356 421 324 458 c 0,26,27
EndSplineSet
Validated: 3073
EndChar

StartChar: E
Encoding: 37 69 16
Width: 447
VWidth: 0
Flags: W
HStem: -6 48<194.051 326.35> 282 49<166 213> 367 20G<281.75 301.25> 522 50<166 293.708>
VStem: 73 93<70.0264 282 331 508>
LayerCount: 2
Fore
SplineSet
299 593 m 0,0,1
 304 610 304 610 318 610 c 2,2,3
 322 610 l 1,4,5
 341 607 341 607 361.5 543 c 128,-1,6
 382 479 382 479 382 457 c 128,-1,7
 382 435 382 435 370 435 c 128,-1,8
 358 435 358 435 330 467 c 128,-1,9
 302 499 302 499 278 510.5 c 128,-1,10
 254 522 254 522 212 522 c 2,11,-1
 166 522 l 1,12,-1
 166 331 l 1,13,-1
 213 334 l 2,14,15
 244 336 244 336 253 341 c 128,-1,16
 262 346 262 346 266 362 c 0,17,18
 272 387 272 387 291.5 387 c 128,-1,19
 311 387 311 387 334 317 c 128,-1,20
 357 247 357 247 357 229 c 128,-1,21
 357 211 357 211 337 212 c 128,-1,22
 317 213 317 213 310.5 233 c 128,-1,23
 304 253 304 253 273.5 267.5 c 128,-1,24
 243 282 243 282 206 282 c 2,25,-1
 166 282 l 1,26,-1
 166 187 l 2,27,28
 166 121 166 121 170 102 c 128,-1,29
 174 83 174 83 191 67 c 1,30,31
 215 42 215 42 252 42 c 0,32,33
 267 42 267 42 284 46 c 0,34,35
 342 60 342 60 372 111 c 0,36,37
 387 136 387 136 406.5 141 c 128,-1,38
 426 146 426 146 426 125 c 0,39,40
 426 110 426 110 402.5 30.5 c 128,-1,41
 379 -49 379 -49 357 -49 c 0,42,43
 347 -49 347 -49 342.5 -34 c 128,-1,44
 338 -19 338 -19 327 -15 c 0,45,46
 307 -8 307 -8 183.5 -6 c 128,-1,47
 60 -4 60 -4 35 -0.5 c 128,-1,48
 10 3 10 3 10 16.5 c 128,-1,49
 10 30 10 30 40 43 c 2,50,-1
 73 57 l 1,51,-1
 73 508 l 1,52,-1
 40 522 l 2,53,54
 10 535 10 535 10 548 c 128,-1,55
 10 561 10 561 31.5 564.5 c 128,-1,56
 53 568 53 568 128 570 c 2,57,-1
 230 572 l 2,58,59
 285 573 285 573 294 582 c 0,60,61
 297 585 297 585 299 593 c 0,0,1
EndSplineSet
Validated: 3073
EndChar

StartChar: F
Encoding: 38 70 17
Width: 387
VWidth: 0
Flags: W
HStem: -7 21G<187 197> 285 47<167 219> 374 20G<271.5 289> 522 48<167 278.683>
VStem: 73 94<67.1876 285 332 508>
LayerCount: 2
Fore
SplineSet
277 394 m 0,0,1
 301 394 301 394 324 327.5 c 128,-1,2
 347 261 347 261 347 236 c 128,-1,3
 347 211 347 211 335 211 c 128,-1,4
 323 211 323 211 302 236.5 c 128,-1,5
 281 262 281 262 265.5 269.5 c 128,-1,6
 250 277 250 277 219 280 c 2,7,-1
 167 285 l 1,8,-1
 167 174 l 2,9,10
 167 88 167 88 174 66.5 c 128,-1,11
 181 45 181 45 212 40 c 0,12,13
 231 37 231 37 234.5 17.5 c 0,14,15
 237 -2 237 -2 233 -2 c 0,16,17
 220 -1 220 -1 211 -4 c 128,-1,18
 202 -7 202 -7 192 -7 c 128,-1,19
 182 -7 182 -7 116 -5 c 128,-1,20
 50 -3 50 -3 30 0 c 128,-1,21
 10 3 10 3 10 16.5 c 128,-1,22
 10 30 10 30 40 43 c 2,23,-1
 73 57 l 1,24,-1
 73 508 l 1,25,-1
 40 522 l 2,26,27
 10 535 10 535 10 548 c 128,-1,28
 10 561 10 561 32.5 564.5 c 128,-1,29
 55 568 55 568 134.5 570 c 128,-1,30
 214 572 214 572 241.5 574 c 128,-1,31
 269 576 269 576 279 579.5 c 128,-1,32
 289 583 289 583 293.5 597 c 128,-1,33
 298 611 298 611 310 611 c 0,34,35
 311 611 311 611 315 610 c 0,36,37
 330 607 330 607 355 540.5 c 128,-1,38
 380 474 380 474 380 460 c 128,-1,39
 380 446 380 446 378 443 c 0,40,41
 370 430 370 430 354 438 c 128,-1,42
 338 446 338 446 326 468 c 0,43,44
 298 522 298 522 212 522 c 2,45,-1
 167 522 l 1,46,-1
 167 332 l 1,47,-1
 206 332 l 2,48,49
 235 332 235 332 247.5 340.5 c 128,-1,50
 260 349 260 349 263 371.5 c 128,-1,51
 266 394 266 394 277 394 c 0,0,1
EndSplineSet
Validated: 3073
EndChar

StartChar: G
Encoding: 39 71 18
Width: 584
VWidth: 0
Flags: W
HStem: -10 72<242.501 368.721> -7 21G<488.782 500.282> 540 48<214.848 367.601>
VStem: 32.0322 98.9998<194.011 411.013> 389.032 42.5<564.372 619.994> 410.032 91<97.4761 207.959>
LayerCount: 2
Fore
SplineSet
506.032 44 m 1,0,1
 506.032 32 l 2,2,3
 506.032 -7 506.032 -7 494.532 -7 c 128,-1,4
 483.032 -7 483.032 -7 458.032 19 c 2,5,-1
 429.032 51 l 1,6,-1
 383.032 21 l 2,7,8
 355.032 2 355.032 2 335.032 -4 c 128,-1,9
 315.032 -10 315.032 -10 278.032 -10 c 0,10,11
 131.032 -10 131.032 -10 62.0322 124 c 1,12,13
 55.0322 140 55.0322 140 44.0322 175 c 128,-1,14
 33.0322 210 33.0322 210 32.0322 273 c 0,15,16
 31.0322 366 31.0322 366 61.0322 430 c 1,17,18
 99.0322 514 99.0322 514 153.032 551 c 128,-1,19
 207.032 588 207.032 588 281.032 588 c 0,20,21
 355.032 589 355.032 589 374.032 576 c 2,22,-1
 388.032 564 l 257,23,24
 388.032 572 388.032 572 389.032 596 c 128,-1,25
 390.032 620 390.032 620 410.032 620 c 0,26,27
 421.032 620 421.032 620 431.532 601.5 c 128,-1,28
 442.032 583 442.032 583 461.532 521.5 c 128,-1,29
 481.032 460 481.032 460 481.032 438.5 c 128,-1,30
 481.032 417 481.032 417 464.532 417 c 128,-1,31
 448.032 417 448.032 417 426.032 456 c 128,-1,32
 404.032 495 404.032 495 369.032 517.5 c 128,-1,33
 334.032 540 334.032 540 285.032 540 c 128,-1,34
 236.032 540 236.032 540 203.032 509 c 1,35,36
 130.032 444 130.032 444 131.032 320 c 0,37,38
 131.032 249 131.032 249 152.032 194 c 0,39,40
 184.032 111 184.032 111 248.032 79 c 0,41,42
 283.032 62 283.032 62 301.032 62 c 2,43,-1
 303.032 62 l 1,44,45
 321.032 63 321.032 63 340.032 69 c 0,46,47
 410.032 90 410.032 90 410.032 157 c 0,48,49
 411.032 211 411.032 211 351.032 225 c 0,50,51
 321.032 232 321.032 232 320.032 251 c 0,52,53
 320.032 258 320.032 258 322.032 262 c 0,54,55
 327.032 270 327.032 270 448.532 270 c 128,-1,56
 570.032 270 570.032 270 570.032 252 c 0,57,58
 570.032 245 570.032 245 556.032 236 c 0,59,60
 518.032 213 518.032 213 509.532 194 c 128,-1,61
 501.032 175 501.032 175 501.032 160 c 2,62,-1
 501.032 142 l 1,63,-1
 506.032 44 l 1,0,1
EndSplineSet
Validated: 3105
EndChar

StartChar: H
Encoding: 40 72 19
Width: 529
VWidth: 0
Flags: W
HStem: -8 49<306.659 333 468.333 514.776> 271 60<164 364> 522 47<169.501 222.593 468.3 513.325>
VStem: 74 90<58 271 331 505> 364 97<50 271 331 512>
LayerCount: 2
Fore
SplineSet
120 -6 m 128,-1,1
 11 -6 11 -6 11 15 c 0,2,3
 11 29 11 29 41 42 c 2,4,-1
 74 56 l 1,5,-1
 74 505 l 1,6,-1
 49 518 l 2,7,8
 29 528 29 528 19.5 532 c 128,-1,9
 10 536 10 536 10 542 c 0,10,11
 10 564 10 564 31 568 c 0,12,13
 46 571 46 571 134 571.5 c 128,-1,14
 222 572 222 572 229 561 c 128,-1,15
 236 550 236 550 223 536 c 128,-1,16
 210 522 210 522 192.5 522 c 128,-1,17
 175 522 175 522 169.5 500 c 128,-1,18
 164 478 164 478 164 410 c 2,19,-1
 164 331 l 1,20,-1
 364 331 l 1,21,-1
 364 512 l 1,22,-1
 333 523 l 2,23,24
 306 532 306 532 306 547 c 0,25,26
 306 559 306 559 323 563 c 0,27,28
 355 570 355 570 413.5 570 c 128,-1,29
 472 570 472 570 490 569 c 128,-1,30
 508 568 508 568 513.5 564.5 c 128,-1,31
 519 561 519 561 519 552 c 0,32,33
 519 532 519 532 490 522 c 2,34,-1
 459 512 l 1,35,-1
 461 279 l 1,36,-1
 464 47 l 1,37,-1
 490 41 l 2,38,39
 515 35 515 35 517 13 c 0,40,41
 518 1 518 1 515 -3 c 1,42,43
 508 -8 508 -8 481 -8 c 0,44,45
 356 -8 356 -8 331 -2.5 c 128,-1,46
 306 3 306 3 306 15 c 0,47,48
 306 29 306 29 333 39 c 2,49,-1
 364 50 l 1,50,-1
 364 271 l 1,51,-1
 163 271 l 1,52,-1
 169 58 l 1,53,-1
 199 41 l 2,54,55
 229 24 229 24 229 9 c 128,-1,0
 229 -6 229 -6 120 -6 c 128,-1,1
EndSplineSet
Validated: 3105
EndChar

StartChar: I
Encoding: 41 73 20
Width: 241
VWidth: 0
Flags: W
HStem: -7 21G<65.25 173.75> 523.5 39.5<171.366 230.937> 549 20G<79.25 135.75>
VStem: 74 91<57 495.517>
LayerCount: 2
Fore
SplineSet
119.5 -7 m 128,-1,1
 11 -7 11 -7 11 14 c 0,2,3
 11 28 11 28 41 41 c 2,4,-1
 74 55 l 1,5,-1
 74 504 l 1,6,-1
 49 517 l 2,7,8
 29 527 29 527 19.5 531 c 128,-1,9
 10 535 10 535 10 541 c 0,10,11
 10 564 10 564 36 567 c 0,12,13
 51 569 51 569 107.5 569 c 128,-1,14
 164 569 164 569 209 563 c 0,15,16
 231 559 231 559 231 542 c 0,17,18
 231 529 231 529 202.5 523.5 c 128,-1,19
 174 518 174 518 168 496 c 0,20,21
 164 481 164 481 164 408 c 0,22,23
 164 334 164 334 165 266 c 2,24,-1
 168 57 l 1,25,-1
 198 40 l 2,26,27
 228 23 228 23 228 8 c 128,-1,0
 228 -7 228 -7 119.5 -7 c 128,-1,1
EndSplineSet
Validated: 3073
EndChar

StartChar: J
Encoding: 42 74 21
Width: 304
VWidth: 0
Flags: W
HStem: -122 88<0.172729 75.7854>
VStem: 117 95<-23.3717 322.25>
LayerCount: 2
Fore
SplineSet
-22 -71 m 0,0,1
 -22 -34 -22 -34 25 -34 c 0,2,3
 26 -34 26 -34 34 -34 c 128,-1,4
 42 -34 42 -34 59.5 -45.5 c 128,-1,5
 77 -57 77 -57 84 -60 c 128,-1,6
 91 -63 91 -63 97.5 -55 c 128,-1,7
 104 -47 104 -47 108.5 -24.5 c 128,-1,8
 113 -2 113 -2 115 92 c 1,9,-1
 116 210 l 2,10,11
 117 300 117 300 117 383.5 c 128,-1,12
 117 467 117 467 113 485 c 0,13,14
 108 509 108 509 78 519 c 0,15,16
 57 526 57 526 50.5 538 c 128,-1,17
 44 550 44 550 55 560 c 1,18,19
 60 567 60 567 133.5 567 c 128,-1,20
 207 567 207 567 225 567 c 128,-1,21
 243 567 243 567 256.5 565 c 128,-1,22
 270 563 270 563 272 559 c 128,-1,23
 274 555 274 555 274 549 c 0,24,25
 274 530 274 530 245 519 c 2,26,-1
 216 509 l 1,27,-1
 212 260 l 2,28,29
 209 71 209 71 206 35.5 c 128,-1,30
 203 0 203 0 187 -30 c 0,31,32
 136 -122 136 -122 46 -122 c 0,33,34
 21 -122 21 -122 -0.5 -110 c 128,-1,35
 -22 -98 -22 -98 -22 -71 c 0,0,1
EndSplineSet
Validated: 3073
EndChar

StartChar: K
Encoding: 43 75 22
Width: 479
VWidth: 0
Flags: W
HStem: -1 41<414.737 463.436> 485 96<357.136 427.715>
VStem: 73 92<57 260 332.006 508>
LayerCount: 2
Fore
SplineSet
10 549 m 0,0,1
 10 570 10 570 120.5 569.5 c 128,-1,2
 231 569 231 569 231 549 c 0,3,4
 231 535 231 535 201 522 c 2,5,-1
 168 508 l 1,6,-1
 166 412 l 2,7,8
 165 384 165 384 165 358 c 128,-1,9
 165 332 165 332 167 332 c 128,-1,10
 169 332 169 332 178 355 c 0,11,12
 200 413 200 413 255.5 474.5 c 128,-1,13
 311 536 311 536 370 567 c 0,14,15
 395 580 395 580 403 581 c 0,16,17
 429 581 429 581 439 552 c 0,18,19
 442 541 442 541 441.5 532 c 128,-1,20
 441 523 441 523 437 517 c 0,21,22
 430 503 430 503 388 485 c 0,23,24
 300 448 300 448 245 353 c 2,25,-1
 222 313 l 1,26,-1
 260 306 l 2,27,28
 288 301 288 301 333.5 256.5 c 128,-1,29
 379 212 379 212 393 131 c 128,-1,30
 407 50 407 50 435.5 40 c 128,-1,31
 464 30 464 30 464 16 c 0,32,33
 464 -1 464 -1 446 -1 c 1,34,-1
 372 -7 l 2,35,36
 363 -7 363 -7 354 -4.5 c 128,-1,37
 345 -2 345 -2 337 -1 c 128,-1,38
 329 0 329 0 320 11.5 c 128,-1,39
 311 23 311 23 307 41.5 c 128,-1,40
 303 60 303 60 299 104.5 c 128,-1,41
 295 149 295 149 282.5 187.5 c 128,-1,42
 270 226 270 226 257 234 c 128,-1,43
 244 242 244 242 204 251 c 2,44,-1
 162 260 l 1,45,-1
 168 57 l 1,46,-1
 201 43 l 2,47,48
 231 30 231 30 231 16 c 0,49,50
 231 -5 231 -5 120.5 -5 c 128,-1,51
 10 -5 10 -5 10 16 c 0,52,53
 10 30 10 30 40 43 c 2,54,-1
 73 57 l 1,55,-1
 73 508 l 1,56,-1
 40 522 l 2,57,58
 10 535 10 535 10 549 c 0,0,1
EndSplineSet
Validated: 3105
EndChar

StartChar: L
Encoding: 44 76 23
Width: 452
VWidth: 0
Flags: W
HStem: -8 49<219.25 315.711> 550 20G<103.75 173.25>
VStem: 84 92<63.1289 504>
LayerCount: 2
Fore
SplineSet
59 517 m 2,0,1
 39 527 39 527 29.5 531 c 128,-1,2
 20 535 20 535 20 540.5 c 128,-1,3
 20 546 20 546 23 555 c 128,-1,4
 26 564 26 564 47.5 567 c 128,-1,5
 69 570 69 570 138.5 570 c 128,-1,6
 208 570 208 570 226.5 567 c 128,-1,7
 245 564 245 564 245 552 c 0,8,9
 245 533 245 533 213 519 c 2,10,-1
 180 505 l 1,11,-1
 177 299 l 2,12,13
 176 233 176 233 176 184.5 c 128,-1,14
 176 136 176 136 178 110.5 c 128,-1,15
 180 85 180 85 195.5 66 c 128,-1,16
 211 47 211 47 219 44 c 128,-1,17
 227 41 227 41 237 41 c 0,18,19
 326 41 326 41 383 133 c 0,20,21
 396 154 396 154 409 158.5 c 128,-1,22
 422 163 422 163 430 150 c 0,23,24
 431 148 431 148 431 136 c 128,-1,25
 431 124 431 124 407 47 c 128,-1,26
 383 -30 383 -30 372.5 -38.5 c 128,-1,27
 362 -47 362 -47 356 -47 c 0,28,29
 335 -46 335 -46 335 -25 c 0,30,31
 335 -16 335 -16 303.5 -13 c 128,-1,32
 272 -10 272 -10 169.5 -8 c 128,-1,33
 67 -6 67 -6 44 -2.5 c 128,-1,34
 21 1 21 1 21 14.5 c 128,-1,35
 21 28 21 28 51 41 c 2,36,-1
 84 55 l 1,37,-1
 84 504 l 1,38,-1
 59 517 l 2,0,1
EndSplineSet
Validated: 3073
EndChar

StartChar: M
Encoding: 45 77 24
Width: 698
VWidth: 0
Flags: W
HStem: -6 51<11.0547 64.563 465.829 518.779> 2 42<159 201.677> 483 84<127.375 150.918 544.096 568.718>
LayerCount: 2
Fore
SplineSet
492 45 m 6,0,-1
 496 45 l 6,1,2
 512 45 512 45 519 64 c 5,3,-1
 519 80 l 6,4,5
 519 95 519 95 495 237.5 c 132,-1,6
 471 380 471 380 464 388 c 5,7,8
 448 361 448 361 427.5 322.5 c 132,-1,9
 407 284 407 284 360 103 c 4,10,11
 353 76 353 76 333.5 76 c 132,-1,12
 314 76 314 76 308 103 c 4,13,14
 269 278 269 278 238 345 c 6,15,-1
 212 401 l 5,16,-1
 164 187 l 6,17,18
 145 104 145 104 145 77 c 5,19,20
 144 70 144 70 148 61 c 132,-1,21
 152 52 152 52 159 49 c 6,22,-1
 175 44 l 6,23,24
 202 36 202 36 202 20 c 4,25,26
 202 7 202 7 178 2 c 132,-1,27
 154 -3 154 -3 86.5 -3 c 132,-1,28
 19 -3 19 -3 13 8 c 4,29,30
 10 12 10 12 10 18 c 132,-1,31
 10 24 10 24 17.5 35 c 132,-1,32
 25 46 25 46 38 45 c 5,33,-1
 39 45 l 5,34,35
 51 46 51 46 65 62 c 5,36,37
 79 80 79 80 115 244 c 132,-1,38
 151 408 151 408 151 458 c 4,39,40
 151 483 151 483 130 483 c 6,41,-1
 129 483 l 6,42,43
 104 483 104 483 104 494 c 4,44,45
 104 535 104 535 127 556 c 4,46,47
 139 567 139 567 150 567 c 4,48,49
 188 567 188 567 246 506 c 4,50,51
 278 472 278 472 316 378 c 6,52,-1
 350 293 l 5,53,-1
 378 372 l 6,54,55
 389 402 389 402 429.5 458 c 132,-1,56
 470 514 470 514 516 556 c 4,57,58
 534 572 534 572 547 572 c 132,-1,59
 560 572 560 572 569 560.5 c 132,-1,60
 578 549 578 549 587 496 c 4,61,62
 589 485 589 485 562 486 c 260,63,64
 544 486 544 486 544 464.5 c 132,-1,65
 544 443 544 443 580.5 266.5 c 132,-1,66
 617 90 617 90 626 72 c 132,-1,67
 635 54 635 54 651 49 c 4,68,69
 689 35 689 35 688 17 c 4,70,71
 688 13 688 13 687 10 c 5,72,73
 682 -6 682 -6 574.5 -6 c 132,-1,74
 467 -6 467 -6 461 8 c 132,-1,75
 455 22 455 22 465.5 33.5 c 132,-1,76
 476 45 476 45 492 45 c 6,0,-1
EndSplineSet
Validated: 3105
EndChar

StartChar: N
Encoding: 46 78 25
Width: 529
VWidth: 0
Flags: W
HStem: -1.5 38<10.0637 70.2744 151.904 206.842> 478 91<28.6841 69.3174> 519.5 47.5<325.266 378.326> 556 20G<69 102>
VStem: 78 60<64.4835 432.23> 389 70<260 505.638> 396 72<-8.06616 121.302>
LayerCount: 2
Fore
SplineSet
468 2 m 1,0,1
 463 -9 463 -9 430 -9 c 128,-1,2
 397 -9 397 -9 396 8 c 0,3,4
 393 64 393 64 382.5 98.5 c 128,-1,5
 372 133 372 133 348 169 c 1,6,-1
 269 294 l 2,7,8
 230 357 230 357 197 386 c 2,9,-1
 143 434 l 1,10,-1
 139 250 l 2,11,12
 138 216 138 216 138 188 c 0,13,14
 138 81 138 81 149 60 c 0,15,16
 153 52 153 52 163 45 c 128,-1,17
 173 38 173 38 184 36 c 0,18,19
 207 30 207 30 207 15.5 c 128,-1,20
 207 1 207 1 189 -2 c 128,-1,21
 171 -5 171 -5 109 -5 c 128,-1,22
 47 -5 47 -5 28.5 -1.5 c 128,-1,23
 10 2 10 2 10 16.5 c 128,-1,24
 10 31 10 31 39 36.5 c 128,-1,25
 68 42 68 42 74 64 c 0,26,27
 78 79 78 79 78 154.5 c 128,-1,28
 78 230 78 230 76 342 c 1,29,-1
 74 390 l 1,30,31
 73 473 73 473 60 476 c 0,32,33
 54 478 54 478 53 478 c 2,34,-1
 51 478 l 2,35,36
 33 478 33 478 23 517 c 0,37,38
 22 522 22 522 22 533 c 0,39,40
 22 565 22 565 40 569 c 0,41,42
 65 576 65 576 73 576 c 0,43,44
 131 576 131 576 241 468 c 0,45,46
 315 396 315 396 365 304 c 2,47,-1
 389 260 l 1,48,-1
 386 410 l 2,49,50
 384 495 384 495 378.5 506 c 128,-1,51
 373 517 373 517 357.5 519.5 c 128,-1,52
 342 522 342 522 331.5 532.5 c 128,-1,53
 321 543 321 543 325 553.5 c 128,-1,54
 329 564 329 564 349.5 567 c 128,-1,55
 370 570 370 570 429.5 570 c 128,-1,56
 489 570 489 570 504 567 c 128,-1,57
 519 564 519 564 519 551 c 0,58,59
 519 531 519 531 489 522 c 2,60,-1
 459 511 l 1,61,-1
 459 263 l 1,62,-1
 468 2 l 1,0,1
EndSplineSet
Validated: 3073
EndChar

StartChar: O
Encoding: 47 79 26
Width: 674
VWidth: 0
Flags: W
HStem: -22 56<281.721 444.829> 533 56.5<233.483 389.969>
VStem: 32 106<220.104 398.579> 531 111.5<171.887 357.869>
LayerCount: 2
Fore
SplineSet
130 508 m 0,0,1
 216 589 216 589 333.5 589.5 c 128,-1,2
 451 590 451 590 532 519.5 c 128,-1,3
 613 449 613 449 635 345 c 1,4,5
 643 300 643 300 642.5 273 c 128,-1,6
 642 246 642 246 635 215 c 0,7,8
 606 104 606 104 525 41 c 128,-1,9
 444 -22 444 -22 339 -22 c 0,10,11
 294 -22 294 -22 266 -16 c 128,-1,12
 238 -10 238 -10 206 6 c 0,13,14
 146 35 146 35 105 83 c 0,15,16
 32 169 32 169 32 280 c 0,17,18
 32 417 32 417 130 508 c 0,0,1
454 456 m 0,19,20
 391 533 391 533 312 533 c 0,21,22
 277 533 277 533 243 517 c 0,23,24
 173 485 173 485 148 406 c 0,25,26
 138 378 138 378 138 339 c 128,-1,27
 138 300 138 300 152 247 c 0,28,29
 177 150 177 150 224 101 c 0,30,31
 287 34 287 34 367 34 c 0,32,33
 403 34 403 34 435 50 c 0,34,35
 486 74 486 74 513 130 c 0,36,37
 531 166 531 166 531 228 c 0,38,39
 531 362 531 362 454 456 c 0,19,20
EndSplineSet
Validated: 3105
EndChar

StartChar: P
Encoding: 48 80 27
Width: 441
VWidth: 0
Flags: W
HStem: -8 50<12.5822 59.8418 175.601 232.077> 520.5 51.5<11.6908 60.9034 164 191>
VStem: 70 94<68 512.842> 319 92<308.106 458.573>
LayerCount: 2
Fore
SplineSet
164 221 m 1,0,-1
 162 128 l 2,1,2
 162 101 162 101 172.5 71.5 c 128,-1,3
 183 42 183 42 201 42 c 128,-1,4
 219 42 219 42 232.5 27.5 c 128,-1,5
 246 13 246 13 239 2.5 c 128,-1,6
 232 -8 232 -8 142.5 -8 c 128,-1,7
 53 -8 53 -8 34 -5 c 128,-1,8
 15 -2 15 -2 12.5 4 c 128,-1,9
 10 10 10 10 10 16 c 128,-1,10
 10 22 10 22 19.5 31.5 c 128,-1,11
 29 41 29 41 42 43 c 128,-1,12
 55 45 55 45 60 50 c 128,-1,13
 65 55 65 55 66 68 c 2,14,-1
 68 93 l 2,15,16
 70 116 70 116 70 223 c 2,17,-1
 70 358 l 2,18,19
 70 481 70 481 67 494.5 c 128,-1,20
 64 508 64 508 61 513 c 128,-1,21
 58 518 58 518 43.5 520.5 c 128,-1,22
 29 523 29 523 19.5 532.5 c 128,-1,23
 10 542 10 542 10 548 c 128,-1,24
 10 554 10 554 12 558 c 0,25,26
 18 573 18 573 129 572 c 0,27,28
 133 572 133 572 137 572 c 1,29,30
 256 572 256 572 296 558 c 1,31,32
 410 510 410 510 411 395 c 0,33,34
 411 386 411 386 410 376 c 0,35,36
 397 220 397 220 231 220 c 0,37,38
 200 220 200 220 200 230 c 0,39,40
 200 245 200 245 267 282 c 0,41,42
 319 311 319 311 319 383.5 c 128,-1,43
 319 456 319 456 266 488 c 0,44,45
 245 501 245 501 237 510 c 0,46,47
 235 511 235 511 191 520 c 2,48,-1
 164 525 l 1,49,-1
 164 221 l 1,0,-1
EndSplineSet
Validated: 3105
EndChar

StartChar: Q
Encoding: 49 81 28
Width: 674
VWidth: 0
Flags: W
HStem: -210 59<396.027 477.996> -22 57<279.436 344> 533 57<232.322 391.206>
VStem: 32 106<220.22 398.466> 336 56<-145.5 -36> 356 76<46.8235 233.989> 478 121<-150.266 -65.9431> 531 111.5<172.693 357.631>
LayerCount: 2
Fore
SplineSet
454 456 m 0,0,1
 391 533 391 533 312 533 c 0,2,3
 277 533 277 533 243 517 c 0,4,5
 173 485 173 485 148 406 c 0,6,7
 138 377 138 377 138 338.5 c 128,-1,8
 138 300 138 300 152 247 c 0,9,10
 177 151 177 151 228.5 96.5 c 128,-1,11
 280 42 280 42 349 35 c 1,12,13
 356 114 356 114 356 139 c 128,-1,14
 356 164 356 164 342 209.5 c 128,-1,15
 328 255 328 255 324.5 259 c 128,-1,16
 321 263 321 263 321 269.5 c 128,-1,17
 321 276 321 276 337.5 291 c 128,-1,18
 354 306 354 306 365 306 c 0,19,20
 397 306 397 306 419 273 c 0,21,22
 432 254 432 254 432 216.5 c 128,-1,23
 432 179 432 179 421.5 116 c 128,-1,24
 411 53 411 53 409 40 c 1,25,26
 478 60 478 60 513 130 c 0,27,28
 531 166 531 166 531 228 c 0,29,30
 531 362 531 362 454 456 c 0,0,1
336 -134 m 1,31,-1
 344 -22 l 1,32,33
 336 -22 336 -22 313 -22 c 0,34,35
 260 -22 260 -22 202.5 7 c 128,-1,36
 145 36 145 36 105 84 c 0,37,38
 32 169 32 169 32 280 c 0,39,40
 32 417 32 417 130 508 c 0,41,42
 176 551 176 551 229 570.5 c 128,-1,43
 282 590 282 590 329 590 c 0,44,45
 451 590 451 590 533 518.5 c 128,-1,46
 615 447 615 447 635 345 c 0,47,48
 643 298 643 298 642.5 271.5 c 128,-1,49
 642 245 642 245 635 215 c 0,50,51
 606 107 606 107 522 37 c 0,52,53
 470 -7 470 -7 402 -18 c 1,54,55
 392 -40 392 -40 392 -111 c 0,56,57
 392 -151 392 -151 442 -151 c 0,58,59
 450 -151 450 -151 460 -150 c 0,60,61
 478 -148 478 -148 478 -131 c 0,62,63
 478 -121 478 -121 472.5 -105 c 128,-1,64
 467 -89 467 -89 467 -77 c 0,65,66
 467 -38 467 -38 515.5 -38 c 128,-1,67
 564 -38 564 -38 588 -64 c 0,68,69
 599 -76 599 -76 599 -97 c 128,-1,70
 599 -118 599 -118 576 -156 c 0,71,72
 542 -209 542 -209 476 -210 c 1,73,-1
 463 -210 l 2,74,75
 336 -210 336 -210 336 -139 c 2,76,-1
 336 -134 l 1,31,-1
EndSplineSet
Validated: 3105
EndChar

StartChar: R
Encoding: 50 82 29
Width: 503
VWidth: 0
Flags: W
HStem: -8 50<12.5822 59.8418 175.601 232.077> 520.5 51.5<11.6908 60.9034 164 191>
VStem: 70 94<68 512.842> 319 92<309.313 457.839>
LayerCount: 2
Fore
SplineSet
411 395 m 0,0,1
 411 259 411 259 269 224 c 1,2,-1
 366 122 l 2,3,4
 424 60 424 60 458.5 44.5 c 128,-1,5
 493 29 493 29 493 16.5 c 128,-1,6
 493 4 493 4 475 0.5 c 128,-1,7
 457 -3 457 -3 405 -3 c 2,8,-1
 321 -3 l 1,9,-1
 315 27 l 2,10,11
 309 55 309 55 253.5 133.5 c 128,-1,12
 198 212 198 212 201 227 c 1,13,14
 200 228 200 228 200 230 c 0,15,16
 200 245 200 245 267 282 c 0,17,18
 319 311 319 311 319 382.5 c 128,-1,19
 319 454 319 454 266 488 c 0,20,21
 245 501 245 501 237 510 c 0,22,23
 235 511 235 511 191 520 c 2,24,-1
 164 525 l 1,25,-1
 164 221 l 1,26,-1
 162 128 l 2,27,28
 162 101 162 101 172.5 71.5 c 128,-1,29
 183 42 183 42 201 42 c 128,-1,30
 219 42 219 42 232.5 27.5 c 128,-1,31
 246 13 246 13 239 2.5 c 128,-1,32
 232 -8 232 -8 142.5 -8 c 128,-1,33
 53 -8 53 -8 34 -5 c 128,-1,34
 15 -2 15 -2 12.5 4 c 128,-1,35
 10 10 10 10 10 16 c 128,-1,36
 10 22 10 22 19.5 31.5 c 128,-1,37
 29 41 29 41 42 43 c 128,-1,38
 55 45 55 45 60 49 c 128,-1,39
 65 53 65 53 66 68 c 2,40,-1
 68 93 l 2,41,42
 70 116 70 116 70 223 c 2,43,-1
 70 358 l 2,44,45
 70 481 70 481 67 494.5 c 128,-1,46
 64 508 64 508 61 513 c 128,-1,47
 58 518 58 518 43.5 520.5 c 128,-1,48
 29 523 29 523 19.5 532.5 c 128,-1,49
 10 542 10 542 10 548 c 128,-1,50
 10 554 10 554 12 558 c 0,51,52
 18 573 18 573 129 572 c 0,53,54
 133 572 133 572 137 572 c 1,55,56
 256 572 256 572 296 558 c 1,57,58
 411 509 411 509 411 395 c 0,0,1
EndSplineSet
Validated: 3105
EndChar

StartChar: S
Encoding: 51 83 30
Width: 424
VWidth: 0
Flags: W
HStem: -14 52<131.613 263.636> 524 48<144.088 259.18>
VStem: 20 97<53.8296 137.079> 47 85<424.879 511.077> 308 85<90.9032 202.977>
LayerCount: 2
Fore
SplineSet
265.5 559 m 128,-1,1
 269 560 269 560 269 575 c 128,-1,2
 269 590 269 590 275.5 597 c 128,-1,3
 282 604 282 604 289 604 c 0,4,5
 310 604 310 604 331.5 529 c 128,-1,6
 353 454 353 454 353 442.5 c 128,-1,7
 353 431 353 431 353 429 c 0,8,9
 347 412 347 412 332.5 419 c 128,-1,10
 318 426 318 426 302 455 c 128,-1,11
 286 484 286 484 256.5 504 c 128,-1,12
 227 524 227 524 197 524 c 0,13,14
 153 524 153 524 137 491 c 0,15,16
 132 479 132 479 132 462.5 c 128,-1,17
 132 446 132 446 150 428 c 128,-1,18
 168 410 168 410 252 364 c 0,19,20
 393 285 393 285 393 180 c 0,21,22
 393 158 393 158 387 134 c 0,23,24
 369 64 369 64 317 25 c 128,-1,25
 265 -14 265 -14 192 -14 c 0,26,27
 191 -14 191 -14 190 -14 c 0,28,29
 115 -14 115 -14 67.5 21 c 128,-1,30
 20 56 20 56 20 105.5 c 128,-1,31
 20 155 20 155 57 174 c 0,32,33
 72 182 72 182 89 182 c 128,-1,34
 106 182 106 182 123.5 166 c 128,-1,35
 141 150 141 150 141 127.5 c 128,-1,36
 141 105 141 105 129 95 c 128,-1,37
 117 85 117 85 117 80 c 128,-1,38
 117 75 117 75 128 63 c 0,39,40
 151 38 151 38 190 38 c 0,41,42
 201 38 201 38 215 41 c 0,43,44
 271 51 271 51 293 93 c 0,45,46
 308 122 308 122 308 146 c 128,-1,47
 308 170 308 170 296 190 c 0,48,49
 272 232 272 232 186 281 c 128,-1,50
 100 330 100 330 73.5 359 c 128,-1,51
 47 388 47 388 47 441.5 c 128,-1,52
 47 495 47 495 93 540 c 0,53,54
 110 556 110 556 131.5 564 c 128,-1,55
 153 572 153 572 192.5 572 c 128,-1,56
 232 572 232 572 247 565 c 128,-1,0
 262 558 262 558 265.5 559 c 128,-1,1
EndSplineSet
Validated: 3073
EndChar

StartChar: T
Encoding: 52 84 31
Width: 472
VWidth: 0
Flags: W
HStem: -9 47<121.25 181.261 294.603 347.808> 522 50<117.763 189 284 357.352>
VStem: 189 95<55.912 522>
LayerCount: 2
Fore
SplineSet
44 440 m 0,0,1
 41 440 41 440 36 443 c 128,-1,2
 31 446 31 446 31 457 c 128,-1,3
 31 468 31 468 46 516.5 c 128,-1,4
 61 565 61 565 70 587.5 c 128,-1,5
 79 610 79 610 94 610 c 128,-1,6
 109 610 109 610 117.5 593.5 c 128,-1,7
 126 577 126 577 146 574.5 c 128,-1,8
 166 572 166 572 260.5 572 c 128,-1,9
 355 572 355 572 379.5 575 c 128,-1,10
 404 578 404 578 419 591.5 c 128,-1,11
 434 605 434 605 441.5 607.5 c 128,-1,12
 449 610 449 610 454.5 604.5 c 128,-1,13
 460 599 460 599 460 581.5 c 128,-1,14
 460 564 460 564 439.5 500.5 c 128,-1,15
 419 437 419 437 401 433 c 0,16,17
 392 430 392 430 386.5 437 c 128,-1,18
 381 444 381 444 377.5 465.5 c 128,-1,19
 374 487 374 487 353.5 504.5 c 128,-1,20
 333 522 333 522 307 522 c 2,21,-1
 284 522 l 1,22,-1
 284 292 l 2,23,24
 284 114 284 114 288.5 88.5 c 128,-1,25
 293 63 293 63 295 59 c 128,-1,26
 297 55 297 55 303 49 c 128,-1,27
 309 43 309 43 314 42 c 128,-1,28
 319 41 319 41 329 38 c 1,29,30
 348 35 348 35 352 13 c 1,31,32
 353 0 353 0 348 -4 c 0,33,34
 342 -9 342 -9 316 -9 c 0,35,36
 178 -9 178 -9 149.5 -3.5 c 128,-1,37
 121 2 121 2 121 15 c 0,38,39
 121 30 121 30 147.5 37 c 128,-1,40
 174 44 174 44 181.5 55.5 c 128,-1,41
 189 67 189 67 189 294 c 2,42,-1
 189 522 l 1,43,-1
 162 522 l 2,44,45
 135 522 135 522 97.5 481 c 128,-1,46
 60 440 60 440 44 440 c 0,0,1
EndSplineSet
Validated: 3073
EndChar

StartChar: U
Encoding: 53 85 32
Width: 526
VWidth: 0
Flags: W
HStem: -20 71<213.614 346.876> 520 49<13.1658 67.2332 463.158 512.86>
VStem: 81 102<99 505> 387 58<100.031 493.766>
LayerCount: 2
Fore
SplineSet
13 560 m 0,0,1
 18 569 18 569 62 569 c 0,2,3
 186 569 186 569 216 564 c 128,-1,4
 246 559 246 559 246 546 c 128,-1,5
 246 533 246 533 216 519 c 1,6,-1
 183 505 l 1,7,-1
 183 99 l 1,8,-1
 211 75 l 2,9,10
 239 51 239 51 281 51 c 128,-1,11
 323 51 323 51 346.5 70.5 c 128,-1,12
 370 90 370 90 378.5 133.5 c 128,-1,13
 387 177 387 177 387 324.5 c 128,-1,14
 387 472 387 472 377.5 494.5 c 128,-1,15
 368 517 368 517 343.5 524 c 128,-1,16
 319 531 319 531 319 544.5 c 128,-1,17
 319 558 319 558 337 563 c 0,18,19
 369 570 369 570 436 569.5 c 128,-1,20
 503 569 503 569 509.5 563.5 c 128,-1,21
 516 558 516 558 516 551 c 128,-1,22
 516 544 516 544 505.5 532 c 128,-1,23
 495 520 495 520 481.5 520 c 128,-1,24
 468 520 468 520 463 517 c 1,25,26
 453 506 453 506 450 454 c 128,-1,27
 447 402 447 402 445 271.5 c 128,-1,28
 443 141 443 141 440 109 c 0,29,30
 435 77 435 77 419 53 c 0,31,32
 386 7 386 7 324 -11 c 0,33,34
 293 -20 293 -20 262.5 -20 c 128,-1,35
 232 -20 232 -20 201 -11 c 0,36,37
 140 6 140 6 107 52 c 0,38,39
 90 76 90 76 86 108 c 128,-1,40
 82 140 82 140 81 236 c 2,41,-1
 79 364 l 2,42,43
 76 498 76 498 67.5 509 c 128,-1,44
 59 520 59 520 45.5 520 c 128,-1,45
 32 520 32 520 21 532 c 128,-1,46
 10 544 10 544 10 550 c 128,-1,47
 10 556 10 556 13 560 c 0,0,1
EndSplineSet
Validated: 3105
EndChar

StartChar: V
Encoding: 54 86 33
Width: 544
VWidth: 0
Flags: W
HStem: 468 113<64.936 114.896> 501 109.5<366.377 416.822>
VStem: 271 110<-3 40.75>
LayerCount: 2
Fore
SplineSet
70 468 m 1,0,-1
 33 465 l 1,1,2
 18 465 18 465 12 477 c 0,3,4
 11 479 11 479 11 482 c 0,5,6
 11 499 11 499 46 540 c 128,-1,7
 81 581 81 581 106.5 581 c 128,-1,8
 132 581 132 581 175 523 c 128,-1,9
 218 465 218 465 257 373.5 c 128,-1,10
 296 282 296 282 310 222 c 2,11,-1
 336 110 l 1,12,-1
 388 303 l 1,13,14
 438 458 438 458 443 490 c 1,15,16
 443 501 443 501 405 501 c 128,-1,17
 367 501 367 501 363 508 c 0,18,19
 352 530 352 530 352 540.5 c 128,-1,20
 352 551 352 551 354.5 562.5 c 128,-1,21
 357 574 357 574 368.5 592.5 c 128,-1,22
 380 611 380 611 394.5 610.5 c 128,-1,23
 409 610 409 610 413.5 596 c 128,-1,24
 418 582 418 582 432.5 576 c 128,-1,25
 447 570 447 570 448 570 c 0,26,27
 522 567 522 567 532 551 c 0,28,29
 537 543 537 543 533 525.5 c 128,-1,30
 529 508 529 508 465 326 c 128,-1,31
 401 144 401 144 388 49 c 2,32,-1
 381 -3 l 1,33,-1
 271 -3 l 1,34,-1
 263 47 l 2,35,36
 244 163 244 163 190.5 300 c 128,-1,37
 137 437 137 437 101 458 c 0,38,39
 84 468 84 468 70 468 c 1,0,-1
EndSplineSet
Validated: 3105
EndChar

StartChar: W
Encoding: 55 87 34
Width: 788
VWidth: 0
Flags: W
HStem: -8 21G<316 343> 464 103<60.625 96.7515> 486 123<600.439 648.965> 554 20G<93 101>
VStem: 672 108<472 550.5>
LayerCount: 2
Fore
SplineSet
660 486 m 2,0,1
 595 486 595 486 580 508 c 1,2,3
 576 516 576 516 580 535 c 128,-1,4
 584 554 584 554 585.5 556 c 128,-1,5
 587 558 587 558 598 583.5 c 128,-1,6
 609 609 609 609 625.5 609 c 128,-1,7
 642 609 642 609 648 590 c 0,8,9
 652 577 652 577 663.5 573.5 c 128,-1,10
 675 570 675 570 718.5 570 c 128,-1,11
 762 570 762 570 771 565.5 c 128,-1,12
 780 561 780 561 780 550.5 c 128,-1,13
 780 540 780 540 772 520 c 2,14,-1
 703 326 l 2,15,16
 646 166 646 166 625 63 c 2,17,-1
 610 -4 l 1,18,-1
 557 -4 l 2,19,20
 524 -4 524 -4 513.5 7 c 128,-1,21
 503 18 503 18 492.5 88.5 c 128,-1,22
 482 159 482 159 472 200.5 c 128,-1,23
 462 242 462 242 459.5 250.5 c 128,-1,24
 457 259 457 259 445 287 c 257,25,26
 439 266 439 266 420.5 215.5 c 128,-1,27
 402 165 402 165 378 83 c 2,28,-1
 369 52 l 1,29,30
 355 -2 l 0,31,32
 349 -8 349 -8 337 -8 c 2,33,-1
 319 -8 l 2,34,35
 313 -8 313 -8 309 -7 c 2,36,-1
 260 -4 l 1,37,-1
 253 60 l 2,38,39
 238 194 238 194 175 329 c 128,-1,40
 112 464 112 464 50 470 c 0,41,42
 10 474 10 474 10 481 c 0,43,44
 10 483 10 483 14 485 c 128,-1,45
 18 487 18 487 47.5 528 c 128,-1,46
 77 569 77 569 80.5 569.5 c 128,-1,47
 84 570 84 570 87 570 c 1,48,49
 89 574 89 574 97 574 c 128,-1,50
 105 574 105 574 127 549 c 1,51,52
 223 447 223 447 260 360.5 c 128,-1,53
 297 274 297 274 318 124 c 257,54,-1
 361 240 l 2,55,56
 400 346 400 346 400 376 c 0,57,58
 400 437 400 437 334 464 c 0,59,60
 321 470 321 470 310 467 c 128,-1,61
 299 464 299 464 288 464 c 128,-1,62
 277 464 277 464 271.5 470 c 128,-1,63
 266 476 266 476 266 481.5 c 128,-1,64
 266 487 266 487 280 504 c 2,65,-1
 313 545 l 2,66,67
 330 566 330 566 343 567 c 0,68,69
 345 567 345 567 347 567 c 0,70,71
 363 563 363 563 420 507 c 128,-1,72
 477 451 477 451 503 374 c 0,73,74
 564 193 564 193 566 121 c 257,75,76
 578 182 578 182 609 266.5 c 0,77,78
 640 352 640 352 672 472 c 0,79,80
 676 487 676 487 662 486 c 2,81,-1
 660 486 l 2,0,1
EndSplineSet
Validated: 3073
EndChar

StartChar: X
Encoding: 56 88 35
Width: 595
VWidth: 0
Flags: W
HStem: -9 579<383 506.944> -7 34.5<323.097 355.502>
VStem: 31 158<1.5 71.25>
LayerCount: 2
Fore
SplineSet
61 479 m 0,0,1
 61 499 61 499 104 538.5 c 128,-1,2
 147 578 147 578 168 578 c 0,3,4
 169 578 169 578 169 579 c 0,5,6
 188 580 188 580 202 566 c 128,-1,7
 216 552 216 552 264 467.5 c 128,-1,8
 312 383 312 383 322 383 c 0,9,10
 328 383 328 383 363 443 c 1,11,12
 385 484 385 484 386.5 494 c 128,-1,13
 388 504 388 504 373.5 515.5 c 128,-1,14
 359 527 359 527 350 531 c 0,15,16
 335 537 335 537 340.5 550 c 128,-1,17
 346 563 346 563 364.5 566.5 c 128,-1,18
 383 570 383 570 436.5 570 c 128,-1,19
 490 570 490 570 507.5 568.5 c 128,-1,20
 525 567 525 567 532.5 563.5 c 128,-1,21
 540 560 540 560 540 552 c 0,22,23
 540 534 540 534 511.5 521.5 c 128,-1,24
 483 509 483 509 459 478 c 128,-1,25
 435 447 435 447 380 359 c 2,26,-1
 351 313 l 1,27,-1
 419 196 l 2,28,29
 477 96 477 96 498.5 68.5 c 128,-1,30
 520 41 520 41 543 38 c 0,31,32
 564 35 564 35 564 15 c 0,33,34
 564 5 564 5 558 2 c 0,35,36
 536 -9 536 -9 447.5 -9 c 128,-1,37
 359 -9 359 -9 342.5 -7 c 128,-1,38
 326 -5 326 -5 323 4 c 0,39,40
 315 23 315 23 327 27.5 c 128,-1,41
 339 32 339 32 353 42.5 c 128,-1,42
 367 53 367 53 367 63.5 c 128,-1,43
 367 74 367 74 326.5 152 c 128,-1,44
 286 230 286 230 277.5 230 c 128,-1,45
 269 230 269 230 229 155.5 c 128,-1,46
 189 81 189 81 189 61.5 c 128,-1,47
 189 42 189 42 209 37 c 128,-1,48
 229 32 229 32 229 15.5 c 128,-1,49
 229 -1 229 -1 223 -5.5 c 128,-1,50
 217 -10 217 -10 154 -10 c 0,51,52
 31 -10 31 -10 31 13 c 0,53,54
 31 27 31 27 55.5 38 c 128,-1,55
 80 49 80 49 103.5 77.5 c 128,-1,56
 127 106 127 106 169 174 c 2,57,-1
 243 292 l 1,58,-1
 204 367 l 1,59,60
 145 477 145 477 119 477 c 0,61,62
 115 477 115 477 101.5 471 c 128,-1,63
 88 465 88 465 84 464 c 0,64,65
 69 457 69 457 62 476 c 0,66,67
 61 477 61 477 61 479 c 0,0,1
EndSplineSet
Validated: 3105
EndChar

StartChar: Y
Encoding: 57 89 36
Width: 493
VWidth: 0
Flags: W
HStem: -2 38<171.159 230.261 345.485 398.695> 556 20G<96 114.5>
VStem: 238 94<67.277 246>
LayerCount: 2
Fore
SplineSet
78 465 m 2,0,-1
 27 461 l 1,1,2
 9 461 9 461 9 469 c 0,3,4
 9 483 9 483 43 526 c 128,-1,5
 77 569 77 569 85 572.5 c 128,-1,6
 93 576 93 576 99 576 c 0,7,8
 130 576 130 576 181 525 c 128,-1,9
 232 474 232 474 266 402 c 128,-1,10
 300 330 300 330 302 330 c 0,11,12
 311 330 311 330 340 389.5 c 128,-1,13
 369 449 369 449 369 462.5 c 128,-1,14
 369 476 369 476 349 477 c 0,15,16
 307 481 307 481 302 494 c 1,17,18
 300 496 300 496 300 507 c 128,-1,19
 300 518 300 518 316 564 c 128,-1,20
 332 610 332 610 355 610 c 0,21,22
 367 610 367 610 372.5 593 c 128,-1,23
 378 576 378 576 389.5 572.5 c 128,-1,24
 401 569 401 569 440.5 569 c 128,-1,25
 480 569 480 569 484 558 c 0,26,27
 485 554 485 554 485 547.5 c 128,-1,28
 485 541 485 541 482 532 c 0,29,30
 415 398 415 398 406 383 c 2,31,-1
 332 246 l 1,32,-1
 332 162 l 2,33,34
 332 91 332 91 340 66.5 c 128,-1,35
 348 42 348 42 373.5 35 c 128,-1,36
 399 28 399 28 399 14.5 c 128,-1,37
 399 1 399 1 379 -2 c 128,-1,38
 359 -5 359 -5 286 -5 c 128,-1,39
 213 -5 213 -5 193 -2 c 128,-1,40
 173 1 173 1 171 11 c 0,41,42
 171 13 171 13 171 15 c 0,43,44
 171 30 171 30 197 36 c 128,-1,45
 223 42 223 42 230.5 54 c 128,-1,46
 238 66 238 66 238 141.5 c 128,-1,47
 238 217 238 217 233 242.5 c 128,-1,48
 228 268 228 268 200 325.5 c 128,-1,49
 172 383 172 383 139.5 420.5 c 128,-1,50
 107 458 107 458 98 461.5 c 128,-1,51
 89 465 89 465 78 465 c 2,0,-1
EndSplineSet
Validated: 3073
EndChar

StartChar: Z
Encoding: 58 90 37
Width: 434
VWidth: 0
Flags: W
HStem: -8 51<139.045 288.549> 522 50<161.364 276.634>
LayerCount: 2
Fore
SplineSet
264 572 m 0,0,1
 402 572 402 572 402 541 c 0,2,3
 402 537 402 537 371 482 c 1,4,-1
 138 47 l 1,5,-1
 178 44 l 2,6,7
 188 43 188 43 197 43 c 0,8,9
 283 43 283 43 339 103 c 0,10,11
 366 132 366 132 380 139 c 128,-1,12
 394 146 394 146 402 133 c 0,13,14
 403 131 403 131 403 119.5 c 128,-1,15
 403 108 403 108 383 41.5 c 128,-1,16
 363 -25 363 -25 352.5 -36 c 128,-1,17
 342 -47 342 -47 339 -47 c 128,-1,18
 336 -47 336 -47 333.5 -46 c 128,-1,19
 331 -45 331 -45 320.5 -30 c 128,-1,20
 310 -15 310 -15 289 -11.5 c 128,-1,21
 268 -8 268 -8 186.5 -8 c 128,-1,22
 105 -8 105 -8 79.5 -5 c 128,-1,23
 54 -2 54 -2 42 5.5 c 128,-1,24
 30 13 30 13 30 29 c 128,-1,25
 30 45 30 45 155 277 c 128,-1,26
 280 509 280 509 280 515.5 c 128,-1,27
 280 522 280 522 263 522 c 0,28,29
 201 522 201 522 173 511.5 c 128,-1,30
 145 501 145 501 119.5 471.5 c 128,-1,31
 94 442 94 442 84.5 437 c 128,-1,32
 75 432 75 432 69 438.5 c 128,-1,33
 63 445 63 445 63 459 c 0,34,35
 63 497 63 497 101 590 c 0,36,37
 110 611 110 611 126 611 c 128,-1,38
 142 611 142 611 147 592 c 0,39,40
 150 582 150 582 161 577 c 128,-1,41
 172 572 172 572 264 572 c 0,0,1
EndSplineSet
Validated: 3073
EndChar

StartChar: a
Encoding: 65 97 38
Width: 410
VWidth: 0
Flags: W
HStem: -14 53<131.354 227.578> 250 106<92.0792 150.34> 334 36<159.168 259.354>
VStem: 58 93<264.573 323.552> 266 83<78.0046 196.499 241.594 318.448>
LayerCount: 2
Fore
SplineSet
268 282 m 0,0,1
 268 334 268 334 222 334 c 0,2,3
 211 334 211 334 198 331 c 0,4,5
 151 321 151 321 151 303 c 0,6,7
 151 298 151 298 156 290 c 128,-1,8
 161 282 161 282 161 272.5 c 128,-1,9
 161 263 161 263 144 256.5 c 128,-1,10
 127 250 127 250 117 250 c 2,11,-1
 107 250 l 2,12,13
 89 250 89 250 73.5 260 c 128,-1,14
 58 270 58 270 58 283.5 c 128,-1,15
 58 297 58 297 70 312 c 1,16,17
 91 342 91 342 136.5 356 c 128,-1,18
 182 370 182 370 212 370 c 0,19,20
 295 370 295 370 327 319 c 0,21,22
 341 297 341 297 344.5 209 c 128,-1,23
 348 121 348 121 349 100.5 c 128,-1,24
 350 80 350 80 353.5 63.5 c 128,-1,25
 357 47 357 47 361 43.5 c 128,-1,26
 365 40 365 40 382.5 31 c 128,-1,27
 400 22 400 22 400 12 c 0,28,29
 400 -3 400 -3 360 -10 c 0,30,31
 292 -21 292 -21 282.5 -21 c 128,-1,32
 273 -21 273 -21 269 -16.5 c 128,-1,33
 265 -12 265 -12 263 4 c 2,34,-1
 260 31 l 1,35,-1
 226 6 l 2,36,37
 199 -14 199 -14 154 -14 c 0,38,39
 72 -14 72 -14 46 38 c 0,40,41
 31 66 31 66 31 93 c 128,-1,42
 31 120 31 120 59.5 149 c 128,-1,43
 88 178 88 178 159 201 c 128,-1,44
 230 224 230 224 249 241 c 1,45,46
 268 260 268 260 268 282 c 0,0,1
245 78 m 0,47,48
 266 101 266 101 266 159 c 0,49,50
 266 181 266 181 264 197 c 1,51,52
 229 178 229 178 189 160 c 128,-1,53
 149 142 149 142 135 126 c 0,54,55
 111 96 111 96 126.5 67.5 c 128,-1,56
 142 39 142 39 176 39 c 128,-1,57
 210 39 210 39 245 78 c 0,47,48
EndSplineSet
Validated: 3105
EndChar

StartChar: b
Encoding: 66 98 39
Width: 457
VWidth: 0
Flags: W
HStem: -12 45<183.276 291.028> 314 58<180.323 294.281>
VStem: 66 82<70.8091 291.056 336 528> 338 88<96.6722 265.369>
LayerCount: 2
Fore
SplineSet
65 -13 m 0,0,1
 53 -13 53 -13 53 12 c 128,-1,2
 53 37 53 37 59.5 80 c 128,-1,3
 66 123 66 123 66 212 c 2,4,-1
 66 335 l 1,5,-1
 63 528 l 1,6,-1
 39 534 l 2,7,8
 9 541 9 541 9 554 c 0,9,10
 9 575 9 575 85 613.5 c 128,-1,11
 161 652 161 652 176 654 c 1,12,13
 190 654 190 654 187 634 c 128,-1,14
 184 614 184 614 169 600.5 c 128,-1,15
 154 587 154 587 151 564 c 128,-1,16
 148 541 148 541 148 458 c 2,17,-1
 148 336 l 1,18,-1
 191 355 l 2,19,20
 229 372 229 372 266 372 c 128,-1,21
 303 372 303 372 339 353.5 c 128,-1,22
 375 335 375 335 400 295 c 128,-1,23
 425 255 425 255 426 198 c 1,24,25
 426 114 426 114 379 57 c 0,26,27
 350 21 350 21 312.5 4.5 c 128,-1,28
 275 -12 275 -12 246.5 -12 c 128,-1,29
 218 -12 218 -12 172 1 c 128,-1,30
 126 14 126 14 120 14 c 128,-1,31
 114 14 114 14 108 13.5 c 128,-1,32
 102 13 102 13 88 0 c 128,-1,33
 74 -13 74 -13 65 -13 c 0,0,1
286 299 m 0,34,35
 264 314 264 314 231.5 314 c 128,-1,36
 199 314 199 314 176 296 c 128,-1,37
 153 278 153 278 150.5 266 c 128,-1,38
 148 254 148 254 148 232.5 c 128,-1,39
 148 211 148 211 150 164 c 128,-1,40
 152 117 152 117 156.5 97.5 c 128,-1,41
 161 78 161 78 182 56 c 128,-1,42
 203 34 203 34 237 33 c 0,43,44
 238 33 238 33 238 34 c 1,45,46
 274 34 274 34 300.5 64 c 128,-1,47
 327 94 327 94 332.5 110 c 128,-1,48
 338 126 338 126 338 166 c 0,49,50
 338 263 338 263 286 299 c 0,34,35
EndSplineSet
Validated: 3073
EndChar

StartChar: c
Encoding: 67 99 40
Width: 369
VWidth: 0
Flags: W
HStem: -17 63<182.885 289.986> 321 47<152.589 263.187>
VStem: 32 83<121.364 260.891>
LayerCount: 2
Fore
SplineSet
91 311 m 0,0,1
 131 351 131 351 158.5 359.5 c 128,-1,2
 186 368 186 368 210.5 368 c 128,-1,3
 235 368 235 368 249 367 c 0,4,5
 296 365 296 365 322.5 345 c 128,-1,6
 349 325 349 325 349 304 c 0,7,8
 349 299 349 299 347 293 c 0,9,10
 338 266 338 266 314 266 c 1,11,12
 313 265 l 1,13,14
 290 266 290 266 268 294 c 0,15,16
 247 321 247 321 213 321 c 0,17,18
 212 321 212 321 211 321 c 1,19,-1
 208 321 l 1,20,21
 172 320 172 320 143.5 291.5 c 128,-1,22
 115 263 115 263 115 209.5 c 128,-1,23
 115 156 115 156 142.5 111 c 128,-1,24
 170 66 170 66 216 51 c 0,25,26
 234 45 234 45 242 46 c 1,27,-1
 258 46 l 1,28,29
 266 47 266 47 296.5 60.5 c 128,-1,30
 327 74 327 74 336 74 c 0,31,32
 349 75 349 75 349 56 c 0,33,34
 349 32 349 32 296.5 7.5 c 128,-1,35
 244 -17 244 -17 204 -17 c 0,36,37
 191 -17 191 -17 179 -15 c 0,38,39
 108 -1 108 -1 70 53 c 128,-1,40
 32 107 32 107 32 169 c 0,41,42
 32 252 32 252 91 311 c 0,0,1
EndSplineSet
Validated: 3073
EndChar

StartChar: d
Encoding: 68 100 41
Width: 459
VWidth: 0
Flags: W
HStem: -14 60<167.452 264.633>
VStem: 31 84<105.096 265.031> 310 81<80.2683 307.998 360.694 531.755>
LayerCount: 2
Fore
SplineSet
255 552 m 0,0,1
 255 575 255 575 328.5 613.5 c 128,-1,2
 402 652 402 652 419 654 c 1,3,4
 433 654 433 654 430 634 c 128,-1,5
 427 614 427 614 412 600 c 128,-1,6
 397 586 397 586 394 547 c 128,-1,7
 391 508 391 508 391 332 c 128,-1,8
 391 156 391 156 394 108 c 128,-1,9
 397 60 397 60 409 47 c 128,-1,10
 421 34 421 34 435.5 34 c 128,-1,11
 450 34 450 34 450 22 c 0,12,13
 450 0 450 0 407 -6.5 c 128,-1,14
 364 -13 364 -13 346.5 -18 c 128,-1,15
 329 -23 329 -23 322 -23 c 128,-1,16
 315 -23 315 -23 312 -19.5 c 128,-1,17
 309 -16 309 -16 309 -5 c 128,-1,18
 309 6 309 6 310 13.5 c 128,-1,19
 311 21 311 21 309.5 23 c 128,-1,20
 308 25 308 25 300.5 23.5 c 128,-1,21
 293 22 293 22 257 4 c 128,-1,22
 221 -14 221 -14 188.5 -14 c 128,-1,23
 156 -14 156 -14 133 -2 c 0,24,25
 67 33 67 33 42 110 c 0,26,27
 31 144 31 144 31 181.5 c 128,-1,28
 31 219 31 219 50 259 c 1,29,30
 81 330 81 330 151 358 c 1,31,32
 220 387 220 387 294 359 c 0,33,34
 306 354 306 354 308 367 c 0,35,36
 310 374 310 374 310 393.5 c 128,-1,37
 310 413 310 413 308.5 456.5 c 128,-1,38
 307 500 307 500 303.5 515.5 c 128,-1,39
 300 531 300 531 286 532 c 0,40,41
 255 538 255 538 255 552 c 0,0,1
289 308 m 0,42,43
 256 329 256 329 233 329 c 0,44,45
 161 329 161 329 130 258 c 0,46,47
 115 224 115 224 115 194 c 128,-1,48
 115 164 115 164 123 137 c 0,49,50
 142 74 142 74 192 54 c 0,51,52
 211 46 211 46 217 46 c 128,-1,53
 223 46 223 46 229 46.5 c 128,-1,54
 235 47 235 47 263 60.5 c 128,-1,55
 291 74 291 74 301 103 c 128,-1,56
 311 132 311 132 311 199.5 c 128,-1,57
 311 267 311 267 307.5 282.5 c 128,-1,58
 304 298 304 298 289 308 c 0,42,43
EndSplineSet
Validated: 3105
EndChar

StartChar: e
Encoding: 69 101 42
Width: 371
VWidth: 0
Flags: W
HStem: -17 63<164.407 290.287> 350 20G<175.5 232>
VStem: 33 83<138.717 266.228> 252 95<241.88 301.297>
LayerCount: 2
Fore
SplineSet
84 306 m 0,0,1
 140 370 140 370 211 370 c 0,2,3
 253 370 253 370 274 355 c 0,4,5
 320 320 320 320 327 296 c 128,-1,6
 334 272 334 272 338 268 c 0,7,8
 347 262 347 262 347 252 c 128,-1,9
 347 242 347 242 331 234 c 128,-1,10
 315 226 315 226 237 177 c 1,11,12
 197 155 197 155 129 127 c 1,13,14
 137 98 137 98 155 77 c 0,15,16
 180 46 180 46 224.5 46 c 128,-1,17
 269 46 269 46 295 63.5 c 128,-1,18
 321 81 321 81 333 81 c 0,19,20
 350 81 350 81 350.5 66.5 c 128,-1,21
 351 52 351 52 321 26 c 1,22,23
 270 -17 270 -17 208 -17 c 0,24,25
 110 -17 110 -17 59 67 c 0,26,27
 33 109 33 109 33 179 c 0,28,29
 33 211 33 211 42.5 240 c 128,-1,30
 52 269 52 269 84 306 c 0,0,1
249 253 m 0,31,32
 252 258 252 258 252 272 c 128,-1,33
 252 286 252 286 234 304 c 128,-1,34
 216 322 216 322 200 321 c 1,35,36
 200 320 200 320 191 319 c 128,-1,37
 182 318 182 318 167 312 c 1,38,39
 116 286 116 286 116 214 c 0,40,41
 116 184 116 184 120 173 c 257,42,43
 147 181 147 181 192.5 206.5 c 128,-1,44
 238 232 238 232 249 253 c 0,31,32
EndSplineSet
Validated: 3105
EndChar

StartChar: f
Encoding: 70 102 43
Width: 323
VWidth: 0
Flags: W
HStem: -6 37<198.094 244.464> 321 40<30.4905 105 185 198.214> 600 50<196.139 264.25>
VStem: 105 80<49.4844 320 361 572.152>
LayerCount: 2
Fore
SplineSet
212 31 m 0,0,1
 245 31 245 31 245 7 c 0,2,3
 245 -6 245 -6 232 -6 c 0,4,5
 229 -6 229 -6 224 -5 c 1,6,-1
 145 -10 l 1,7,8
 108 -13 108 -13 85 -8.5 c 128,-1,9
 62 -4 62 -4 56 -4 c 1,10,11
 51 -1 51 -1 56.5 13.5 c 128,-1,12
 62 28 62 28 78 43.5 c 128,-1,13
 94 59 94 59 97.5 93.5 c 128,-1,14
 101 128 101 128 103 201 c 2,15,-1
 106 321 l 1,16,-1
 72 321 l 2,17,18
 43 321 43 321 36.5 325.5 c 128,-1,19
 30 330 30 330 30 336 c 0,20,21
 30 361 30 361 71 361 c 2,22,-1
 105 361 l 1,23,-1
 105 450 l 2,24,25
 105 525 105 525 121 561 c 128,-1,26
 137 597 137 597 185 629 c 0,27,28
 215 649 215 649 245 650 c 1,29,30
 314 650 314 650 344 617 c 0,31,32
 356 604 356 604 356 590 c 128,-1,33
 356 576 356 576 344 564 c 128,-1,34
 332 552 332 552 314 552 c 128,-1,35
 296 552 296 552 267.5 576 c 128,-1,36
 239 600 239 600 227.5 600 c 128,-1,37
 216 600 216 600 203.5 588 c 128,-1,38
 191 576 191 576 188 551.5 c 128,-1,39
 185 527 185 527 185 465 c 2,40,-1
 185 361 l 1,41,-1
 240 361 l 2,42,43
 275 361 275 361 285 357.5 c 128,-1,44
 295 354 295 354 295 341 c 128,-1,45
 295 328 295 328 282.5 312.5 c 128,-1,46
 270 297 270 297 264 305 c 0,47,48
 262 307 262 307 222 314 c 2,49,-1
 185 320 l 1,50,-1
 187 136 l 1,51,-1
 190 105 l 1,52,53
 190 76 190 76 191.5 68 c 128,-1,54
 193 60 193 60 194 48 c 128,-1,55
 195 36 195 36 198 35 c 128,-1,56
 201 34 201 34 203.5 32.5 c 128,-1,57
 206 31 206 31 212 31 c 0,0,1
EndSplineSet
Validated: 3105
EndChar

StartChar: g
Encoding: 71 103 44
Width: 380
VWidth: 0
Flags: W
HStem: -169 43<142.767 245.423> -18 70<130.627 245.683> 83 37<149.75 247.571> 434.5 67.5<247 306.65>
VStem: 16 87<162.773 292.114> 62 86<-115.594 -68.892> 260 72<-109.812 -34.249> 273 91<148.093 285.643>
LayerCount: 2
Fore
SplineSet
130 43 m 1,0,1
 156 51 156 51 187 52 c 1,2,3
 257 52 257 52 290 26 c 128,-1,4
 323 0 323 0 332 -49 c 0,5,6
 333 -56 333 -56 332 -63 c 0,7,8
 332 -104 332 -104 289.5 -136.5 c 128,-1,9
 247 -169 247 -169 186 -169 c 128,-1,10
 125 -169 125 -169 93.5 -150 c 128,-1,11
 62 -131 62 -131 62 -99 c 0,12,13
 62 -81 62 -81 74 -68.5 c 128,-1,14
 86 -56 86 -56 105 -56 c 128,-1,15
 124 -56 124 -56 136 -66.5 c 128,-1,16
 148 -77 148 -77 148 -90 c 128,-1,17
 148 -103 148 -103 142 -116 c 1,18,19
 164 -126 164 -126 190.5 -126 c 128,-1,20
 217 -126 217 -126 238.5 -110.5 c 128,-1,21
 260 -95 260 -95 260 -72 c 0,22,23
 260 -18 260 -18 155 -18 c 0,24,25
 141 -18 141 -18 125 -22 c 128,-1,26
 109 -26 109 -26 102 -24 c 0,27,28
 95 -24 95 -24 92 -24 c 0,29,30
 63 -24 63 -24 55 3 c 0,31,32
 54 6 54 6 54 13 c 0,33,34
 54 37 54 37 92 81 c 0,35,36
 102 92 102 92 106 98 c 1,37,38
 68 113 68 113 42 145.5 c 128,-1,39
 16 178 16 178 16 215 c 0,40,41
 16 283 16 283 68 326 c 0,42,43
 108 358 108 358 167 362 c 1,44,45
 173 499 173 499 242 503 c 0,46,47
 244 503 244 503 247 502 c 1,48,-1
 249 502 l 2,49,50
 302 502 302 502 310 476 c 0,51,52
 314 465 314 465 307 456 c 0,53,54
 296 440 296 440 260 434.5 c 128,-1,55
 224 429 224 429 218 412 c 0,56,57
 214 403 214 403 213 384 c 128,-1,58
 212 365 212 365 211 360 c 1,59,-1
 216 360 l 2,60,61
 256 360 256 360 310 319 c 128,-1,62
 364 278 364 278 364 214 c 0,63,64
 364 189 364 189 351 163 c 128,-1,65
 338 137 338 137 314 119 c 0,66,67
 264 83 264 83 186 83 c 0,68,69
 167 83 167 83 150 86 c 1,70,71
 131 48 131 48 130 43 c 1,0,1
180 324 m 1,72,73
 156 323 156 323 137 310 c 0,74,75
 103 286 103 286 103 235 c 128,-1,76
 103 184 103 184 133.5 152 c 128,-1,77
 164 120 164 120 198 120 c 128,-1,78
 232 120 232 120 255 145 c 0,79,80
 270 162 270 162 273 222 c 1,81,82
 273 270 273 270 251.5 294.5 c 128,-1,83
 230 319 230 319 180 324 c 1,72,73
EndSplineSet
Validated: 3073
EndChar

StartChar: h
Encoding: 72 104 45
Width: 456
VWidth: 0
Flags: W
HStem: -7 21G<281 373.5> 1 36<159.37 206.908> 312 60<197.031 278.776>
VStem: 69 80<54 276.492 323 531.809> 308 80<54 284.538>
LayerCount: 2
Fore
SplineSet
44 532 m 2,0,1
 19 532 19 532 19 552 c 128,-1,2
 19 572 19 572 91.5 612 c 128,-1,3
 164 652 164 652 177 652 c 128,-1,4
 190 652 190 652 188 634.5 c 128,-1,5
 186 617 186 617 170.5 597.5 c 128,-1,6
 155 578 155 578 152 553 c 128,-1,7
 149 528 149 528 149 446 c 2,8,-1
 149 323 l 1,9,-1
 192 347 l 1,10,11
 232 372 232 372 266 372 c 128,-1,12
 300 372 300 372 329 356 c 1,13,14
 364 339 364 339 376 298.5 c 128,-1,15
 388 258 388 258 388 164 c 2,16,-1
 388 54 l 1,17,-1
 419 38 l 2,18,19
 447 24 447 24 447 15 c 0,20,21
 447 -7 447 -7 300 -7 c 0,22,23
 262 -7 262 -7 255.5 -2.5 c 128,-1,24
 249 2 249 2 249 12 c 0,25,26
 249 30 249 30 273 37 c 0,27,28
 288 41 288 41 294 52 c 128,-1,29
 300 63 300 63 304 97 c 128,-1,30
 308 131 308 131 308 161.5 c 128,-1,31
 308 192 308 192 302 236 c 128,-1,32
 296 280 296 280 276.5 296 c 128,-1,33
 257 312 257 312 233.5 312 c 128,-1,34
 210 312 210 312 187 292.5 c 128,-1,35
 164 273 164 273 159 256 c 0,36,37
 149 222 149 222 149 155 c 128,-1,38
 149 88 149 88 153 71 c 0,39,40
 160 43 160 43 183.5 37 c 128,-1,41
 207 31 207 31 207 17.5 c 128,-1,42
 207 4 207 4 187.5 1 c 128,-1,43
 168 -2 168 -2 89 -2 c 128,-1,44
 10 -2 10 -2 10 14 c 0,45,46
 10 23 10 23 38 38 c 2,47,-1
 69 54 l 1,48,-1
 69 532 l 1,49,-1
 44 532 l 2,0,1
EndSplineSet
Validated: 3073
EndChar

StartChar: i
Encoding: 73 105 46
Width: 228
VWidth: 0
Flags: W
HStem: -7 21G<83 175> 361 20G<122.5 129.5> 435 107<63.6768 140.498>
VStem: 53 104<449.25 526.529> 65 81<62.1571 317.499>
LayerCount: 2
Fore
SplineSet
110 435 m 0,0,1
 58 435 58 435 58 492 c 0,2,3
 58 504 58 504 70.5 523 c 128,-1,4
 83 542 83 542 106.5 542 c 128,-1,5
 130 542 130 542 146 527 c 128,-1,6
 162 512 162 512 162 488 c 128,-1,7
 162 464 162 464 141.5 449.5 c 128,-1,8
 121 435 121 435 110 435 c 0,0,1
161 -7 m 0,9,10
 15 -7 15 -7 15 14 c 0,11,12
 15 24 15 24 42 38 c 2,13,-1
 73 54 l 1,14,-1
 70 180 l 2,15,16
 68 272 68 272 65.5 285 c 128,-1,17
 63 298 63 298 59.5 305 c 128,-1,18
 56 312 56 312 53 314.5 c 128,-1,19
 50 317 50 317 34 324.5 c 128,-1,20
 18 332 18 332 18 342 c 0,21,22
 18 357 18 357 67 364.5 c 128,-1,23
 116 372 116 372 120 376.5 c 128,-1,24
 124 381 124 381 131 381 c 128,-1,25
 138 381 138 381 146.5 379 c 128,-1,26
 155 377 155 377 155 319 c 1,27,-1
 151 170 l 1,28,29
 151 82 151 82 161 61.5 c 128,-1,30
 171 41 171 41 191.5 35.5 c 128,-1,31
 212 30 212 30 212 12 c 0,32,33
 212 2 212 2 205.5 -2.5 c 128,-1,34
 199 -7 199 -7 161 -7 c 0,9,10
EndSplineSet
Validated: 3073
EndChar

StartChar: j
Encoding: 74 106 47
Width: 222
VWidth: 0
Flags: W
HStem: -197 88<7.95422 85.7787> 351 20G<157 175.5> 426 106<109.048 169.347>
VStem: 91 100<440.96 521.167> 100 81<-112.504 297>
LayerCount: 2
Fore
SplineSet
108.5 521.5 m 132,-1,1
 126 532 126 532 147 532 c 4,2,3
 167 532 167 532 179 520 c 132,-1,4
 191 508 191 508 191 499 c 4,5,6
 191 455 191 455 170 440.5 c 132,-1,7
 149 426 149 426 141.5 426 c 132,-1,8
 134 426 134 426 112.5 440 c 132,-1,9
 91 454 91 454 91 482.5 c 132,-1,0
 91 511 91 511 108.5 521.5 c 132,-1,1
47 333 m 4,10,11
 47 348 47 348 94 353.5 c 132,-1,12
 141 359 141 359 147.5 365 c 132,-1,13
 154 371 154 371 160 371 c 6,14,-1
 170 371 l 5,15,16
 181 369 181 369 182.5 339.5 c 132,-1,17
 184 310 184 310 184 260 c 132,-1,18
 184 210 184 210 183 145 c 132,-1,19
 182 80 182 80 181 43.5 c 132,-1,20
 180 7 180 7 177 -29 c 132,-1,21
 174 -65 174 -65 170.5 -80.5 c 132,-1,22
 167 -96 167 -96 158.5 -114 c 132,-1,23
 150 -132 150 -132 141 -141.5 c 132,-1,24
 132 -151 132 -151 106.5 -174 c 132,-1,25
 81 -197 81 -197 41 -197 c 4,26,27
 22 -197 22 -197 7.5 -186 c 132,-1,28
 -7 -175 -7 -175 -7 -155 c 4,29,30
 -7 -120 -7 -120 16 -111 c 4,31,32
 22 -109 22 -109 33 -109 c 132,-1,33
 44 -109 44 -109 61.5 -119.5 c 132,-1,34
 79 -130 79 -130 86 -131 c 132,-1,35
 93 -132 93 -132 96.5 -123.5 c 132,-1,36
 100 -115 100 -115 100 -39 c 132,-1,37
 100 37 100 37 99 93 c 6,38,-1
 96 297 l 5,39,-1
 72 310 l 6,40,41
 47 323 47 323 47 333 c 4,10,11
EndSplineSet
Validated: 3073
EndChar

StartChar: k
Encoding: 75 107 48
Width: 429
VWidth: 0
Flags: W
HStem: -15 75<326.207 392.201> -5 35<162.7 206.934> 320 38<229.085 261.995> 630 20G<169.75 183.25>
VStem: 69 81<51 155.988 187 530.268>
LayerCount: 2
Fore
SplineSet
243 320 m 0,0,1
 229 320 229 320 229 336.5 c 128,-1,2
 229 353 229 353 241 358 c 0,3,4
 247 360 247 360 272 359.5 c 128,-1,5
 297 359 297 359 350 356 c 1,6,7
 377 356 377 356 378 337 c 1,8,9
 378 309 378 309 341 295 c 0,10,11
 327 290 327 290 272 232 c 1,12,-1
 230 196 l 1,13,-1
 251 167 l 2,14,15
 274 135 274 135 302.5 105 c 128,-1,16
 331 75 331 75 345.5 67.5 c 128,-1,17
 360 60 360 60 389.5 60 c 128,-1,18
 419 60 419 60 419 43 c 0,19,20
 419 31 419 31 394 8 c 128,-1,21
 369 -15 369 -15 343 -15 c 128,-1,22
 317 -15 317 -15 293.5 2 c 128,-1,23
 270 19 270 19 231 61.5 c 128,-1,24
 192 104 192 104 174 130 c 128,-1,25
 156 156 156 156 153 156 c 128,-1,26
 150 156 150 156 150 108 c 0,27,28
 150 30 150 30 195 30 c 0,29,30
 210 30 210 30 207 12 c 0,31,32
 205 1 205 1 188 -2 c 128,-1,33
 171 -5 171 -5 90.5 -5 c 128,-1,34
 10 -5 10 -5 10 11 c 0,35,36
 10 21 10 21 38 35 c 2,37,-1
 69 51 l 1,38,-1
 69 531 l 1,39,-1
 44 531 l 2,40,41
 30 531 30 531 24.5 535.5 c 128,-1,42
 19 540 19 540 19 550 c 0,43,44
 19 569 19 569 91 609.5 c 128,-1,45
 163 650 163 650 176.5 650 c 128,-1,46
 190 650 190 650 188 632.5 c 128,-1,47
 186 615 186 615 170.5 593.5 c 128,-1,48
 155 572 155 572 152.5 546 c 128,-1,49
 150 520 150 520 150 480 c 128,-1,50
 150 440 150 440 151 376 c 2,51,-1
 154 187 l 1,52,-1
 213 242 l 2,53,54
 262 288 262 288 262 308 c 0,55,56
 262 320 262 320 243 320 c 0,0,1
EndSplineSet
Validated: 3073
EndChar

StartChar: l
Encoding: 76 108 49
Width: 228
VWidth: 0
Flags: W
HStem: -2 32<167.375 206.719> 630 20G<170.75 184.25>
VStem: 69 83<51 531>
LayerCount: 2
Fore
SplineSet
95.5 -5 m 128,-1,1
 15 -5 15 -5 15 11 c 0,2,3
 15 20 15 20 43 35 c 2,4,-1
 74 51 l 1,5,-1
 74 531 l 1,6,-1
 49 531 l 2,7,8
 35 531 35 531 29.5 534.5 c 128,-1,9
 24 538 24 538 24 549 c 0,10,11
 24 569 24 569 96.5 609.5 c 128,-1,12
 169 650 169 650 182.5 650 c 128,-1,13
 196 650 196 650 193.5 631.5 c 128,-1,14
 191 613 191 613 175.5 594.5 c 128,-1,15
 160 576 160 576 157 534.5 c 128,-1,16
 154 493 154 493 154 322 c 128,-1,17
 154 151 154 151 157 103.5 c 128,-1,18
 160 56 160 56 172 43 c 128,-1,19
 184 30 184 30 198 30 c 128,-1,20
 212 30 212 30 212 18 c 0,21,22
 212 1 212 1 194 -2 c 128,-1,0
 176 -5 176 -5 95.5 -5 c 128,-1,1
EndSplineSet
Validated: 3073
EndChar

StartChar: m
Encoding: 77 109 50
Width: 673
VWidth: 0
Flags: W
HStem: -6 21G<83 175.5 529.5 588.5> 314 59<186.139 283.903 412.453 501.324> 365 20G<125 131>
VStem: 69 79<55 277.486> 298 81<55 286.474> 516 91<55 289.56>
LayerCount: 2
Fore
SplineSet
156 -6 m 0,0,1
 10 -6 10 -6 10 16 c 0,2,3
 10 25 10 25 38 39 c 2,4,-1
 69 55 l 1,5,-1
 66 182 l 2,6,7
 64 274 64 274 60.5 292.5 c 128,-1,8
 57 311 57 311 48 317 c 0,9,10
 14 333 14 333 14 344 c 0,11,12
 14 359 14 359 63 366 c 128,-1,13
 112 373 112 373 117 379 c 128,-1,14
 122 385 122 385 128 385 c 128,-1,15
 134 385 134 385 143.5 378 c 128,-1,16
 153 371 153 371 153 353 c 2,17,-1
 152 327 l 1,18,-1
 180 347 l 1,19,20
 213 373 213 373 279 373 c 0,21,22
 294 373 294 373 305 370 c 128,-1,23
 316 367 316 367 340 346 c 128,-1,24
 364 325 364 325 372 322.5 c 128,-1,25
 380 320 380 320 389 330 c 0,26,27
 424 372 424 372 488 372 c 0,28,29
 524 372 524 372 555 354 c 1,30,31
 586 334 586 334 596.5 296 c 128,-1,32
 607 258 607 258 607 173 c 2,33,-1
 607 55 l 1,34,-1
 638 39 l 2,35,36
 663 26 663 26 663 13.5 c 128,-1,37
 663 1 663 1 640.5 -2.5 c 128,-1,38
 618 -6 618 -6 559 -6 c 128,-1,39
 500 -6 500 -6 484 -3 c 128,-1,40
 468 0 468 0 468 14.5 c 128,-1,41
 468 29 468 29 493 40 c 0,42,43
 506 46 506 46 511 70 c 128,-1,44
 516 94 516 94 516 162.5 c 128,-1,45
 516 231 516 231 514 253.5 c 128,-1,46
 512 276 512 276 503 290 c 0,47,48
 487 314 487 314 458 314 c 2,49,-1
 457 314 l 2,50,51
 427 314 427 314 406.5 293 c 128,-1,52
 386 272 386 272 382.5 252.5 c 128,-1,53
 379 233 379 233 379 160 c 2,54,-1
 379 55 l 1,55,-1
 409 39 l 2,56,57
 437 24 437 24 438 15 c 0,58,59
 438 -1 438 -1 358.5 -1 c 128,-1,60
 279 -1 279 -1 259.5 2.5 c 128,-1,61
 240 6 240 6 240 19 c 128,-1,62
 240 32 240 32 262.5 38 c 128,-1,63
 285 44 285 44 291.5 71.5 c 128,-1,64
 298 99 298 99 298 133 c 0,65,66
 298 265 298 265 276.5 289.5 c 128,-1,67
 255 314 255 314 232 314 c 128,-1,68
 209 314 209 314 186.5 295 c 128,-1,69
 164 276 164 276 159 259 c 0,70,71
 148 225 148 225 148 162 c 128,-1,72
 148 99 148 99 154 71.5 c 128,-1,73
 160 44 160 44 184 38 c 128,-1,74
 208 32 208 32 208 13 c 0,75,76
 208 3 208 3 201.5 -1.5 c 128,-1,77
 195 -6 195 -6 156 -6 c 0,0,1
EndSplineSet
Validated: 3073
EndChar

StartChar: n
Encoding: 78 110 51
Width: 457
VWidth: 0
Flags: W
HStem: -7 21G<83 175 280 373> 313 58<187.363 278.375> 363 20G<125 131>
VStem: 66 82<75.1667 273.845> 307 81<54 285.834>
LayerCount: 2
Fore
SplineSet
156 -7 m 0,0,1
 10 -7 10 -7 10 15 c 0,2,3
 10 24 10 24 38 38 c 2,4,-1
 69 54 l 1,5,-1
 66 181 l 2,6,7
 64 273 64 273 61.5 286 c 128,-1,8
 59 299 59 299 54.5 306 c 128,-1,9
 50 313 50 313 38 320 c 0,10,11
 14 332 14 332 14 343 c 0,12,13
 14 358 14 358 63 365 c 128,-1,14
 112 372 112 372 117 377.5 c 128,-1,15
 122 383 122 383 128 383 c 128,-1,16
 134 383 134 383 143.5 376.5 c 128,-1,17
 153 370 153 370 153 351 c 2,18,-1
 152 325 l 1,19,-1
 181 345 l 2,20,21
 217 371 217 371 259 371 c 0,22,23
 353 371 353 371 375 300 c 0,24,25
 387 263 387 263 388 177 c 2,26,27
 388 54 l 1,28,-1
 420 38 l 2,29,30
 447 24 447 24 447 15 c 0,31,32
 447 -7 447 -7 299 -7 c 0,33,34
 261 -7 261 -7 254.5 -2.5 c 128,-1,35
 248 2 248 2 248 12 c 0,36,37
 248 31 248 31 272 36 c 0,38,39
 288 40 288 40 293.5 51.5 c 128,-1,40
 299 63 299 63 303 97 c 128,-1,41
 307 131 307 131 307 161.5 c 128,-1,42
 307 192 307 192 301.5 236 c 128,-1,43
 296 280 296 280 276 296.5 c 128,-1,44
 256 313 256 313 239 313 c 0,45,46
 185 313 185 313 162 258 c 0,47,48
 148 223 148 223 148 155.5 c 128,-1,49
 148 88 148 88 152 72 c 0,50,51
 161 42 161 42 184.5 36 c 128,-1,52
 208 30 208 30 208 12 c 0,53,54
 208 2 208 2 201 -2.5 c 128,-1,55
 194 -7 194 -7 156 -7 c 0,0,1
EndSplineSet
Validated: 3073
EndChar

StartChar: o
Encoding: 79 111 52
Width: 464
VWidth: 0
Flags: W
HStem: -16 48<191.036 308.608> 322 49<155.365 273.03>
VStem: 32 92<109.317 270.885> 341 91<87.0093 240.427>
LayerCount: 2
Fore
SplineSet
47 106 m 128,-1,1
 32 150 32 150 32 199.5 c 128,-1,2
 32 249 32 249 66 293.5 c 128,-1,3
 100 338 100 338 149.5 354.5 c 128,-1,4
 199 371 199 371 246.5 371 c 128,-1,5
 294 371 294 371 335 346 c 0,6,7
 432 286 432 286 432 182 c 0,8,9
 432 145 432 145 418 106 c 1,10,11
 401 53 401 53 341.5 18.5 c 128,-1,12
 282 -16 282 -16 221 -16 c 128,-1,13
 160 -16 160 -16 111 23 c 128,-1,0
 62 62 62 62 47 106 c 128,-1,1
277 297 m 0,14,15
 248 322 248 322 214 322 c 128,-1,16
 180 322 180 322 156.5 301.5 c 128,-1,17
 133 281 133 281 128.5 267 c 128,-1,18
 124 253 124 253 124 210 c 0,19,20
 125 131 125 131 162.5 81.5 c 128,-1,21
 200 32 200 32 259 32 c 0,22,23
 287 32 287 32 312.5 57 c 128,-1,24
 338 82 338 82 340 111 c 0,25,26
 341 122 341 122 341 133 c 0,27,28
 341 242 341 242 277 297 c 0,14,15
EndSplineSet
Validated: 3073
EndChar

StartChar: p
Encoding: 80 112 53
Width: 454
VWidth: 0
Flags: W
HStem: -185 21G<58.25 156.75> -19 51<175.644 295.243> 308 62<176.154 294.823> 361 20G<120 126>
VStem: 59 85<-119.553 9 67.3015 264.098> 343 79<86.3532 255.774>
LayerCount: 2
Fore
SplineSet
10 341 m 0,0,1
 10 356 10 356 59 363.5 c 128,-1,2
 108 371 108 371 112.5 376 c 128,-1,3
 117 381 117 381 123 381 c 128,-1,4
 129 381 129 381 139.5 375.5 c 128,-1,5
 150 370 150 370 152 355 c 2,6,-1
 155 334 l 1,7,-1
 183 353 l 2,8,9
 206 369 206 369 260 370 c 0,10,11
 261 370 261 370 262 370 c 0,12,13
 314 370 314 370 354 341 c 0,14,15
 422 292 422 292 422 192.5 c 128,-1,16
 422 93 422 93 363 34 c 0,17,18
 337 8 337 8 305 -5.5 c 128,-1,19
 273 -19 273 -19 259 -19 c 0,20,21
 192 -19 192 -19 168 -5 c 2,22,-1
 144 9 l 1,23,-1
 144 -53 l 2,24,25
 144 -106 144 -106 150 -120 c 128,-1,26
 156 -134 156 -134 183.5 -147 c 128,-1,27
 211 -160 211 -160 212 -169 c 0,28,29
 212 -171 212 -171 211 -173 c 0,30,31
 206 -185 206 -185 107.5 -185 c 128,-1,32
 9 -185 9 -185 9 -172 c 128,-1,33
 9 -159 9 -159 34 -146 c 2,34,-1
 59 -133 l 1,35,-1
 59 305 l 1,36,-1
 34 318 l 2,37,38
 10 330 10 330 10 341 c 0,0,1
283 295 m 0,39,40
 260 308 260 308 233.5 308 c 128,-1,41
 207 308 207 308 179.5 292.5 c 128,-1,42
 152 277 152 277 148 264.5 c 128,-1,43
 144 252 144 252 144 191 c 0,44,45
 144 63 144 63 192 42 c 0,46,47
 215 32 215 32 240 32 c 128,-1,48
 265 32 265 32 291 50 c 0,49,50
 335 82 335 82 343 167 c 1,51,52
 340 263 340 263 283 295 c 0,39,40
EndSplineSet
Validated: 3073
EndChar

StartChar: q
Encoding: 81 113 54
Width: 452
VWidth: 0
Flags: W
HStem: -187 40<251.005 302.231> -15 57<171.394 276.672> 323 48<166.562 282.288>
VStem: 32 87<95.0004 256.325> 311 83<-126.364 22.9841 96.5122 291.609>
LayerCount: 2
Fore
SplineSet
394 267 m 1,0,-1
 391 -14 l 2,1,2
 391 -96 391 -96 395 -111 c 0,3,4
 402 -137 402 -137 427 -143 c 128,-1,5
 452 -149 452 -149 452 -168 c 0,6,7
 452 -181 452 -181 435.5 -184 c 128,-1,8
 419 -187 419 -187 372 -187 c 2,9,-1
 311 -187 l 2,10,11
 269 -187 269 -187 257 -181 c 0,12,13
 251 -177 251 -177 251 -167 c 0,14,15
 251 -147 251 -147 272.5 -147 c 128,-1,16
 294 -147 294 -147 302.5 -127 c 128,-1,17
 311 -107 311 -107 311 -42 c 128,-1,18
 311 23 311 23 306.5 23 c 128,-1,19
 302 23 302 23 272.5 4 c 128,-1,20
 243 -15 243 -15 199.5 -15 c 128,-1,21
 156 -15 156 -15 136 -4 c 0,22,23
 90 20 90 20 61 68.5 c 128,-1,24
 32 117 32 117 32 172.5 c 128,-1,25
 32 228 32 228 70 284 c 0,26,27
 130 371 130 371 221 371 c 0,28,29
 265 371 265 371 293.5 359 c 128,-1,30
 322 347 322 347 332.5 347 c 128,-1,31
 343 347 343 347 362.5 359.5 c 128,-1,32
 382 372 382 372 389 372 c 0,33,34
 394 372 394 372 394 267 c 1,0,-1
311 178 m 128,-1,36
 311 244 311 244 308 261 c 128,-1,37
 305 278 305 278 283 300.5 c 128,-1,38
 261 323 261 323 224 323 c 128,-1,39
 187 323 187 323 161 296.5 c 128,-1,40
 135 270 135 270 127 246 c 128,-1,41
 119 222 119 222 119 180 c 128,-1,42
 119 138 119 138 129 116 c 1,43,44
 137 94 137 94 166 68 c 128,-1,45
 195 42 195 42 219 42 c 2,46,-1
 224 42 l 1,47,48
 251 44 251 44 277.5 62 c 128,-1,49
 304 80 304 80 307.5 96 c 128,-1,35
 311 112 311 112 311 178 c 128,-1,36
EndSplineSet
Validated: 3073
EndChar

StartChar: r
Encoding: 82 114 55
Width: 318
VWidth: 0
Flags: W
HStem: 290 78<209.319 288.5> 358 20G<122 128>
VStem: 66 82<56.9958 241.476>
LayerCount: 2
Fore
SplineSet
269 368 m 0,0,1
 308 368 308 368 308 308 c 0,2,3
 308 268 308 268 304.5 259 c 128,-1,4
 301 250 301 250 291 250 c 0,5,6
 267 250 267 250 263 270 c 1,7,8
 256 290 256 290 232 290 c 0,9,10
 193 290 193 290 170.5 243.5 c 128,-1,11
 148 197 148 197 148 134.5 c 128,-1,12
 148 72 148 72 155.5 56.5 c 128,-1,13
 163 41 163 41 183 33.5 c 128,-1,14
 203 26 203 26 210 19 c 128,-1,15
 217 12 217 12 215 7 c 0,16,17
 212 -5 212 -5 111 -5 c 128,-1,18
 10 -5 10 -5 10 11 c 0,19,20
 10 20 10 20 38 35 c 2,21,-1
 69 51 l 1,22,-1
 66 178 l 2,23,24
 64 270 64 270 61.5 282.5 c 128,-1,25
 59 295 59 295 55 302.5 c 128,-1,26
 51 310 51 310 32.5 319.5 c 128,-1,27
 14 329 14 329 14 339 c 0,28,29
 14 354 14 354 63 361.5 c 128,-1,30
 112 369 112 369 115.5 373.5 c 128,-1,31
 119 378 119 378 125 378 c 128,-1,32
 131 378 131 378 139 376 c 0,33,34
 150 374 150 374 150 347 c 2,35,-1
 150 332 l 1,36,-1
 148 289 l 1,37,-1
 182 323 l 2,38,39
 226 367 226 367 269 368 c 0,0,1
EndSplineSet
Validated: 3073
EndChar

StartChar: s
Encoding: 83 115 56
Width: 338
VWidth: 0
Flags: W
HStem: -16 48<120.781 218.299> 321 44<118.294 215.86>
VStem: 24 94<36.5488 120.109> 54 59<253.829 313.332> 233 76<48.82 123.922>
LayerCount: 2
Fore
SplineSet
118 66 m 1,0,1
 118 32 118 32 169 32 c 0,2,3
 198 32 198 32 215.5 47 c 128,-1,4
 233 62 233 62 233 84.5 c 128,-1,5
 233 107 233 107 214 122 c 128,-1,6
 195 137 195 137 152 152 c 128,-1,7
 109 167 109 167 81.5 193.5 c 128,-1,8
 54 220 54 220 54 255 c 0,9,10
 54 268 54 268 57 282 c 0,11,12
 71 336 71 336 109 350.5 c 128,-1,13
 147 365 147 365 165.5 365 c 128,-1,14
 184 365 184 365 203 361.5 c 128,-1,15
 222 358 222 358 253 358 c 2,16,-1
 284 358 l 2,17,18
 313 358 313 358 313 349.5 c 128,-1,19
 313 341 313 341 292 302.5 c 128,-1,20
 271 264 271 264 258 252.5 c 128,-1,21
 245 241 245 241 236 247.5 c 128,-1,22
 227 254 227 254 224.5 278 c 128,-1,23
 222 302 222 302 196 314 c 0,24,25
 180 321 180 321 167.5 321 c 128,-1,26
 155 321 155 321 144 317.5 c 128,-1,27
 133 314 133 314 123 304.5 c 128,-1,28
 113 295 113 295 113 283 c 0,29,30
 113 255 113 255 200 222 c 0,31,32
 258 200 258 200 283.5 176 c 128,-1,33
 309 152 309 152 309 120 c 0,34,35
 309 54 309 54 252 14 c 0,36,37
 210 -16 210 -16 155.5 -16 c 128,-1,38
 101 -16 101 -16 62.5 15 c 128,-1,39
 24 46 24 46 24 79 c 0,40,41
 24 93 24 93 31 107 c 0,42,43
 43 133 43 133 68.5 133 c 128,-1,44
 94 133 94 133 108 120.5 c 128,-1,45
 122 108 122 108 122 92 c 1,46,-1
 118 66 l 1,0,1
EndSplineSet
Validated: 3073
EndChar

StartChar: t
Encoding: 84 116 57
Width: 266
VWidth: 0
Flags: W
HStem: 310 50<165 246.775>
VStem: 79 85<55.3401 304>
LayerCount: 2
Fore
SplineSet
234 12 m 4,0,1
 234 -5 234 -5 130 -5 c 132,-1,2
 26 -5 26 -5 26 11 c 4,3,4
 26 20 26 20 54 35 c 6,5,-1
 85 51 l 5,6,-1
 79 304 l 5,7,-1
 47 314 l 5,8,9
 16 322 16 322 16 336.5 c 132,-1,10
 16 351 16 351 53 374 c 5,11,12
 93 401 93 401 112.5 428.5 c 132,-1,13
 132 456 132 456 143 456 c 4,14,15
 158 456 158 456 162 408 c 6,16,-1
 165 360 l 5,17,-1
 210 360 l 6,18,19
 240 360 240 360 247 356 c 132,-1,20
 254 352 254 352 254 335 c 132,-1,21
 254 318 254 318 247 314 c 132,-1,22
 240 310 240 310 209 310 c 6,23,-1
 164 310 l 5,24,-1
 164 188 l 6,25,26
 164 65 164 65 171 55 c 132,-1,27
 178 45 178 45 206 32.5 c 132,-1,28
 234 20 234 20 234 12 c 4,0,1
EndSplineSet
Validated: 3073
EndChar

StartChar: u
Encoding: 85 117 58
Width: 457
VWidth: 0
Flags: W
HStem: -17 61<171.127 260.662> 363 20G<360 388>
VStem: 67 81<68.0625 309> 307 81<80.4462 295.97>
LayerCount: 2
Fore
SplineSet
151 313 m 1,0,-1
 148 207 l 1,1,2
 148 133 148 133 158 94 c 0,3,4
 171 45 171 45 217 44 c 0,5,6
 237 44 237 44 261.5 58.5 c 128,-1,7
 286 73 286 73 296.5 103 c 128,-1,8
 307 133 307 133 307 206.5 c 128,-1,9
 307 280 307 280 300 296.5 c 128,-1,10
 293 313 293 313 270 321.5 c 128,-1,11
 247 330 247 330 247 341 c 0,12,13
 247 358 247 358 298 366 c 128,-1,14
 349 374 349 374 360 377 c 2,15,-1
 388 383 l 1,16,-1
 388 52 l 1,17,-1
 417 36 l 2,18,19
 446 21 446 21 446.5 11 c 128,-1,20
 447 1 447 1 420 -5 c 0,21,22
 340 -22 340 -22 327.5 -22 c 128,-1,23
 315 -22 315 -22 313 -21 c 0,24,25
 302 -18 302 -18 302.5 5.5 c 128,-1,26
 303 29 303 29 298 29 c 128,-1,27
 293 29 293 29 262.5 6 c 128,-1,28
 232 -17 232 -17 196 -17 c 128,-1,29
 160 -17 160 -17 134 -4 c 0,30,31
 93 15 93 15 80 54 c 128,-1,32
 67 93 67 93 67 194 c 2,33,-1
 67 309 l 1,34,-1
 36 320 l 2,35,36
 10 329 10 329 10 339 c 0,37,38
 10 355 10 355 54.5 362.5 c 128,-1,39
 99 370 99 370 106 376 c 128,-1,40
 113 382 113 382 127.5 379.5 c 128,-1,41
 142 377 142 377 146.5 369 c 128,-1,42
 151 361 151 361 151 313 c 1,0,-1
EndSplineSet
Validated: 3073
EndChar

StartChar: v
Encoding: 86 118 59
Width: 399
VWidth: 0
Flags: W
HStem: 315 41<10.4283 56.3706> 358 20G<370 382>
VStem: 310 79<285.081 371>
LayerCount: 2
Fore
SplineSet
24.5 356 m 128,-1,1
 39 359 39 359 118.5 359 c 128,-1,2
 198 359 198 359 198 341 c 0,3,4
 198 332 198 332 180 319 c 2,5,-1
 156 301 l 1,6,-1
 196 200 l 1,7,8
 234 99 234 99 239.5 99 c 128,-1,9
 245 99 245 99 277.5 188.5 c 128,-1,10
 310 278 310 278 310 293 c 128,-1,11
 310 308 310 308 285 315 c 0,12,13
 260 321 260 321 260 340 c 0,14,15
 260 351 260 351 267.5 355 c 128,-1,16
 275 359 275 359 300 359.5 c 128,-1,17
 325 360 325 360 345 368 c 1,18,19
 365 378 365 378 375 378 c 0,20,21
 389 378 389 378 389 364 c 0,22,23
 389 338 389 338 333.5 194 c 128,-1,24
 278 50 278 50 270 24.5 c 128,-1,25
 262 -1 262 -1 256 -5.5 c 128,-1,26
 250 -10 250 -10 240 -10 c 128,-1,27
 230 -10 230 -10 214.5 -8.5 c 128,-1,28
 199 -7 199 -7 190 1.5 c 128,-1,29
 181 10 181 10 168 44 c 0,30,31
 111 191 111 191 81.5 251 c 128,-1,32
 52 311 52 311 34 315 c 0,33,34
 10 321 10 321 10 340 c 0,35,0
 10 353 10 353 24.5 356 c 128,-1,1
EndSplineSet
Validated: 3073
EndChar

StartChar: w
Encoding: 87 119 60
Width: 565
VWidth: 0
Flags: W
HStem: 319 40<351.003 379.902> 358 20G<539 549>
VStem: 276 75<223.269 318.386>
LayerCount: 2
Fore
SplineSet
380 342 m 0,0,1
 380 319 380 319 364 319 c 0,2,3
 351 319 351 319 351 300 c 128,-1,4
 351 281 351 281 382 196 c 1,5,-1
 413 107 l 1,6,-1
 457 225 l 1,7,-1
 466 251 l 1,8,-1
 472 272 l 2,9,10
 476 282 476 282 476 292 c 128,-1,11
 476 302 476 302 467 306 c 0,12,13
 429 321 429 321 429 338 c 0,14,15
 429 359 429 359 462 359.5 c 128,-1,16
 495 360 495 360 515 369 c 128,-1,17
 535 378 535 378 543 378 c 0,18,19
 555 378 555 378 555 367 c 0,20,21
 555 341 555 341 516 231 c 2,22,-1
 469 98 l 2,23,24
 448 38 448 38 440.5 23.5 c 128,-1,25
 433 9 433 9 425.5 1 c 128,-1,26
 418 -7 418 -7 414 -7.5 c 128,-1,27
 410 -8 410 -8 405 -8.5 c 128,-1,28
 400 -9 400 -9 395.5 -9.5 c 128,-1,29
 391 -10 391 -10 387.5 -10.5 c 128,-1,30
 384 -11 384 -11 375 -8 c 0,31,32
 370 -6 370 -6 361 10 c 1,33,-1
 354 28 l 2,34,35
 348 42 348 42 345 51 c 2,36,-1
 328 97 l 2,37,38
 306 159 306 159 300.5 159 c 128,-1,39
 295 159 295 159 277 105 c 2,40,-1
 248 21 l 2,41,42
 244 8 244 8 241 5 c 128,-1,43
 238 2 238 2 235 -3.5 c 128,-1,44
 232 -9 232 -9 227 -9.5 c 128,-1,45
 222 -10 222 -10 218 -10.5 c 128,-1,46
 214 -11 214 -11 200 -11 c 0,47,48
 171 -11 171 -11 165 12 c 1,49,-1
 112 168 l 2,50,51
 81 257 81 257 68.5 281.5 c 128,-1,52
 56 306 56 306 41 312 c 0,53,54
 10 323 10 323 10 341 c 0,55,56
 10 353 10 353 25 356 c 128,-1,57
 40 359 40 359 118.5 359 c 128,-1,58
 197 359 197 359 197 341 c 0,59,60
 197 332 197 332 179 319 c 2,61,-1
 156 301 l 1,62,-1
 184 217 l 1,63,64
 213 134 213 134 220 126 c 0,65,66
 222 123 222 123 230 141 c 0,67,68
 264 222 264 222 276 285 c 0,69,70
 276 288 276 288 276 291 c 0,71,72
 276 312 276 312 250 320 c 1,73,74
 236 326 236 326 241.5 339 c 128,-1,75
 247 352 247 352 261 355.5 c 128,-1,76
 275 359 275 359 316.5 359 c 128,-1,77
 358 359 358 359 369 355.5 c 128,-1,78
 380 352 380 352 380 342 c 0,0,1
EndSplineSet
Validated: 3073
EndChar

StartChar: x
Encoding: 88 120 61
Width: 408
VWidth: 0
Flags: W
HStem: -6 368<261 371> 354 20G<110.25 128.75>
VStem: 267 118<294.5 349.947>
LayerCount: 2
Fore
SplineSet
78 282 m 2,0,-1
 42 279 l 1,1,2
 22 279 22 279 22 290 c 0,3,4
 22 305 22 305 61.5 339.5 c 128,-1,5
 101 374 101 374 119.5 374 c 128,-1,6
 138 374 138 374 185 304 c 1,7,-1
 231 233 l 1,8,-1
 250 261 l 2,9,10
 267 287 267 287 267 302 c 128,-1,11
 267 317 267 317 253 328 c 128,-1,12
 239 339 239 339 239 346 c 0,13,14
 239 362 239 362 312 362 c 128,-1,15
 385 362 385 362 385 342 c 0,16,17
 385 333 385 333 367 323 c 0,18,19
 332 305 332 305 295 250 c 2,20,-1
 258 194 l 1,21,-1
 303 124 l 2,22,23
 322 94 322 94 342.5 70 c 128,-1,24
 363 46 363 46 373 41.5 c 128,-1,25
 383 37 383 37 390.5 28.5 c 128,-1,26
 398 20 398 20 398 12 c 0,27,28
 398 0 398 0 384.5 -3 c 128,-1,29
 371 -6 371 -6 316 -6 c 128,-1,30
 261 -6 261 -6 243 -3 c 128,-1,31
 225 0 225 0 222 7 c 128,-1,32
 219 14 219 14 219 21.5 c 128,-1,33
 219 29 219 29 230 40.5 c 128,-1,34
 241 52 241 52 239 61 c 128,-1,35
 237 70 237 70 214.5 107 c 128,-1,36
 192 144 192 144 187.5 144 c 128,-1,37
 183 144 183 144 155 98 c 2,38,-1
 128 53 l 1,39,-1
 150 34 l 2,40,41
 166 21 166 21 166 12 c 0,42,43
 166 -4 166 -4 88 -4 c 128,-1,44
 10 -4 10 -4 10 15 c 0,45,46
 10 24 10 24 28 34 c 0,47,48
 64 52 64 52 111 123 c 1,49,-1
 160 193 l 1,50,-1
 128 240 l 1,51,52
 105 272 105 272 97 277 c 128,-1,53
 89 282 89 282 78 282 c 2,0,-1
EndSplineSet
Validated: 3073
EndChar

StartChar: y
Encoding: 89 121 62
Width: 405
VWidth: 0
Flags: W
HStem: 359 20G<378.5 389.5>
VStem: 10 150<291 351> 120 76<-197.472 -59.4556> 310 85<292.75 371.5>
LayerCount: 2
Fore
SplineSet
10 343 m 0,0,1
 10 359 10 359 104.5 359 c 128,-1,2
 199 359 199 359 199 341 c 0,3,4
 199 333 199 333 179.5 319.5 c 128,-1,5
 160 306 160 306 160 296 c 128,-1,6
 160 286 160 286 199 215 c 2,7,-1
 238 146 l 1,8,-1
 274 217 l 2,9,10
 310 287 310 287 310 298.5 c 128,-1,11
 310 310 310 310 286.5 318.5 c 128,-1,12
 263 327 263 327 263 337 c 0,13,14
 263 353 263 353 313 360.5 c 128,-1,15
 363 368 363 368 368 373.5 c 128,-1,16
 373 379 373 379 384 379 c 128,-1,17
 395 379 395 379 395 364 c 128,-1,18
 395 349 395 349 318 194 c 128,-1,19
 241 39 241 39 227.5 2 c 128,-1,20
 214 -35 214 -35 210 -98 c 128,-1,21
 206 -161 206 -161 196 -180.5 c 128,-1,22
 186 -200 186 -200 160 -201 c 1,23,24
 120 -201 120 -201 120 -151 c 128,-1,25
 120 -101 120 -101 156 -27 c 2,26,-1
 192 48 l 1,27,-1
 128 170 l 1,28,29
 65 293 65 293 37 312 c 1,30,31
 10 333 10 333 10 343 c 0,0,1
EndSplineSet
Validated: 3073
EndChar

StartChar: z
Encoding: 90 122 63
Width: 301
VWidth: 0
Flags: W
HStem: -5 51<123.346 215.078> 325 38.5<99.7086 179.422>
VStem: 10 281
LayerCount: 2
Fore
SplineSet
58 383 m 4,0,1
 63 395 63 395 77 395 c 132,-1,2
 91 395 91 395 100 381 c 132,-1,3
 109 367 109 367 198 363.5 c 128,-1,4
 287 360 287 360 287 341 c 0,5,6
 287 315 287 315 203 190 c 1,7,-1
 145 102 l 2,8,9
 133 83 133 83 130 76 c 2,10,-1
 123 61 l 2,11,12
 120 53 120 53 123 52 c 0,13,14
 134 46 134 46 154 46 c 128,-1,15
 174 46 174 46 200 58.5 c 128,-1,16
 226 71 226 71 240 96 c 1,17,18
 258 125 258 125 273 125 c 128,-1,19
 288 125 288 125 289.5 123 c 128,-1,20
 291 121 291 121 291 113 c 128,-1,21
 291 105 291 105 273.5 46.5 c 128,-1,22
 256 -12 256 -12 247.5 -22.5 c 128,-1,23
 239 -33 239 -33 232.5 -33 c 128,-1,24
 226 -33 226 -33 218.5 -22.5 c 128,-1,25
 211 -12 211 -12 190.5 -8.5 c 128,-1,26
 170 -5 170 -5 111.5 -5 c 128,-1,27
 53 -5 53 -5 37 -2 c 0,28,29
 10 4 10 4 10 26 c 0,30,31
 10 39 10 39 22.5 63.5 c 128,-1,32
 35 88 35 88 75 148 c 2,33,-1
 145 254 l 2,34,35
 157 272 157 272 161 279 c 2,36,-1
 171 296 l 2,37,38
 178 307 178 307 178.5 310 c 128,-1,39
 179 313 179 313 180.5 317.5 c 128,-1,40
 182 322 182 322 179.5 322.5 c 128,-1,41
 177 323 177 323 174.5 324 c 128,-1,42
 172 325 172 325 168 325 c 0,43,44
 142 325 142 325 107 309.5 c 132,-1,45
 72 294 72 294 67.5 281 c 132,-1,46
 63 268 63 268 43 265.5 c 132,-1,47
 23 263 23 263 23 274 c 4,48,49
 23 288 23 288 58 383 c 4,0,1
EndSplineSet
Validated: 3073
Substitution2: "z and germandbls " z.alternate
EndChar

StartChar: colon
Encoding: 26 58 64
Width: 155
VWidth: 0
Flags: W
HStem: -3 91<42.4607 106.563> 230 91<42.4607 106.563>
VStem: 33 88<6.80151 80.8472 239.802 313.847>
LayerCount: 2
Fore
SplineSet
38 28 m 1,0,1
 33 39 33 39 33 50 c 0,2,3
 33 60 33 60 45 74 c 128,-1,4
 57 88 57 88 69 88 c 128,-1,5
 81 88 81 88 91 85 c 0,6,7
 121 73 121 73 121 44.5 c 128,-1,8
 121 16 121 16 107 6.5 c 128,-1,9
 93 -3 93 -3 83 -3 c 0,10,11
 49 -3 49 -3 38 28 c 1,0,1
38 261 m 1,12,13
 33 272 33 272 33 283 c 128,-1,14
 33 294 33 294 45 308 c 128,-1,15
 57 322 57 322 69 321 c 0,16,17
 81 321 81 321 91 318 c 0,18,19
 121 306 121 306 121 277.5 c 128,-1,20
 121 249 121 249 107 239.5 c 128,-1,21
 93 230 93 230 83 230 c 0,22,23
 49 230 49 230 38 261 c 1,12,13
EndSplineSet
Validated: 3073
EndChar

StartChar: period
Encoding: 14 46 65
Width: 160
VWidth: 0
Flags: W
HStem: -3 91<45.5378 109.156>
VStem: 36.0771 87.9999<6.80151 81.6802>
LayerCount: 2
Fore
SplineSet
41.0771 28 m 1,0,1
 36.0771 39 36.0771 39 36.0771 50 c 0,2,3
 35.0771 60 35.0771 60 47.0771 74 c 128,-1,4
 59.0771 88 59.0771 88 72.0771 88 c 128,-1,5
 85.0771 88 85.0771 88 95.0771 85 c 0,6,7
 125.077 73 125.077 73 124.077 44.5 c 128,-1,8
 123.077 16 123.077 16 109.577 6.5 c 128,-1,9
 96.0771 -3 96.0771 -3 86.0771 -3 c 0,10,11
 52.0771 -3 52.0771 -3 41.0771 28 c 1,0,1
EndSplineSet
Validated: 3105
EndChar

StartChar: comma
Encoding: 12 44 66
Width: 166
VWidth: 0
Flags: W
HStem: -66 165
VStem: 69 61<-11.6194 67.4315>
LayerCount: 2
Fore
SplineSet
121 6.5 m 128,-1,1
 113 -9 113 -9 84.5 -37.5 c 128,-1,2
 56 -66 56 -66 45 -66 c 128,-1,3
 34 -66 34 -66 34 -56 c 0,4,5
 34 -51 34 -51 51.5 -39.5 c 128,-1,6
 69 -28 69 -28 69 -10 c 128,-1,7
 69 8 69 8 54.5 20 c 128,-1,8
 40 32 40 32 40 54 c 0,9,10
 39 76 39 76 51 88 c 128,-1,11
 63 100 63 100 81 99 c 2,12,13
 84 99 l 2,14,15
 129 99 129 99 130 42 c 1,16,0
 129 22 129 22 121 6.5 c 128,-1,1
EndSplineSet
Validated: 3105
EndChar

StartChar: germandbls
Encoding: 158 223 68
Width: 452
VWidth: 0
Flags: W
HStem: -12.6504 48.9502<285.508 344.061> 0 36.2998<32.4138 80.3632> 315.7 47.2998<34.2422 83.9569> 601.7 47.2998<197.011 281.532>
VStem: 32.4004 140.8<0.13966 36.2952 323.006 362.999> 91.7998 82.5<63.5424 312.4> 200.7 81.3994<42.5412 105.425> 207.3 85.7998<311.3 376.077> 299.7 69.2998<466.977 583.227> 366.8 73.1504<58.611 170.711>
LayerCount: 2
Fore
SplineSet
282 84 m 2,0,-1
 282 65 l 2,1,2
 282 49 282 49 285.5 42.5 c 128,-1,3
 289 36 289 36 309 36 c 128,-1,4
 329 36 329 36 348 62 c 128,-1,5
 367 88 367 88 367 114 c 0,6,7
 367 164 367 164 287 233 c 128,-1,8
 207 302 207 302 207 320 c 0,9,10
 207 349 207 349 268 439 c 0,11,12
 300 486 300 486 300 530 c 128,-1,13
 300 574 300 574 263 594 c 0,14,15
 248 602 248 602 231 602 c 128,-1,16
 214 602 214 602 198 583.5 c 128,-1,17
 182 565 182 565 178.5 506.5 c 128,-1,18
 175 448 175 448 174 271 c 2,19,-1
 173 -18 l 1,20,-1
 149 -15 l 2,21,22
 60 -4 60 -4 46 0 c 128,-1,23
 32 4 32 4 32 18 c 0,24,25
 32 37 32 37 50 36 c 0,26,27
 76 36 76 36 84 62.5 c 128,-1,28
 92 89 92 89 92 186 c 2,29,-1
 92 312 l 1,30,-1
 60 316 l 2,31,32
 40 318 40 318 34 323 c 128,-1,33
 28 328 28 328 28 339 c 0,34,35
 28 359 28 359 54 363 c 128,-1,36
 80 367 80 367 84 378 c 128,-1,37
 88 389 88 389 93 462.5 c 128,-1,38
 98 536 98 536 121.5 579 c 128,-1,39
 145 622 145 622 191 639 c 0,40,41
 216 649 216 649 244.5 649 c 128,-1,42
 273 649 273 649 304 637 c 0,43,44
 369 608 369 608 369 544 c 0,45,46
 369 496 369 496 331 440 c 128,-1,47
 293 384 293 384 293 358 c 0,48,49
 293 352 293 352 359 283 c 0,50,51
 424 214 424 214 435 175 c 0,52,53
 439 157 439 157 439.5 137.5 c 128,-1,54
 440 118 440 118 432 87 c 0,55,56
 422 56 422 56 395 32 c 0,57,58
 345 -12 345 -12 295 -12.5 c 128,-1,59
 245 -13 245 -13 215 30 c 0,60,61
 203 46 203 46 200.5 56 c 128,-1,62
 198 66 198 66 204.5 83 c 128,-1,63
 211 100 211 100 219 105.5 c 128,-1,64
 227 111 227 111 250.5 111 c 128,-1,65
 274 111 274 111 278 107 c 128,-1,66
 282 103 282 103 282 84 c 2,0,-1
EndSplineSet
Validated: 3105
Substitution2: "z and germandbls " germandbls.alternate
EndChar

StartChar: dieresis
Encoding: 103 168 69
Width: 296
VWidth: 0
Flags: W
HStem: 425 85<38.9629 112.08 194.892 242.688>
VStem: 34 87.5<433.882 500.195> 182 80<430.988 497.107>
LayerCount: 2
Fore
SplineSet
80 423 m 1,0,1
 34 423 34 423 34 476 c 0,2,3
 34 486 34 486 44.5 497.5 c 128,-1,4
 55 509 55 509 73.5 509 c 128,-1,5
 92 509 92 509 107 494 c 128,-1,6
 122 479 122 479 121.5 465.5 c 128,-1,7
 121 452 121 452 105 438 c 128,-1,8
 89 424 89 424 80 423 c 1,0,1
198 434 m 128,-1,10
 182 443 182 443 182 464 c 128,-1,11
 182 485 182 485 194.5 497.5 c 128,-1,12
 207 510 207 510 225 510 c 128,-1,13
 243 510 243 510 253 496 c 128,-1,14
 263 482 263 482 262 473 c 1,15,16
 262 440 262 440 243 430 c 0,17,18
 233 425 233 425 223.5 425 c 128,-1,9
 214 425 214 425 198 434 c 128,-1,10
EndSplineSet
Validated: 3105
EndChar

StartChar: acute
Encoding: 115 180 70
Width: 203
VWidth: 0
Flags: W
HStem: 397 122
VStem: 32 138
LayerCount: 2
Fore
SplineSet
32 410 m 0,0,1
 32 417 32 417 77 467.5 c 128,-1,2
 122 518 122 518 148 519 c 0,3,4
 170 519 170 519 170 490 c 0,5,6
 170 478 170 478 158.5 465.5 c 128,-1,7
 147 453 147 453 105 425 c 128,-1,8
 63 397 63 397 47.5 397 c 128,-1,9
 32 397 32 397 32 410 c 0,0,1
EndSplineSet
Validated: 3073
EndChar

StartChar: circumflex
Encoding: 191 710 71
Width: 277
VWidth: 0
Flags: W
HStem: 436 60<83.4993 186.176>
VStem: 34 209<436.585 451.672>
LayerCount: 2
Fore
SplineSet
48 415 m 0,0,1
 34 415 34 415 34 438 c 0,2,3
 34 444 34 444 44 450 c 0,4,5
 56 456 56 456 86 476 c 128,-1,6
 116 496 116 496 133.5 496 c 128,-1,7
 151 496 151 496 197 468 c 128,-1,8
 243 440 243 440 243 424 c 0,9,10
 243 414 243 414 227.5 414 c 128,-1,11
 212 414 212 414 179.5 425 c 128,-1,12
 147 436 147 436 132.5 436 c 128,-1,13
 118 436 118 436 87.5 425.5 c 128,-1,14
 57 415 57 415 48 415 c 0,0,1
EndSplineSet
Validated: 3073
EndChar

StartChar: fi
Encoding: 192 64257 72
Width: 484
VWidth: 0
Flags: W
HStem: -9 40<197.094 242.719 430.58 474.967> 321 40<30.4785 103 185 278> 356 20G<395 419.365> 602 48<211.68 334.089>
VStem: 103 82<48.2351 320 361 567.415> 335 92<52 163.018 522.25 575.562> 335 80<52 303.934>
LayerCount: 2
Fore
SplineSet
173 -10 m 1,0,-1
 55 -4 l 1,1,2
 50 -1 50 -1 55.5 13.5 c 128,-1,3
 61 28 61 28 77 43.5 c 128,-1,4
 93 59 93 59 96.5 93.5 c 128,-1,5
 100 128 100 128 102 201 c 2,6,-1
 105 321 l 1,7,-1
 72 321 l 2,8,9
 43 321 43 321 36.5 325.5 c 128,-1,10
 30 330 30 330 30 336 c 0,11,12
 30 361 30 361 70 361 c 2,13,-1
 103 361 l 1,14,-1
 107 455 l 2,15,16
 110 536 110 536 124 566.5 c 128,-1,17
 138 597 138 597 177.5 623.5 c 128,-1,18
 217 650 217 650 254.5 650 c 128,-1,19
 292 650 292 650 330.5 632 c 128,-1,20
 369 614 369 614 398 584 c 128,-1,21
 427 554 427 554 427 524 c 0,22,23
 427 509 427 509 416.5 495.5 c 128,-1,24
 406 482 406 482 380 482 c 0,25,26
 349 482 349 482 342 486 c 0,27,28
 318 500 318 500 318 522 c 0,29,30
 318 530 318 530 322 538 c 2,31,-1
 332 564 l 2,32,33
 335 572 335 572 335 579 c 0,34,35
 336 603 336 603 292 602 c 0,36,37
 279 602 279 602 260 600 c 0,38,39
 200 593 200 593 189 540 c 0,40,41
 185 522 185 522 185 455 c 2,42,-1
 185 359 l 1,43,-1
 278 364 l 2,44,45
 354 368 354 368 395 373 c 2,46,-1
 420 376 l 1,47,-1
 416 250 l 2,48,49
 415 212 415 212 415 164.5 c 128,-1,50
 415 117 415 117 421 79 c 128,-1,51
 427 41 427 41 451 35 c 128,-1,52
 475 29 475 29 475 10 c 0,53,54
 475 -4 475 -4 460 -6 c 0,55,56
 452 -8 452 -8 427 -8 c 0,57,58
 277 -8 277 -8 277 13 c 0,59,60
 277 22 277 22 304 36 c 2,61,-1
 335 52 l 1,62,-1
 335 250 l 2,63,64
 335 269 335 269 331.5 285.5 c 128,-1,65
 328 302 328 302 324 304 c 0,66,67
 297 321 297 321 242 321 c 2,68,-1
 234 321 l 1,69,-1
 184 320 l 1,70,-1
 186 136 l 2,71,72
 187 118 187 118 188 97 c 128,-1,73
 189 76 189 76 190.5 68 c 128,-1,74
 192 60 192 60 193 48 c 128,-1,75
 194 36 194 36 197 35 c 128,-1,76
 200 34 200 34 202.5 32.5 c 128,-1,77
 205 31 205 31 211 31 c 0,78,79
 243 31 243 31 243 15 c 0,80,81
 243 -8 243 -8 219 -9 c 128,-1,82
 195 -10 195 -10 173 -10 c 1,0,-1
EndSplineSet
Validated: 3105
Ligature2: "standard ligatures" f i
EndChar

StartChar: fl
Encoding: 193 64258 73
Width: 515
VWidth: 0
Flags: W
HStem: -5 37<196.125 242.958> 305 56<185.422 293> 321 40<36.7086 103 185 295.974> 601 49<210.452 318.804>
VStem: 104 81<49.5215 320 361 567.624> 356 82<52 129.781 318.182 387>
LayerCount: 2
Fore
SplineSet
448 -8 m 0,0,1
 298 -8 298 -8 298 13 c 0,2,3
 298 22 298 22 325 36 c 2,4,-1
 356 52 l 1,5,-1
 356 543 l 1,6,-1
 327 572 l 2,7,8
 298 601 298 601 267 601 c 2,9,10
 262 601 l 1,11,12
 218 600 218 600 201 565.5 c 128,-1,13
 184 531 184 531 185 446 c 1,14,-1
 185 361 l 1,15,-1
 240 361 l 2,16,17
 275 361 275 361 285 358 c 0,18,19
 296 354 296 354 296 340 c 128,-1,20
 296 326 296 326 284 315 c 0,21,22
 272 305 272 305 264 305 c 0,23,24
 255 304 255 304 242 308 c 128,-1,25
 229 312 229 312 212 315 c 2,26,-1
 185 320 l 1,27,-1
 186 136 l 2,28,29
 186 126 186 126 188 112 c 128,-1,30
 190 98 190 98 191 68 c 128,-1,31
 192 38 192 38 196 36.5 c 128,-1,32
 200 35 200 35 202.5 33.5 c 128,-1,33
 205 32 205 32 211 32 c 0,34,35
 243 32 243 32 243 15 c 0,36,37
 243 -4 243 -4 224 -5 c 0,38,39
 160 -7 160 -7 114 -7 c 128,-1,40
 68 -7 68 -7 54 -4 c 0,41,42
 49 -2 49 -2 55 13 c 128,-1,43
 61 28 61 28 77 44 c 0,44,45
 93 58 93 58 97 96 c 128,-1,46
 101 134 101 134 102 201 c 2,47,-1
 104 321 l 1,48,-1
 72 321 l 2,49,50
 43 321 43 321 36.5 325.5 c 128,-1,51
 30 330 30 330 30 336 c 0,52,53
 30 361 30 361 70 361 c 2,54,-1
 103 361 l 1,55,-1
 107 454 l 2,56,57
 110 520 110 520 114 540 c 128,-1,58
 118 560 118 560 141 589 c 128,-1,59
 164 618 164 618 197 634 c 128,-1,60
 230 650 230 650 273.5 650 c 128,-1,61
 317 650 317 650 346.5 636 c 128,-1,62
 376 622 376 622 386 622 c 128,-1,63
 396 622 396 622 426 636.5 c 128,-1,64
 456 651 456 651 467 651 c 128,-1,65
 478 651 478 651 476 632.5 c 128,-1,66
 474 614 474 614 460.5 599.5 c 128,-1,67
 447 585 447 585 444.5 553.5 c 128,-1,68
 442 522 442 522 439 387 c 128,-1,69
 436 252 436 252 436 207 c 128,-1,70
 436 162 436 162 438 119 c 128,-1,71
 440 76 440 76 446.5 58 c 128,-1,72
 453 40 453 40 471 35 c 0,73,74
 496 29 496 29 496 10 c 0,75,76
 496 -2 496 -2 484 -5 c 128,-1,77
 472 -8 472 -8 448 -8 c 0,0,1
EndSplineSet
Validated: 3105
Ligature2: "standard ligatures" f l
EndChar

StartChar: question
Encoding: 31 63 74
Width: 375
VWidth: 0
Flags: W
HStem: -10 120<116.38 198.23> 541 49<127.169 223.966>
VStem: 27 93<445.098 523.108> 97 120<9.37988 91.2305> 107 96<177.017 273.981> 247 100<399.249 518.344>
LayerCount: 2
Fore
SplineSet
203 214 m 1,0,1
 203 160 203 160 162 160 c 0,2,3
 138 160 138 160 122.5 176.5 c 128,-1,4
 107 193 107 193 107 215.5 c 128,-1,5
 107 238 107 238 132.5 280.5 c 128,-1,6
 158 323 158 323 178.5 335.5 c 128,-1,7
 199 348 199 348 223 390.5 c 128,-1,8
 247 433 247 433 247 460 c 0,9,10
 247 509 247 509 209 531 c 0,11,12
 192 541 192 541 173 541 c 128,-1,13
 154 541 154 541 137 528 c 128,-1,14
 120 515 120 515 120 509.5 c 128,-1,15
 120 504 120 504 133.5 485.5 c 128,-1,16
 147 467 147 467 147 452.5 c 128,-1,17
 147 438 147 438 125 419 c 128,-1,18
 103 400 103 400 84 400 c 128,-1,19
 65 400 65 400 46 422 c 128,-1,20
 27 444 27 444 27 471.5 c 128,-1,21
 27 499 27 499 56 532 c 0,22,23
 105 589 105 589 199 590 c 0,24,25
 272 590 272 590 315 545 c 0,26,27
 347 511 347 511 347 469 c 128,-1,28
 347 427 347 427 329 403.5 c 128,-1,29
 311 380 311 380 258 333 c 128,-1,30
 205 286 205 286 202 277.5 c 128,-1,31
 199 269 199 269 199 259 c 2,32,-1
 203 214 l 1,0,1
117 90 m 128,-1,34
 137 110 137 110 157 110 c 128,-1,35
 177 110 177 110 197 89.5 c 128,-1,36
 217 69 217 69 217 47.5 c 128,-1,37
 217 26 217 26 199.5 8 c 128,-1,38
 182 -10 182 -10 160.5 -10 c 128,-1,39
 139 -10 139 -10 118 10 c 128,-1,40
 97 30 97 30 97 50 c 128,-1,33
 97 70 97 70 117 90 c 128,-1,34
EndSplineSet
Validated: 3073
EndChar

StartChar: asciitilde
Encoding: 94 126 75
Width: 303
VWidth: 0
Flags: W
HStem: 382 54<83.929 246.203> 403 43<44.2915 195.556>
VStem: 33 236<404.264 433.159>
LayerCount: 2
Fore
SplineSet
33 401 m 0,0,1
 33 418 33 418 53 432 c 0,2,3
 74 446 74 446 84 446 c 0,4,5
 104 447 104 447 136 441.5 c 128,-1,6
 168 436 168 436 218.5 436 c 128,-1,7
 269 436 269 436 269 426.5 c 128,-1,8
 269 417 269 417 239.5 399.5 c 128,-1,9
 210 382 210 382 196 382 c 128,-1,10
 182 382 182 382 139.5 392.5 c 128,-1,11
 97 403 97 403 83.5 403 c 128,-1,12
 70 403 70 403 51.5 395 c 128,-1,13
 33 387 33 387 33 401 c 0,0,1
EndSplineSet
Validated: 3105
EndChar

StartChar: cent
Encoding: 97 162 76
Width: 311
VWidth: 0
Flags: W
HStem: 18 46<181.356 237.125> 248 83<203.684 259.066> 366 20G<167.5 177>
VStem: 30 62<100.008 249.248> 151 30<68.3726 287 338.343 379.289>
LayerCount: 2
Fore
SplineSet
170 386 m 0,0,1
 184 386 184 386 184 358 c 0,2,3
 184 349 184 349 183 338 c 257,4,5
 190 336 190 336 214 331 c 128,-1,6
 238 326 238 326 258.5 310 c 128,-1,7
 279 294 279 294 279 278 c 0,8,9
 279 248 279 248 251 248 c 0,10,11
 232 248 232 248 210 265 c 2,12,-1
 181 287 l 1,13,-1
 181 124 l 2,14,15
 181 67 181 67 183 64 c 257,16,17
 187 64 187 64 196 64 c 128,-1,18
 205 64 205 64 217 69 c 2,19,-1
 245 83 l 2,20,21
 265 93 265 93 273.5 93 c 128,-1,22
 282 93 282 93 282 81.5 c 128,-1,23
 282 70 282 70 268 61 c 0,24,25
 227 32 227 32 213.5 25.5 c 128,-1,26
 200 19 200 19 180 18 c 1,27,28
 177 -34 177 -34 168 -34 c 2,29,-1
 167 -34 l 1,30,31
 157 -31 157 -31 152 20 c 1,32,33
 128 22 128 22 111 34 c 0,34,35
 30 94 30 94 30 162 c 2,36,-1
 30 171 l 1,37,38
 33 212 33 212 41 228 c 1,39,40
 72 300 72 300 150 334 c 257,41,42
 150 373 150 373 157.5 379.5 c 128,-1,43
 165 386 165 386 170 386 c 0,0,1
151 134 m 1,44,45
 152 179 152 179 151.5 204.5 c 128,-1,46
 151 230 151 230 150 251 c 128,-1,47
 149 272 149 272 150 290 c 1,48,49
 139 288 139 288 117 266 c 0,50,51
 93 241 93 241 92 182 c 128,-1,52
 91 123 91 123 115 97 c 0,53,54
 130 79 130 79 151 68 c 261,55,56
 149 76 149 76 149 82 c 2,57,-1
 149 107 l 1,58,-1
 151 134 l 1,44,45
EndSplineSet
Validated: 3105
EndChar

StartChar: sterling
Encoding: 98 163 77
Width: 379
VWidth: 0
Flags: W
HStem: -11 96<160.002 302.864> 2 86<160 270.374> 200 42<44.7369 95.9492 194 280.321> 460.5 41.5<190.955 270.934>
VStem: 87 83<243.07 432.598> 117 80<122.034 198.859> 271 80<403.313 455.689>
LayerCount: 2
Fore
SplineSet
69 -2 m 1,0,1
 62 -2 l 2,2,3
 25 -2 25 -2 25 9.5 c 128,-1,4
 25 21 25 21 57 43 c 1,5,6
 117 87 117 87 117 136 c 0,7,8
 117 164 117 164 101 200 c 257,9,10
 88 197 88 197 70 200 c 128,-1,11
 52 203 52 203 44.5 207.5 c 128,-1,12
 37 212 37 212 37 223.5 c 128,-1,13
 37 235 37 235 43.5 239 c 128,-1,14
 50 243 50 243 67 242 c 1,15,-1
 96 242 l 1,16,-1
 90 308 l 2,17,18
 87 338 87 338 87 361 c 128,-1,19
 87 384 87 384 92 402 c 128,-1,20
 97 420 97 420 124 452 c 0,21,22
 165 502 165 502 210 502 c 0,23,24
 212 502 212 502 214 502 c 0,25,26
 266 502 266 502 308.5 477.5 c 128,-1,27
 351 453 351 453 351 411 c 0,28,29
 351 395 351 395 337 379.5 c 128,-1,30
 323 364 323 364 301 364 c 128,-1,31
 279 364 279 364 265 383 c 1,32,33
 259 393 259 393 259 403 c 128,-1,34
 259 413 259 413 266 425 c 128,-1,35
 273 437 273 437 271 442 c 128,-1,36
 269 447 269 447 253.5 454.5 c 128,-1,37
 238 462 238 462 228 460.5 c 128,-1,38
 218 459 218 459 203 449 c 0,39,40
 170 429 170 429 170 394 c 0,41,42
 170 375 170 375 182 313 c 1,43,-1
 190 242 l 1,44,-1
 236 242 l 2,45,46
 267 242 267 242 276.5 237 c 128,-1,47
 286 232 286 232 280.5 217 c 128,-1,48
 275 202 275 202 242 200 c 128,-1,49
 209 198 209 198 202.5 198.5 c 128,-1,50
 196 199 196 199 194 199 c 257,51,52
 197 194 197 194 197 180 c 128,-1,53
 197 166 197 166 178 128 c 1,54,-1
 160 88 l 1,55,-1
 229 86 l 2,56,57
 246 86 246 86 250 85 c 1,58,59
 299 85 299 85 303 98 c 1,60,61
 311 113 311 113 326.5 113 c 128,-1,62
 342 113 342 113 345 108 c 128,-1,63
 348 103 348 103 344 86 c 0,64,65
 325 -11 325 -11 271 -11 c 0,66,67
 251 -11 251 -11 227 -4 c 0,68,69
 201 2 201 2 183 2 c 2,70,-1
 160 2 l 1,71,-1
 69 -2 l 1,0,1
EndSplineSet
Validated: 3105
EndChar

StartChar: dollar
Encoding: 4 36 78
Width: 357
VWidth: 0
Flags: W
HStem: 559 20G<180 188>
VStem: 25 103<110.19 183.897> 52 68<388.898 469.687> 163 30<-21.9937 35.7458 79 258 377 475.436 517.222 571.256> 233 64<414.5 518> 262 67<110.583 222.257>
LayerCount: 2
Fore
SplineSet
182 579 m 0,0,1
 194 579 194 579 194 527 c 0,2,3
 194 523 194 523 194 519 c 1,4,5
 209 515 209 515 220 506 c 0,6,7
 233 494 233 494 233 518 c 0,8,9
 233 529 233 529 237 533.5 c 128,-1,10
 241 538 241 538 250 536 c 0,11,12
 266 533 266 533 281.5 481.5 c 128,-1,13
 297 430 297 430 297 414.5 c 128,-1,14
 297 399 297 399 292 393 c 0,15,16
 280 382 280 382 269 402 c 0,17,18
 244 445 244 445 195 476 c 1,19,-1
 194 365 l 1,20,-1
 237 334 l 1,21,22
 329 266 329 266 329 189 c 0,23,24
 329 168 329 168 324 148 c 0,25,26
 311 103 311 103 281 84 c 0,27,28
 226 48 226 48 218.5 42 c 128,-1,29
 211 36 211 36 195 36 c 257,30,31
 193 28 193 28 193 3 c 128,-1,32
 193 -22 193 -22 178 -22 c 128,-1,33
 163 -22 163 -22 163 4 c 0,34,35
 163 6 163 6 164 37 c 257,36,-1
 143 38 l 2,37,38
 88 41 88 41 56.5 75 c 128,-1,39
 25 109 25 109 25 137 c 0,40,41
 25 150 25 150 31 162 c 0,42,43
 47 196 47 196 80 196 c 0,44,45
 100 196 100 196 114 179 c 128,-1,46
 128 162 128 162 128 155 c 128,-1,47
 128 148 128 148 118 132 c 128,-1,48
 108 116 108 116 109 110 c 128,-1,49
 110 104 110 104 127 91 c 128,-1,50
 144 78 144 78 162 77 c 257,51,52
 163 112 163 112 163 177 c 2,53,-1
 163 276 l 1,54,-1
 120 301 l 2,55,56
 80 324 80 324 66 350.5 c 128,-1,57
 52 377 52 377 52 417 c 2,58,-1
 52 429 l 1,59,60
 53 454 53 454 76 478 c 0,61,62
 113 515 113 515 162 519 c 257,63,64
 162 564 162 564 170 571.5 c 128,-1,65
 178 579 178 579 182 579 c 0,0,1
164 377 m 257,66,67
 163 406 163 406 163 432 c 128,-1,68
 163 458 163 458 165 476 c 257,69,-1
 163 476 l 2,70,71
 143 476 143 476 131.5 459 c 128,-1,72
 120 442 120 442 120 433 c 0,73,74
 120 398 120 398 144 387 c 2,75,-1
 164 377 l 257,66,67
262 169 m 0,76,77
 262 214 262 214 218 242 c 2,78,-1
 193 258 l 1,79,-1
 193 168 l 2,80,81
 193 163 193 163 194 79 c 257,82,-1
 212 88 l 2,83,84
 244 105 244 105 258 141 c 0,85,86
 262 155 262 155 262 169 c 0,76,77
EndSplineSet
Validated: 3073
EndChar

StartChar: exclam
Encoding: 1 33 79
Width: 185
VWidth: 0
Flags: W
HStem: -20 119<55.5667 133.938> 561 20G<75.25 103.75>
VStem: 28 129<396.628 560.372> 28 120<-0.9962 71.8627> 75 26<165.019 287.595>
LayerCount: 2
Fore
SplineSet
66 260 m 1,0,1
 61 355 61 355 44.5 411 c 128,-1,2
 28 467 28 467 28 505 c 128,-1,3
 28 543 28 543 44.5 562 c 128,-1,4
 61 581 61 581 89.5 581 c 128,-1,5
 118 581 118 581 137.5 561 c 128,-1,6
 157 541 157 541 157 509 c 128,-1,7
 157 477 157 477 137 403.5 c 128,-1,8
 117 330 117 330 111.5 265 c 128,-1,9
 106 200 106 200 101 182.5 c 128,-1,10
 96 165 96 165 87.5 165 c 128,-1,11
 79 165 79 165 75 184 c 128,-1,12
 71 203 71 203 66 260 c 1,0,1
53 75 m 1,13,14
 76 99 76 99 90.5 99 c 128,-1,15
 105 99 105 99 126.5 84 c 128,-1,16
 148 69 148 69 148 43.5 c 128,-1,17
 148 18 148 18 132 -1 c 128,-1,18
 116 -20 116 -20 93.5 -20 c 128,-1,19
 71 -20 71 -20 49.5 -1 c 128,-1,20
 28 18 28 18 28 35 c 128,-1,21
 28 52 28 52 53 75 c 1,13,14
EndSplineSet
Validated: 3073
EndChar

StartChar: asciicircum
Encoding: 62 94 80
Width: 277
VWidth: 0
Flags: W
HStem: 436 60<83.4993 186.176>
VStem: 34 209<436.585 451.672>
LayerCount: 2
Fore
SplineSet
48 415 m 0,0,1
 34 415 34 415 34 438 c 0,2,3
 34 444 34 444 44 450 c 0,4,5
 56 456 56 456 86 476 c 128,-1,6
 116 496 116 496 133.5 496 c 128,-1,7
 151 496 151 496 197 468 c 128,-1,8
 243 440 243 440 243 424 c 0,9,10
 243 414 243 414 227.5 414 c 128,-1,11
 212 414 212 414 179.5 425 c 128,-1,12
 147 436 147 436 132.5 436 c 128,-1,13
 118 436 118 436 87.5 425.5 c 128,-1,14
 57 415 57 415 48 415 c 0,0,1
EndSplineSet
Validated: 3073
EndChar

StartChar: grave
Encoding: 64 96 81
Width: 202
VWidth: 0
Flags: W
HStem: 415 123
VStem: 32 136
LayerCount: 2
Fore
SplineSet
157 415 m 128,-1,1
 151 415 151 415 101.5 444.5 c 128,-1,2
 52 474 52 474 42 486.5 c 128,-1,3
 32 499 32 499 32 508 c 128,-1,4
 32 517 32 517 43 527.5 c 128,-1,5
 54 538 54 538 61 538 c 128,-1,6
 68 538 68 538 77 533.5 c 128,-1,7
 86 529 86 529 127 489 c 0,8,9
 168 448 168 448 168 430 c 0,10,11
 168 427 168 427 165.5 421 c 128,-1,0
 163 415 163 415 157 415 c 128,-1,1
EndSplineSet
Validated: 3073
EndChar

StartChar: yen
Encoding: 100 165 82
Width: 462
VWidth: 0
Flags: W
HStem: -1 37<171.042 215.294> 146 40<141.002 230.991 318.224 385.964> 238 36<141.347 200.062 341.221 388.622> 410 96<67.8047 108.265>
VStem: 231 80<191.159 230.641> 341 94<410.25 485.75>
LayerCount: 2
Fore
SplineSet
45 410 m 1,0,1
 26 410 26 410 26 418 c 0,2,3
 26 429 26 429 51 465 c 1,4,5
 82 506 82 506 105 506 c 128,-1,6
 128 506 128 506 175 455.5 c 128,-1,7
 222 405 222 405 248.5 350.5 c 128,-1,8
 275 296 275 296 280.5 296 c 128,-1,9
 286 296 286 296 313.5 350.5 c 128,-1,10
 341 405 341 405 341 415.5 c 128,-1,11
 341 426 341 426 301.5 426 c 128,-1,12
 262 426 262 426 253 440 c 0,13,14
 250 445 250 445 250 456.5 c 128,-1,15
 250 468 250 468 258 492.5 c 128,-1,16
 266 517 266 517 274 526.5 c 128,-1,17
 282 536 282 536 291 536 c 128,-1,18
 300 536 300 536 305.5 532 c 128,-1,19
 311 528 311 528 311 522 c 0,20,21
 311 496 311 496 387 496 c 0,22,23
 435 496 435 496 435 475.5 c 128,-1,24
 435 455 435 455 388 370.5 c 128,-1,25
 341 286 341 286 341 281.5 c 128,-1,26
 341 277 341 277 366 274 c 128,-1,27
 391 271 391 271 396 263 c 128,-1,28
 401 255 401 255 389 247.5 c 128,-1,29
 377 240 377 240 351 238 c 128,-1,30
 325 236 325 236 318 231.5 c 128,-1,31
 311 227 311 227 311 211.5 c 128,-1,32
 311 196 311 196 318 191 c 128,-1,33
 325 186 325 186 355.5 184 c 128,-1,34
 386 182 386 182 386 166.5 c 128,-1,35
 386 151 386 151 349 148 c 2,36,-1
 311 145 l 1,37,-1
 311 96 l 2,38,39
 311 63 311 63 315 53.5 c 128,-1,40
 319 44 319 44 336 40 c 0,41,42
 361 34 361 34 361 15 c 0,43,44
 361 2 361 2 346.5 -1 c 128,-1,45
 332 -4 332 -4 265.5 -4 c 128,-1,46
 199 -4 199 -4 185 -1 c 128,-1,47
 171 2 171 2 171 16 c 0,48,49
 171 36 171 36 190 36 c 128,-1,50
 209 36 209 36 215.5 47 c 128,-1,51
 222 58 222 58 227 100 c 1,52,-1
 234 146 l 1,53,-1
 187 146 l 2,54,55
 158 146 158 146 149.5 149.5 c 128,-1,56
 141 153 141 153 141 166 c 128,-1,57
 141 179 141 179 149 182.5 c 128,-1,58
 157 186 157 186 194 186 c 128,-1,59
 231 186 231 186 231 199 c 0,60,61
 231 234 231 234 176 238 c 0,62,63
 152 240 152 240 141 247.5 c 128,-1,64
 130 255 130 255 137.5 263 c 128,-1,65
 145 271 145 271 168 274 c 2,66,-1
 201 277 l 1,67,-1
 181 315 l 1,68,69
 163 352 163 352 139.5 380 c 128,-1,70
 116 408 116 408 108.5 411 c 128,-1,71
 101 414 101 414 91 414 c 2,72,-1
 45 410 l 1,0,1
EndSplineSet
Validated: 3073
EndChar

StartChar: OE
Encoding: 194 338 83
Width: 808
VWidth: 0
Flags: W
HStem: -19 52<283.754 391.716> -8 51<545.035 675.633> 283 50<517 601.26> 373 20G<627.5 642> 523 50<517.039 635.836> 531 54<223.771 391.563>
VStem: 32 107<216.528 402.313> 417 100<71.0264 283 333 506.775>
LayerCount: 2
Fore
SplineSet
657 375.5 m 128,-1,1
 667 358 667 358 684 306 c 128,-1,2
 701 254 701 254 701 232.5 c 128,-1,3
 701 211 701 211 691 211 c 0,4,5
 677 211 677 211 649 240.5 c 128,-1,6
 621 270 621 270 607.5 276.5 c 128,-1,7
 594 283 594 283 563 283 c 2,8,-1
 517 283 l 1,9,-1
 517 188 l 2,10,11
 517 122 517 122 520.5 103 c 128,-1,12
 524 84 524 84 542 68 c 1,13,14
 566 43 566 43 599 43 c 2,15,16
 603 43 l 2,17,18
 676 43 676 43 719 111 c 0,19,20
 733 134 733 134 755 142 c 128,-1,21
 777 150 777 150 777 131 c 128,-1,22
 777 112 777 112 754 43 c 128,-1,23
 731 -26 731 -26 721.5 -36 c 128,-1,24
 712 -46 712 -46 709 -46 c 128,-1,25
 706 -46 706 -46 703 -45 c 128,-1,26
 700 -44 700 -44 691.5 -33 c 128,-1,27
 683 -22 683 -22 680.5 -19 c 128,-1,28
 678 -16 678 -16 669 -12.5 c 128,-1,29
 660 -9 660 -9 654.5 -8.5 c 128,-1,30
 649 -8 649 -8 627 -8 c 128,-1,31
 605 -8 605 -8 587 -9 c 2,32,-1
 526 -12 l 2,33,34
 381 -19 381 -19 344.5 -19 c 128,-1,35
 308 -19 308 -19 299 -18 c 0,36,37
 195 -14 195 -14 113.5 76.5 c 128,-1,38
 32 167 32 167 32 287.5 c 128,-1,39
 32 408 32 408 114 494 c 1,40,41
 194 580 194 580 306 584 c 0,42,43
 316 585 316 585 352.5 585 c 132,-1,44
 389 585 389 585 482.5 579 c 128,-1,45
 576 573 576 573 586 573 c 2,46,-1
 596 573 l 2,47,48
 631 573 631 573 636 578 c 128,-1,49
 641 583 641 583 648.5 598 c 128,-1,50
 656 613 656 613 664 613 c 128,-1,51
 672 613 672 613 676 608 c 1,52,53
 691 595 691 595 709.5 539.5 c 128,-1,54
 728 484 728 484 731.5 465.5 c 128,-1,55
 735 447 735 447 728 440 c 128,-1,56
 721 433 721 433 712 438.5 c 128,-1,57
 703 444 703 444 680 470 c 0,58,59
 635 523 635 523 556 523 c 2,60,-1
 517 523 l 1,61,-1
 517 333 l 1,62,-1
 562 333 l 2,63,64
 594 333 594 333 601.5 337.5 c 128,-1,65
 609 342 609 342 613.5 367.5 c 128,-1,66
 618 393 618 393 637 393 c 0,67,0
 647 393 647 393 657 375.5 c 128,-1,1
414.5 451.5 m 128,-1,69
 412 488 412 488 396 506 c 0,70,71
 376 531 376 531 304 531 c 0,72,73
 206 531 206 531 161 436 c 0,74,75
 139 390 139 390 139 337 c 0,76,77
 139 322 139 322 141 306 c 0,78,79
 154 190 154 190 218 111.5 c 128,-1,80
 282 33 282 33 362 33 c 0,81,82
 383 33 383 33 392 38 c 128,-1,83
 401 43 401 43 409 62.5 c 128,-1,84
 417 82 417 82 417 248.5 c 128,-1,68
 417 415 417 415 414.5 451.5 c 128,-1,69
EndSplineSet
Validated: 3073
EndChar

StartChar: AE
Encoding: 133 198 84
Width: 728
VWidth: 0
Flags: W
HStem: -9 50<464.027 585.471> 151 60<241 359> 281 49<447 491> 371 20G<549 563> 522 46<447 558.556>
VStem: 31 145<8.5 73> 304 143<453.214 520.25> 359 88<99 151 211 281 330 450.971>
LayerCount: 2
Fore
SplineSet
578 373.5 m 128,-1,1
 588 356 588 356 605 304 c 128,-1,2
 622 252 622 252 622 233.5 c 128,-1,3
 622 215 622 215 613 215 c 0,4,5
 600 215 600 215 572.5 240.5 c 128,-1,6
 545 266 545 266 529 273.5 c 128,-1,7
 513 281 513 281 488 281 c 2,8,-1
 447 281 l 1,9,-1
 447 181 l 2,10,11
 447 91 447 91 462 66 c 128,-1,12
 477 41 477 41 531 41 c 0,13,14
 558 41 558 41 572.5 49.5 c 128,-1,15
 587 58 587 58 627.5 99 c 128,-1,16
 668 140 668 140 688 140 c 0,17,18
 697 140 697 140 697 123 c 128,-1,19
 697 106 697 106 674.5 39 c 128,-1,20
 652 -28 652 -28 642 -38 c 128,-1,21
 632 -48 632 -48 629.5 -48 c 128,-1,22
 627 -48 627 -48 624.5 -47.5 c 128,-1,23
 622 -47 622 -47 612 -33.5 c 128,-1,24
 602 -20 602 -20 586 -14.5 c 128,-1,25
 570 -9 570 -9 436 -9 c 128,-1,26
 302 -9 302 -9 300.5 -5 c 128,-1,27
 299 -1 299 -1 301 13 c 0,28,29
 305 36 305 36 325 40 c 128,-1,30
 345 44 345 44 350 55 c 128,-1,31
 355 66 355 66 357 99 c 2,32,-1
 360 151 l 1,33,-1
 208 151 l 1,34,-1
 189 109 l 2,35,36
 176 80 176 80 176 66 c 128,-1,37
 176 52 176 52 201.5 42 c 128,-1,38
 227 32 227 32 227 17 c 128,-1,39
 227 2 227 2 209 -1 c 128,-1,40
 191 -4 191 -4 131 -4 c 128,-1,41
 71 -4 71 -4 51 -1 c 128,-1,42
 31 2 31 2 31 15 c 128,-1,43
 31 28 31 28 57 39.5 c 128,-1,44
 83 51 83 51 107 90 c 128,-1,45
 131 129 131 129 217.5 300.5 c 128,-1,46
 304 472 304 472 304 499 c 0,47,48
 304 506 304 506 293 514 c 0,49,50
 281 522 281 522 261 530 c 128,-1,51
 241 538 241 538 241 550 c 0,52,53
 241 552 241 552 242 554 c 0,54,55
 245 566 245 566 397 568 c 128,-1,56
 549 570 549 570 564 581 c 0,57,58
 568 584 568 584 572.5 597.5 c 128,-1,59
 577 611 577 611 586 611 c 0,60,61
 606 611 606 611 630.5 546 c 128,-1,62
 655 481 655 481 655 457.5 c 128,-1,63
 655 434 655 434 642 434 c 128,-1,64
 629 434 629 434 601 467 c 128,-1,65
 573 500 573 500 559 508.5 c 128,-1,66
 545 517 545 517 505 518 c 2,67,-1
 447 522 l 1,68,-1
 447 330 l 1,69,-1
 491 333 l 2,70,71
 519 335 519 335 526 340 c 128,-1,72
 533 345 533 345 536.5 368 c 128,-1,73
 540 391 540 391 558 391 c 0,74,0
 568 391 568 391 578 373.5 c 128,-1,1
359 331 m 2,75,76
 359 451 359 451 356 451 c 128,-1,77
 353 451 353 451 297 331 c 2,78,-1
 241 211 l 1,79,-1
 359 211 l 1,80,-1
 359 331 l 2,75,76
EndSplineSet
Validated: 3073
EndChar

StartChar: oe
Encoding: 195 339 85
Width: 690
VWidth: 0
Flags: W
HStem: -16 62<479.175 595.474> -16 47<190.813 302.173> 322 48<156.746 273.287 455.389 553.072>
VStem: 32 88<120.768 268.84> 340 84<173.359 242.94> 568.5 80.5<252.158 307.178>
LayerCount: 2
Fore
SplineSet
67 290 m 0,0,1
 126 370 126 370 226 370 c 0,2,3
 302 370 302 370 350 336 c 2,4,-1
 389 309 l 1,5,-1
 420 334 l 1,6,7
 461 370 461 370 516.5 370 c 128,-1,8
 572 370 572 370 610.5 342 c 128,-1,9
 649 314 649 314 649 275.5 c 128,-1,10
 649 237 649 237 630 219.5 c 128,-1,11
 611 202 611 202 544.5 174 c 128,-1,12
 478 146 478 146 466 129 c 128,-1,13
 454 112 454 112 455 104 c 128,-1,14
 456 96 456 96 469 79 c 0,15,16
 495 46 495 46 528.5 46 c 128,-1,17
 562 46 562 46 600.5 64 c 128,-1,18
 639 82 639 82 649.5 82 c 128,-1,19
 660 82 660 82 660 74 c 0,20,21
 660 55 660 55 629 29 c 0,22,23
 576 -16 576 -16 516.5 -16 c 128,-1,24
 457 -16 457 -16 415 16 c 2,25,-1
 381 42 l 1,26,-1
 345 18 l 1,27,28
 296 -16 296 -16 230 -16 c 0,29,30
 202 -16 202 -16 177 -8 c 0,31,32
 125 7 125 7 89 41 c 0,33,34
 32 96 32 96 32 182 c 0,35,36
 32 242 32 242 67 290 c 0,0,1
322 235.5 m 128,-1,38
 304 276 304 276 275.5 299 c 128,-1,39
 247 322 247 322 212.5 322 c 128,-1,40
 178 322 178 322 154.5 298 c 128,-1,41
 131 274 131 274 125.5 259 c 128,-1,42
 120 244 120 244 120 205.5 c 128,-1,43
 120 167 120 167 140 124 c 0,44,45
 171 54 171 54 220 36 c 0,46,47
 234 31 234 31 248 31 c 0,48,49
 281 31 281 31 305 55.5 c 128,-1,50
 329 80 329 80 334.5 95 c 128,-1,51
 340 110 340 110 340 152.5 c 128,-1,37
 340 195 340 195 322 235.5 c 128,-1,38
565 252 m 0,52,53
 568 257 568 257 568.5 267.5 c 128,-1,54
 569 278 569 278 553.5 300 c 128,-1,55
 538 322 538 322 505.5 322 c 128,-1,56
 473 322 473 322 456 303.5 c 128,-1,57
 439 285 439 285 431.5 257 c 128,-1,58
 424 229 424 229 424 216 c 128,-1,59
 424 203 424 203 426 196 c 2,60,-1
 432 173 l 1,61,-1
 501 207 l 2,62,63
 555 234 555 234 565 252 c 0,52,53
EndSplineSet
Validated: 3105
EndChar

StartChar: ae
Encoding: 165 230 86
Width: 604
VWidth: 0
Flags: W
HStem: -18 62<129.05 213.34 394.936 511.948> 321 46<166.768 257.793 372.892 464.85>
VStem: 31 89<54.5098 119.735> 263 79<172.344 199.029 242.979 286.836> 478 89<230.061 306.179>
LayerCount: 2
Fore
SplineSet
384 84 m 0,0,1
 393 61 393 61 414.5 51 c 128,-1,2
 436 41 436 41 455.5 41 c 128,-1,3
 475 41 475 41 509.5 58.5 c 128,-1,4
 544 76 544 76 558.5 76 c 128,-1,5
 573 76 573 76 573 66 c 0,6,7
 573 38 573 38 516 6 c 0,8,9
 476 -17 476 -17 440.5 -17 c 128,-1,10
 405 -17 405 -17 367 -3.5 c 128,-1,11
 329 10 329 10 308 37 c 2,12,-1
 288 62 l 1,13,-1
 253 32 l 2,14,15
 223 5 223 5 189.5 -6.5 c 128,-1,16
 156 -18 156 -18 139 -18 c 0,17,18
 94 -18 94 -18 62.5 14.5 c 128,-1,19
 31 47 31 47 31 84 c 0,20,21
 31 154 31 154 163 204 c 0,22,23
 228 229 228 229 245.5 247 c 128,-1,24
 263 265 263 265 263 277 c 128,-1,25
 263 289 263 289 258 299 c 0,26,27
 246 321 246 321 216.5 321 c 128,-1,28
 187 321 187 321 145.5 280.5 c 128,-1,29
 104 240 104 240 90.5 240 c 128,-1,30
 77 240 77 240 68.5 254.5 c 128,-1,31
 60 269 60 269 60 279 c 0,32,33
 60 310 60 310 81 325 c 128,-1,34
 102 340 102 340 134 353.5 c 128,-1,35
 166 367 166 367 188 367 c 0,36,37
 264 367 264 367 296 343 c 0,38,39
 316 328 316 328 323 328 c 128,-1,40
 330 328 330 328 357 348 c 128,-1,41
 384 368 384 368 448 368 c 0,42,43
 478 368 478 368 508 348 c 0,44,45
 566 308 566 308 567 264 c 0,46,47
 567 234 567 234 545.5 218.5 c 128,-1,48
 524 203 524 203 455.5 171 c 128,-1,49
 387 139 387 139 382 125 c 0,50,51
 379 117 379 117 379 106.5 c 128,-1,52
 379 96 379 96 384 84 c 0,0,1
478 271 m 0,53,54
 478 290 478 290 462.5 304.5 c 128,-1,55
 447 319 447 319 419 319 c 128,-1,56
 391 319 391 319 374.5 301 c 128,-1,57
 358 283 358 283 350 255.5 c 128,-1,58
 342 228 342 228 342 215 c 128,-1,59
 342 202 342 202 344 194 c 2,60,-1
 350 172 l 1,61,-1
 411 203 l 2,62,63
 449 223 449 223 462 234.5 c 128,-1,64
 475 246 475 246 476.5 256 c 128,-1,65
 478 266 478 266 478 271 c 0,53,54
264 153 m 0,66,67
 268 184 268 184 268 192 c 128,-1,68
 268 200 268 200 267 199 c 0,69,70
 244 195 244 195 185.5 158.5 c 128,-1,71
 127 122 127 122 123.5 112 c 128,-1,72
 120 102 120 102 120 86 c 0,73,74
 120 72 120 72 137 58 c 128,-1,75
 154 44 154 44 170 44 c 0,76,77
 250 44 250 44 264 153 c 0,66,67
EndSplineSet
Validated: 3073
EndChar

StartChar: cedilla
Encoding: 119 184 87
Width: 196
VWidth: 0
Flags: W
HStem: -133 38<36.5841 103.197>
LayerCount: 2
Fore
SplineSet
105 0 m 1,0,1
 102 -17 102 -17 132 -22 c 0,2,3
 159 -26 159 -26 159 -63 c 0,4,5
 159 -87 159 -87 139 -105 c 0,6,7
 109 -133 109 -133 69 -133 c 0,8,9
 53 -133 53 -133 43.5 -125.5 c 128,-1,10
 34 -118 34 -118 34 -115 c 128,-1,11
 34 -112 34 -112 36.5 -109 c 128,-1,12
 39 -106 39 -106 66 -95 c 128,-1,13
 93 -84 93 -84 101.5 -78 c 128,-1,14
 110 -72 110 -72 106.5 -66 c 128,-1,15
 103 -60 103 -60 81.5 -50 c 128,-1,16
 60 -40 60 -40 60 -15 c 1,17,-1
 59 0 l 257,18,-1
 105 0 l 1,0,1
EndSplineSet
Validated: 3105
EndChar

StartChar: dotlessi
Encoding: 188 305 127
Width: 258
VWidth: 0
Flags: W
HStem: 361 20G<142.5 149.5>
VStem: 85 82<62.1571 317.41>
LayerCount: 2
Fore
SplineSet
170 319 m 2,0,-1
 167 170 l 1,1,2
 167 82 167 82 176.5 61.5 c 128,-1,3
 186 41 186 41 206.5 36 c 128,-1,4
 227 31 227 31 227 12 c 0,5,6
 227 2 227 2 222 -2 c 0,7,8
 209 -11 209 -11 130 -5 c 1,9,10
 30 -2 30 -2 30 14 c 0,11,12
 30 23 30 23 57 38 c 2,13,-1
 88 54 l 1,14,-1
 85 180 l 2,15,16
 84 215 84 215 84 233 c 128,-1,17
 84 251 84 251 82.5 268.5 c 128,-1,18
 81 286 81 286 79.5 292 c 128,-1,19
 78 298 78 298 74.5 305 c 128,-1,20
 71 312 71 312 68 314.5 c 128,-1,21
 65 317 65 317 49 324 c 128,-1,22
 33 331 33 331 33 342 c 0,23,24
 33 357 33 357 82 364.5 c 128,-1,25
 131 372 131 372 135 376.5 c 128,-1,26
 139 381 139 381 146 381 c 128,-1,27
 153 381 153 381 157 380 c 0,28,29
 167 378 167 378 168.5 360 c 128,-1,30
 170 342 170 342 170 319 c 2,0,-1
EndSplineSet
Validated: 3105
EndChar

StartChar: uni00B2
Encoding: 113 178 141
Width: 261
VWidth: 0
Flags: W
HStem: 266 58<77.3805 202.096> 273 73.5<138.525 228.26> 541 32<103.964 159.545>
VStem: 30 60<286.25 348.114> 32 65.5<476.456 538.324> 165 55<449.833 531.984>
LayerCount: 2
Fore
SplineSet
134 541 m 0,0,1
 103 541 103 541 97.5 506.5 c 128,-1,2
 92 472 92 472 66 472 c 0,3,4
 58 472 58 472 45 482.5 c 128,-1,5
 32 493 32 493 32 507.5 c 128,-1,6
 32 522 32 522 57 547.5 c 128,-1,7
 82 573 82 573 122 573 c 128,-1,8
 162 573 162 573 191 551 c 128,-1,9
 220 529 220 529 220 498.5 c 128,-1,10
 220 468 220 468 205 447.5 c 128,-1,11
 190 427 190 427 140 383 c 128,-1,12
 90 339 90 339 90 331.5 c 128,-1,13
 90 324 90 324 110 324 c 0,14,15
 186 324 186 324 196 339 c 128,-1,16
 206 354 206 354 218 346.5 c 128,-1,17
 230 339 230 339 230 309.5 c 128,-1,18
 230 280 230 280 208 273 c 128,-1,19
 186 266 186 266 137 266 c 128,-1,20
 88 266 88 266 64 267 c 128,-1,21
 40 268 40 268 35 272.5 c 128,-1,22
 30 277 30 277 30 295.5 c 128,-1,23
 30 314 30 314 46 339.5 c 128,-1,24
 62 365 62 365 113.5 416.5 c 128,-1,25
 165 468 165 468 165 494 c 0,26,27
 165 509 165 509 160 525 c 128,-1,28
 155 541 155 541 134 541 c 0,0,1
EndSplineSet
Validated: 3073
EndChar

StartChar: uni00B3
Encoding: 114 179 142
Width: 263
VWidth: 0
Flags: W
HStem: 261.5 28.5<100.334 147.735> 540 29<108.446 150.776>
VStem: 52 55<489.675 521.717> 158 55<461.831 538.464> 168 66<308.959 409.131>
LayerCount: 2
Fore
SplineSet
132 569 m 128,-1,1
 169 569 169 569 191 553.5 c 128,-1,2
 213 538 213 538 213 510 c 128,-1,3
 213 482 213 482 197 468 c 0,4,5
 181 452 181 452 182 446 c 128,-1,6
 183 440 183 440 209 416 c 128,-1,7
 235 392 235 392 234 362 c 128,-1,8
 233 332 233 332 203 297 c 128,-1,9
 173 262 173 262 119.5 261.5 c 128,-1,10
 66 261 66 261 38 304 c 0,11,12
 27 320 27 320 27 328 c 128,-1,13
 27 336 27 336 36.5 347.5 c 128,-1,14
 46 359 46 359 57 359 c 0,15,16
 74 359 74 359 88.5 324 c 128,-1,17
 103 289 103 289 123 290 c 0,18,19
 147 290 147 290 163 332 c 0,20,21
 168 344 168 344 168 356.5 c 128,-1,22
 168 369 168 369 165 380 c 0,23,24
 156 413 156 413 133 413 c 0,25,26
 121 413 121 413 104.5 406 c 128,-1,27
 88 399 88 399 79 399 c 128,-1,28
 70 399 70 399 65 404 c 0,29,30
 53 416 53 416 65 429 c 128,-1,31
 77 442 77 442 106 448 c 128,-1,32
 135 454 135 454 149 476 c 0,33,34
 158 489 158 489 158 500.5 c 128,-1,35
 158 512 158 512 153 522 c 0,36,37
 144 540 144 540 128.5 540 c 128,-1,38
 113 540 113 540 109.5 534 c 128,-1,39
 106 528 106 528 107 511.5 c 128,-1,40
 108 495 108 495 104 489.5 c 128,-1,41
 100 484 100 484 80.5 484 c 128,-1,42
 61 484 61 484 52 498.5 c 128,-1,43
 43 513 43 513 46.5 522 c 128,-1,44
 50 531 50 531 72.5 550 c 128,-1,0
 95 569 95 569 132 569 c 128,-1,1
EndSplineSet
Validated: 3105
EndChar

StartChar: uni00B9
Encoding: 120 185 143
Width: 198
VWidth: 0
Flags: W
HStem: 261 37<142.673 169.877> 558 20G<113.5 126.5>
VStem: 73 62<310.38 511.904>
LayerCount: 2
Fore
SplineSet
163 285 m 0,0,1
 163 261 163 261 97.5 261 c 128,-1,2
 32 261 32 261 32 283 c 0,3,4
 32 297 32 297 51 301 c 0,5,6
 64 305 64 305 67.5 321.5 c 128,-1,7
 71 338 71 338 71 393.5 c 128,-1,8
 71 449 71 449 70.5 465.5 c 128,-1,9
 70 482 70 482 67 495.5 c 128,-1,10
 64 509 64 509 60 512 c 128,-1,11
 56 515 56 515 40.5 523 c 128,-1,12
 25 531 25 531 25 540 c 0,13,14
 25 553 25 553 54.5 556 c 128,-1,15
 84 559 84 559 93 568.5 c 128,-1,16
 102 578 102 578 113.5 578 c 128,-1,17
 125 578 125 578 125 481 c 128,-1,18
 125 384 125 384 127 353 c 128,-1,19
 129 322 129 322 134.5 310 c 128,-1,20
 140 298 140 298 151.5 298 c 128,-1,21
 163 298 163 298 163 285 c 0,0,1
EndSplineSet
Validated: 3073
EndChar

StartChar: guillemotleft
Encoding: 106 171 144
Width: 293
VWidth: 0
Flags: W
HStem: 85 180<88.3257 140 205.267 258>
VStem: 31 80<142.002 209.644> 147 81<142.767 209.253>
LayerCount: 2
Fore
SplineSet
57 214.5 m 128,-1,1
 83 242 83 242 102.5 253 c 128,-1,2
 122 264 122 264 132 264.5 c 128,-1,3
 142 265 142 265 142 252 c 128,-1,4
 142 239 142 239 126.5 213 c 128,-1,5
 111 187 111 187 111 176 c 128,-1,6
 111 165 111 165 125.5 139 c 128,-1,7
 140 113 140 113 140 99 c 128,-1,8
 140 85 140 85 124.5 85 c 128,-1,9
 109 85 109 85 70 124 c 128,-1,10
 31 163 31 163 31 175 c 128,-1,0
 31 187 31 187 57 214.5 c 128,-1,1
173.5 214.5 m 128,-1,12
 200 242 200 242 219.5 253.5 c 128,-1,13
 239 265 239 265 249 265 c 128,-1,14
 259 265 259 265 259 252 c 128,-1,15
 259 239 259 239 243.5 213 c 128,-1,16
 228 187 228 187 228 175.5 c 128,-1,17
 228 164 228 164 243 137 c 128,-1,18
 258 110 258 110 258 97.5 c 128,-1,19
 258 85 258 85 242 85 c 128,-1,20
 226 85 226 85 186.5 124 c 128,-1,21
 147 163 147 163 147 175 c 128,-1,11
 147 187 147 187 173.5 214.5 c 128,-1,12
EndSplineSet
Validated: 3073
EndChar

StartChar: guillemotright
Encoding: 122 187 145
Width: 297
VWidth: 0
Flags: W
HStem: 84 178
VStem: 65 84<141.487 201.717> 183 82<142.666 203.107>
LayerCount: 2
Fore
SplineSet
65 174.5 m 128,-1,1
 65 185 65 185 49.5 210.5 c 128,-1,2
 34 236 34 236 34 244.5 c 128,-1,3
 34 253 34 253 39 259.5 c 128,-1,4
 44 266 44 266 57.5 262 c 128,-1,5
 71 258 71 258 110 219.5 c 128,-1,6
 149 181 149 181 149 170 c 128,-1,7
 149 159 149 159 105.5 121.5 c 128,-1,8
 62 84 62 84 48 84 c 128,-1,9
 34 84 34 84 34 97.5 c 128,-1,10
 34 111 34 111 49.5 137.5 c 128,-1,0
 65 164 65 164 65 174.5 c 128,-1,1
148 255 m 0,11,12
 148 265 148 265 163 265 c 128,-1,13
 178 265 178 265 221.5 224.5 c 128,-1,14
 265 184 265 184 265 172 c 128,-1,15
 265 160 265 160 221 122.5 c 128,-1,16
 177 85 177 85 163 85 c 128,-1,17
 149 85 149 85 149 97 c 0,18,19
 149 114 149 114 166 139 c 128,-1,20
 183 164 183 164 183 174 c 128,-1,21
 183 184 183 184 165.5 212.5 c 128,-1,22
 148 241 148 241 148 255 c 0,11,12
EndSplineSet
Validated: 3073
EndChar

StartChar: quotedblleft
Encoding: 199 8220 146
Width: 333
VWidth: -551
Flags: W
HStem: 387 190<83.999 98.75 243.5 290.5>
VStem: 33 66<434 520.432> 189 76<423.441 522>
LayerCount: 2
Fore
SplineSet
33 449 m 0,0,1
 33 497 33 497 66.5 536.5 c 128,-1,2
 100 576 100 576 116.5 576 c 128,-1,3
 133 576 133 576 133 571.5 c 128,-1,4
 133 567 133 567 116 549 c 128,-1,5
 99 531 99 531 99 516 c 128,-1,6
 99 501 99 501 117.5 485.5 c 128,-1,7
 136 470 136 470 136 446 c 0,8,9
 136 409 136 409 104 395 c 0,10,11
 90 389 90 389 76 389.5 c 128,-1,12
 62 390 62 390 47.5 404.5 c 128,-1,13
 33 419 33 419 33 449 c 0,0,1
233 540 m 0,14,15
 252 560 252 560 268.5 568.5 c 128,-1,16
 285 577 285 577 290.5 577 c 128,-1,17
 296 577 296 577 296 573 c 0,18,19
 296 567 296 567 280.5 549 c 128,-1,20
 265 531 265 531 265 513 c 128,-1,21
 265 495 265 495 282 477.5 c 128,-1,22
 299 460 299 460 299 441.5 c 128,-1,23
 299 423 299 423 280.5 405 c 128,-1,24
 262 387 262 387 243.5 387 c 128,-1,25
 225 387 225 387 207 404.5 c 128,-1,26
 189 422 189 422 189 446 c 0,27,28
 189 495 189 495 233 540 c 0,14,15
EndSplineSet
Validated: 3073
EndChar

StartChar: quotedblbase
Encoding: 200 8222 147
Width: 335
VWidth: -16
Flags: W
HStem: -78 190<199 214>
VStem: 35 99<20.3281 96.0759> 71 63<-14.1023 42.5> 238 62<-9.75775 62.5>
LayerCount: 2
Fore
SplineSet
132 68.5 m 128,-1,1
 134 49 134 49 134 36 c 128,-1,2
 134 23 134 23 127.5 8 c 128,-1,3
 121 -7 121 -7 95.5 -32 c 128,-1,4
 70 -57 70 -57 52 -67.5 c 128,-1,5
 34 -78 34 -78 34 -70.5 c 128,-1,6
 34 -63 34 -63 52.5 -41.5 c 128,-1,7
 71 -20 71 -20 71 -5.5 c 128,-1,8
 71 9 71 9 53 23.5 c 128,-1,9
 35 38 35 38 35 60.5 c 128,-1,10
 35 83 35 83 49 96.5 c 128,-1,11
 63 110 63 110 89 110 c 128,-1,12
 115 110 115 110 122.5 99 c 128,-1,0
 130 88 130 88 132 68.5 c 128,-1,1
292 92 m 128,-1,14
 300 72 300 72 300 53 c 0,15,16
 300 8 300 8 257 -35 c 128,-1,17
 214 -78 214 -78 194 -78 c 0,18,19
 186 -78 186 -78 186 -68 c 128,-1,20
 186 -58 186 -58 212 -42 c 128,-1,21
 238 -26 238 -26 238 -9.5 c 128,-1,22
 238 7 238 7 218.5 23.5 c 128,-1,23
 199 40 199 40 199 76 c 128,-1,24
 199 112 199 112 241.5 112 c 128,-1,13
 284 112 284 112 292 92 c 128,-1,14
EndSplineSet
Validated: 3073
EndChar

StartChar: quotedblright
Encoding: 201 8221 148
Width: 331
VWidth: -558
Flags: W
HStem: 383 190<198 213>
VStem: 34 99<481.328 557.56> 70 63<446.917 503.5> 237 62<451.242 523.5>
LayerCount: 2
Fore
SplineSet
131 529.5 m 128,-1,1
 133 510 133 510 133 497 c 128,-1,2
 133 484 133 484 126.5 469 c 128,-1,3
 120 454 120 454 94.5 429 c 128,-1,4
 69 404 69 404 51 393.5 c 128,-1,5
 33 383 33 383 33 391 c 128,-1,6
 33 399 33 399 51.5 420 c 128,-1,7
 70 441 70 441 70 455.5 c 128,-1,8
 70 470 70 470 52 484.5 c 128,-1,9
 34 499 34 499 34 521.5 c 128,-1,10
 34 544 34 544 48 558 c 128,-1,11
 62 572 62 572 88 572 c 128,-1,12
 114 572 114 572 121.5 560.5 c 128,-1,0
 129 549 129 549 131 529.5 c 128,-1,1
291 553 m 128,-1,14
 299 533 299 533 299 514 c 0,15,16
 299 469 299 469 256 426 c 128,-1,17
 213 383 213 383 193 383 c 0,18,19
 185 383 185 383 185 393 c 128,-1,20
 185 403 185 403 211 419 c 128,-1,21
 237 435 237 435 237 451.5 c 128,-1,22
 237 468 237 468 217.5 484.5 c 128,-1,23
 198 501 198 501 198 537 c 128,-1,24
 198 573 198 573 240.5 573 c 128,-1,13
 283 573 283 573 291 553 c 128,-1,14
EndSplineSet
Validated: 3073
EndChar

StartChar: eth
Encoding: 202 240 149
Width: 458
VWidth: 0
Flags: W
HStem: -5 46<191.701 305.539> 330 50<154.717 253.81> 582 78<148.137 188.589>
VStem: 31 93<118.364 274.248> 342 84<95.4293 247.712>
LayerCount: 2
Fore
SplineSet
152 587 m 1,0,-1
 125 582 l 1,1,2
 113 582 113 582 113 595.5 c 128,-1,3
 113 609 113 609 143.5 634.5 c 128,-1,4
 174 660 174 660 183.5 660 c 128,-1,5
 193 660 193 660 222 615 c 1,6,-1
 249 569 l 1,7,-1
 292 595 l 2,8,9
 335 620 335 620 344 620 c 0,10,11
 349 620 349 620 348.5 609.5 c 128,-1,12
 348 599 348 599 346.5 583.5 c 128,-1,13
 345 568 345 568 338.5 561 c 128,-1,14
 332 554 332 554 305.5 547 c 128,-1,15
 279 540 279 540 279 529.5 c 128,-1,16
 279 519 279 519 352.5 394.5 c 128,-1,17
 426 270 426 270 426 183 c 0,18,19
 426 128 426 128 396 81 c 0,20,21
 339 -5 339 -5 231 -5 c 128,-1,22
 123 -5 123 -5 65 77 c 0,23,24
 31 126 31 126 31 180.5 c 128,-1,25
 31 235 31 235 54.5 278 c 128,-1,26
 78 321 78 321 125.5 350.5 c 128,-1,27
 173 380 173 380 232 380 c 0,28,29
 248 380 248 380 254 383 c 128,-1,30
 260 386 260 386 255 400.5 c 128,-1,31
 250 415 250 415 237 447 c 2,32,-1
 216 499 l 1,33,-1
 184 481 l 1,34,35
 151 460 151 460 134 459 c 0,36,37
 119 459 119 459 119 478 c 0,38,39
 119 486 119 486 128.5 497 c 128,-1,40
 138 508 138 508 153 515.5 c 128,-1,41
 168 523 168 523 178.5 533.5 c 128,-1,42
 189 544 189 544 189 556.5 c 128,-1,43
 189 569 189 569 176 578 c 128,-1,44
 163 587 163 587 152 587 c 1,0,-1
312 264 m 0,45,46
 273 330 273 330 217 330 c 0,47,48
 179 330 179 330 156 309.5 c 128,-1,49
 133 289 133 289 128.5 275 c 128,-1,50
 124 261 124 261 124 208 c 128,-1,51
 124 155 124 155 145 119 c 0,52,53
 189 41 189 41 248 41 c 0,54,55
 319 41 319 41 339 126 c 0,56,57
 342 139 342 139 342 156 c 0,58,59
 342 214 342 214 312 264 c 0,45,46
EndSplineSet
Validated: 3073
EndChar

StartChar: Eth
Encoding: 203 208 150
Width: 555
VWidth: 0
Flags: W
HStem: -7 47<32.1309 62 219.533 322.015> 282 48<41.7064 101 194 252.232> 552 20G<125.75 225.25>
VStem: 101 93<66.7144 281 333 502.518> 407 116<152.629 404.862>
LayerCount: 2
Fore
SplineSet
36 535 m 0,0,1
 31 537 31 537 31 543 c 128,-1,2
 31 549 31 549 34 558 c 128,-1,3
 37 567 37 567 56.5 569.5 c 128,-1,4
 76 572 76 572 175.5 572 c 128,-1,5
 275 572 275 572 330.5 556.5 c 128,-1,6
 386 541 386 541 435.5 495 c 128,-1,7
 485 449 485 449 504 398 c 128,-1,8
 523 347 523 347 523 286 c 0,9,10
 523 170 523 170 473 97.5 c 128,-1,11
 423 25 423 25 343 2 c 0,12,13
 313 -7 313 -7 255 -7 c 0,14,15
 99 -7 99 -7 65.5 -2 c 128,-1,16
 32 3 32 3 32 16.5 c 128,-1,17
 32 30 32 30 62 43 c 2,18,-1
 95 57 l 1,19,-1
 101 281 l 1,20,-1
 68 284 l 2,21,22
 48 286 48 286 41.5 291 c 128,-1,23
 35 296 35 296 35 307 c 128,-1,24
 35 318 35 318 41.5 323 c 128,-1,25
 48 328 48 328 68 330 c 2,26,-1
 101 333 l 1,27,-1
 98 420 l 2,28,29
 96 488 96 488 87.5 503 c 128,-1,30
 79 518 79 518 36 535 c 0,0,1
307 52 m 1,31,32
 407 101 407 101 407 282 c 0,33,34
 407 356 407 356 383 412.5 c 128,-1,35
 359 469 359 469 319.5 492 c 128,-1,36
 280 515 280 515 238 520 c 2,37,-1
 194 525 l 1,38,-1
 194 333 l 1,39,-1
 227 330 l 2,40,41
 244 328 244 328 252.5 323 c 128,-1,42
 261 318 261 318 262.5 304 c 128,-1,43
 264 290 264 290 258.5 286 c 128,-1,44
 253 282 253 282 230 282 c 2,45,-1
 194 282 l 1,46,-1
 194 188 l 2,47,48
 194 129 194 129 198 107 c 128,-1,49
 202 85 202 85 219 62.5 c 128,-1,50
 236 40 236 40 260.5 40 c 128,-1,51
 285 40 285 40 307 52 c 1,31,32
EndSplineSet
Validated: 3073
EndChar

StartChar: quotedbl
Encoding: 2 34 151
Width: 227
VWidth: -558
Flags: W
HStem: 393 181<45.6875 85.1338 138.463 178.396>
VStem: 33 70<401.912 571.215> 45 42<393 461> 125 68<398.631 572.414>
LayerCount: 2
Fore
SplineSet
154 574 m 0,0,1
 193 574 193 574 193 551 c 0,2,3
 193 512 193 512 186.5 467.5 c 128,-1,4
 180 423 180 423 180 422 c 0,5,6
 175 393 175 393 160 393 c 2,7,-1
 156 393 l 2,8,9
 141 393 141 393 138 417 c 2,10,-1
 131 461 l 1,11,12
 125 509 125 509 125 529 c 128,-1,13
 125 549 125 549 127 556 c 0,14,15
 132 574 132 574 154 574 c 0,0,1
87 422 m 0,16,17
 83 393 83 393 68 393 c 2,18,-1
 64 393 l 2,19,20
 49 393 49 393 45 417 c 2,21,-1
 39 461 l 2,22,23
 33 509 33 509 33 529 c 128,-1,24
 33 549 33 549 35 556 c 0,25,26
 40 573 40 573 61 574 c 1,27,28
 97 574 97 574 102 549 c 1,29,30
 103 538 103 538 103 517 c 128,-1,31
 103 496 103 496 93 461 c 1,32,33
 88 423 88 423 87 422 c 0,16,17
EndSplineSet
Validated: 3073
EndChar

StartChar: parenleft
Encoding: 8 40 152
Width: 179
VWidth: 800
Flags: W
VStem: 29 71<140.238 451.117> 55 97<21.5361 119.394>
LayerCount: 2
Fore
SplineSet
96 588 m 1,0,1
 100 600 100 600 125 600 c 1,2,3
 151 598 151 598 151 563.5 c 128,-1,4
 151 529 151 529 129 498.5 c 128,-1,5
 107 468 107 468 105 388 c 1,6,-1
 100 262 l 1,7,8
 100 175 100 175 137 107 c 0,9,10
 152 81 152 81 152 57 c 0,11,12
 152 18 152 18 115 -16 c 1,13,14
 81 -13 81 -13 55 81 c 128,-1,15
 29 175 29 175 29 274 c 0,16,17
 29 432 29 432 96 588 c 1,0,1
EndSplineSet
Validated: 3073
EndChar

StartChar: parenright
Encoding: 9 41 153
Width: 178
VWidth: 801
Flags: W
VStem: 78 69<139.566 468.457>
LayerCount: 2
Fore
SplineSet
54 477 m 1,0,1
 32 512 32 512 32 544 c 128,-1,2
 32 576 32 576 62 604 c 1,3,4
 96 601 96 601 122 513 c 1,5,6
 147 418 147 418 147 323 c 2,7,8
 147 317 l 2,9,10
 147 159 147 159 81 2 c 0,11,12
 76 -12 76 -12 51 -12 c 0,13,14
 26 -11 26 -11 26 23 c 128,-1,15
 26 57 26 57 50 92 c 1,16,17
 78 193 78 193 78 289.5 c 128,-1,18
 78 386 78 386 54 477 c 1,0,1
EndSplineSet
Validated: 3073
EndChar

StartChar: asterisk
Encoding: 10 42 154
Width: 346
VWidth: 825
Flags: W
HStem: 380 52<211.438 315.402> 388 47<29.5955 67.0769>
VStem: 132 75<415.188 531.516> 137 63<415 467.406>
LayerCount: 2
Fore
SplineSet
91 244 m 1,0,1
 69 250 69 250 69 280 c 128,-1,2
 69 310 69 310 111 343 c 1,3,-1
 127 362 l 1,4,-1
 45 388 l 1,5,6
 28 395 28 395 28 414 c 0,7,8
 28 419 28 419 29 426 c 1,9,10
 48 435 48 435 74 435 c 128,-1,11
 100 435 100 435 137 415 c 1,12,-1
 137 427 l 1,13,14
 132 449 132 449 132 468 c 0,15,16
 132 516 132 516 170 549 c 1,17,18
 206 530 206 530 207 488 c 0,19,20
 207 472 207 472 201 452 c 1,21,-1
 200 413 l 1,22,-1
 229 421 l 1,23,24
 255 432 255 432 285 432 c 2,25,-1
 286 432 l 2,26,27
 316 432 316 432 316 409.5 c 128,-1,28
 316 387 316 387 299 380 c 128,-1,29
 282 373 282 373 239 364 c 2,30,-1
 211 358 l 1,31,32
 273 308 273 308 279 269 c 1,33,34
 267 241 267 241 246 241 c 0,35,36
 234 241 234 241 219 250 c 1,37,-1
 167 329 l 1,38,-1
 122 256 l 1,39,40
 111 247 111 247 91 244 c 1,0,1
EndSplineSet
Validated: 3073
EndChar

StartChar: plus
Encoding: 11 43 155
Width: 407
VWidth: 797
Flags: W
HStem: 263 59<29.322 162 245 377.945>
VStem: 151 94<322.109 454.072> 163 88<117.031 263> 163 82<160 263 322 455.757>
LayerCount: 2
Fore
SplineSet
151 418 m 0,0,1
 151 459 151 459 201 459 c 0,2,3
 237 459 237 459 245 435 c 1,4,-1
 244 322 l 1,5,-1
 349 322 l 2,6,7
 379 322 379 322 379 294 c 128,-1,8
 379 266 379 266 349 263 c 1,9,-1
 245 263 l 1,10,-1
 251 160 l 1,11,12
 251 110 251 110 206 110 c 1,13,14
 169 117 169 117 163 142 c 1,15,-1
 163 263 l 1,16,-1
 63 263 l 2,17,18
 29 263 29 263 29 289 c 1,19,20
 28 294 28 294 28 298 c 0,21,22
 28 314 28 314 43 319 c 1,23,-1
 55 322 l 1,24,-1
 162 322 l 1,25,26
 162 329 l 2,27,28
 162 350 162 350 156 380 c 128,-1,29
 150 410 150 410 151 418 c 0,0,1
EndSplineSet
Validated: 3105
EndChar

StartChar: hyphen
Encoding: 13 45 156
Width: 327
VWidth: 801
Flags: W
HStem: 204 59<36.0728 290.945>
VStem: 35 257<205.548 259.448>
LayerCount: 2
Fore
SplineSet
241 263 m 2,0,1
 292 263 292 263 292 235 c 128,-1,2
 292 207 292 207 262 204 c 1,3,-1
 61 204 l 2,4,5
 35 204 35 204 35 231 c 128,-1,6
 35 258 35 258 61 263 c 1,7,-1
 133 262 l 1,8,-1
 241 263 l 2,0,1
EndSplineSet
Validated: 3073
EndChar

StartChar: slash
Encoding: 15 47 157
Width: 224
VWidth: 819
Flags: W
HStem: 562 20G<163.75 179.25>
VStem: 25 173
LayerCount: 2
Fore
SplineSet
87 -9 m 5,0,1
 71 -29 71 -29 55.5 -29 c 132,-1,2
 40 -29 40 -29 25 -7 c 5,3,-1
 137 565 l 5,4,-1
 138 568 l 5,5,6
 156 582 156 582 171.5 582 c 132,-1,7
 187 582 187 582 198 563 c 5,8,-1
 87 -9 l 5,0,1
EndSplineSet
Validated: 3073
EndChar

StartChar: less
Encoding: 28 60 158
Width: 326
VWidth: 641
Flags: W
VStem: 28 271
LayerCount: 2
Fore
SplineSet
111 263 m 1,0,1
 258 144 258 144 299 78 c 1,2,3
 273 43 273 43 232 43 c 0,4,5
 223 43 223 43 213 45 c 1,6,-1
 28 245 l 1,7,-1
 26 249 l 1,8,-1
 120 355 l 2,9,10
 212 458 212 458 239 458 c 1,11,12
 250 461 250 461 263.5 461 c 128,-1,13
 277 461 277 461 291 453 c 1,14,15
 234 375 234 375 111 263 c 1,0,1
EndSplineSet
Validated: 3073
EndChar

StartChar: equal
Encoding: 29 61 159
Width: 422
VWidth: 801
Flags: W
HStem: 186 59<37.114 384.945> 276 58<37.114 385.114>
LayerCount: 2
Fore
SplineSet
356 245 m 2,0,1
 386 245 386 245 386 217 c 128,-1,2
 386 189 386 189 356 186 c 1,3,-1
 63 186 l 2,4,5
 36 186 36 186 36 213 c 128,-1,6
 36 240 36 240 63 245 c 1,7,-1
 356 245 l 2,0,1
356 334 m 2,8,9
 386 334 386 334 386 306 c 0,10,11
 386 279 386 279 356 276 c 1,12,-1
 63 276 l 2,13,14
 36 276 36 276 36 302.5 c 128,-1,15
 36 329 36 329 63 334 c 1,16,-1
 356 334 l 2,8,9
EndSplineSet
Validated: 3073
EndChar

StartChar: greater
Encoding: 30 62 160
Width: 326
VWidth: 639
Flags: W
VStem: 27 271
LayerCount: 2
Fore
SplineSet
204 150 m 1,0,1
 115 42 115 42 82 40 c 0,2,3
 76 39 76 39 61 39 c 128,-1,4
 46 39 46 39 34 48 c 1,5,6
 93 126 93 126 215 237 c 1,7,8
 69 356 69 356 48 388 c 1,9,-1
 27 423 l 1,10,11
 45 458 45 458 91 458 c 0,12,13
 101 458 101 458 113 456 c 1,14,-1
 298 256 l 1,15,-1
 299 252 l 1,16,-1
 298 249 l 1,17,-1
 204 150 l 1,0,1
EndSplineSet
Validated: 3073
EndChar

StartChar: bracketleft
Encoding: 59 91 161
Width: 256
VWidth: 819
Flags: W
HStem: -33 53<113 206.308> 533 59<111.875 218.609>
VStem: 33 72<42.0823 518.818>
LayerCount: 2
Fore
SplineSet
113 533 m 1,0,1
 105 411 105 411 105 283 c 128,-1,2
 105 155 105 155 113 20 c 1,3,-1
 177 20 l 1,4,5
 201 15 201 15 209 -8 c 1,6,7
 209 -33 209 -33 160 -33 c 2,8,-1
 149 -33 l 1,9,-1
 54 -28 l 1,10,11
 33 125 33 125 33 277.5 c 128,-1,12
 33 430 33 430 55 583 c 1,13,-1
 146 591 l 2,14,15
 152 592 152 592 158 592 c 0,16,17
 201 592 201 592 230 559 c 1,18,19
 230 544 230 544 194 533 c 1,20,-1
 113 533 l 1,0,1
EndSplineSet
Validated: 3073
EndChar

StartChar: backslash
Encoding: 60 92 162
Width: 237
VWidth: 819
Flags: W
VStem: 137 74<-19.6562 37.3125>
LayerCount: 2
Fore
SplineSet
211 7 m 1,0,1
 207 -22 207 -22 172 -22 c 128,-1,2
 137 -22 137 -22 137 2 c 1,3,-1
 25 567 l 1,4,-1
 30 581 l 1,5,6
 45 594 45 594 62 594 c 128,-1,7
 79 594 79 594 99 572 c 1,8,-1
 211 7 l 1,0,1
EndSplineSet
Validated: 3073
EndChar

StartChar: bracketright
Encoding: 61 93 163
Width: 254
VWidth: 819
Flags: W
HStem: -25 52<47.9883 142.351> 541 60<33.75 141.7> 541 51<25.6921 139.296>
VStem: 150 70<48.9679 518.51>
LayerCount: 2
Fore
SplineSet
60 541 m 1,0,1
 25 554 25 554 25 566.5 c 128,-1,2
 25 579 25 579 60 592 c 1,3,4
 102 601 102 601 140.5 601 c 128,-1,5
 179 601 179 601 206 584 c 1,6,7
 220 439 220 439 220 286.5 c 128,-1,8
 220 134 220 134 198 -22 c 1,9,10
 137 -25 137 -25 91 -25 c 128,-1,11
 45 -25 45 -25 45 -4 c 1,12,13
 51 23 51 23 78 27 c 1,14,-1
 141 27 l 1,15,16
 150 155 150 155 150 283.5 c 128,-1,17
 150 412 150 412 141 541 c 1,18,-1
 60 541 l 1,0,1
EndSplineSet
Validated: 3073
EndChar

StartChar: braceleft
Encoding: 91 123 164
Width: 233
VWidth: 783
Flags: W
VStem: 108 91<-63.0059 12.4971>
LayerCount: 2
Fore
SplineSet
173 628 m 1,0,1
 207 623 207 623 207 597.5 c 128,-1,2
 207 572 207 572 193.5 565 c 128,-1,3
 180 558 180 558 175 534 c 2,4,-1
 140 365 l 2,5,6
 128 311 128 311 115 292 c 1,7,8
 142 276 142 276 142 161 c 2,9,-1
 142 155 l 2,10,11
 142 40 142 40 172 22 c 1,12,13
 199 -3 199 -3 199 -33 c 0,14,15
 199 -77 199 -77 162 -81 c 1,16,17
 126 -72 126 -72 108 -31 c 1,18,19
 82 209 82 209 25 278 c 1,20,21
 61 355 61 355 116 563 c 1,22,23
 132 628 132 628 173 628 c 1,0,1
EndSplineSet
Validated: 3073
EndChar

StartChar: bar
Encoding: 92 124 165
Width: 159
VWidth: 817
Flags: W
VStem: 37 84<50.6445 668>
LayerCount: 2
Fore
SplineSet
121 668 m 2,0,-1
 121 66 l 2,1,2
 121 46 121 46 79.5 45.5 c 128,-1,3
 38 45 38 45 38 65 c 2,4,-1
 37 668 l 2,5,6
 37 700 37 700 79 698 c 128,-1,7
 121 696 121 696 121 668 c 2,0,-1
EndSplineSet
Validated: 3105
EndChar

StartChar: braceright
Encoding: 93 125 166
Width: 240
VWidth: 783
Flags: W
HStem: 570 79<44.4453 72.626>
VStem: 41 96<570.367 625.423> 97 66<42.4111 257.141>
LayerCount: 2
Fore
SplineSet
196 317 m 1,0,1
 214 315 214 315 214 305 c 0,2,3
 214 299 214 299 200 283 c 128,-1,4
 186 267 186 267 163 216 c 1,5,6
 163 179 l 2,7,8
 163 -21 163 -21 64 -64 c 0,9,10
 63 -64 63 -64 46 -59 c 1,11,12
 25 -44 25 -44 25 -30.5 c 128,-1,13
 25 -17 25 -17 37 -5 c 1,14,15
 97 21 97 21 97 203 c 1,16,17
 100 239 100 239 144 291 c 1,18,19
 91 320 91 320 89 367 c 0,20,21
 83 559 83 559 62 570 c 128,-1,22
 41 581 41 581 41 615 c 128,-1,23
 41 649 41 649 73 649 c 1,24,25
 130 631 130 631 137 582.5 c 128,-1,26
 144 534 144 534 152 485 c 2,27,-1
 171 369 l 2,28,29
 178 324 178 324 196 317 c 1,0,1
EndSplineSet
Validated: 3073
EndChar

StartChar: Euro
Encoding: 204 8364 167
Width: 562
VWidth: 0
Flags: W
HStem: 20 75<322.838 451.813> 232 53<33.6406 116 228 343.019> 312 53<66.25 117 213 376.55> 517 41<285.337 413.504> 566 20G<447.75 459.25>
VStem: 116 99<285 312> 485 37<405.517 444.011>
LayerCount: 2
Fore
SplineSet
439 538 m 1,0,1
 440 548 440 548 439 564.5 c 128,-1,2
 438 581 438 581 440 583.5 c 128,-1,3
 442 586 442 586 453.5 586 c 128,-1,4
 465 586 465 586 473.5 570 c 128,-1,5
 482 554 482 554 500 500.5 c 128,-1,6
 518 447 518 447 522 425.5 c 128,-1,7
 526 404 526 404 510 404 c 0,8,9
 498 404 498 404 485 423 c 1,10,11
 425 495 425 495 398 506 c 128,-1,12
 371 517 371 517 347 517 c 0,13,14
 303 517 303 517 262 478.5 c 128,-1,15
 221 440 221 440 213 365 c 1,16,-1
 362 365 l 2,17,18
 381 365 381 365 381 352 c 0,19,20
 381 347 381 347 380 340 c 0,21,22
 369 315 369 315 340 312 c 1,23,-1
 213 312 l 1,24,-1
 215 285 l 1,25,-1
 329 285 l 2,26,27
 349 285 349 285 349 272 c 0,28,29
 349 267 349 267 346 260 c 0,30,31
 336 234 336 234 308 232 c 1,32,-1
 228 232 l 1,33,34
 245 185 245 185 280 150 c 0,35,36
 335 95 335 95 399 95 c 0,37,38
 444 95 444 95 480 113.5 c 128,-1,39
 516 132 516 132 522 132 c 0,40,41
 534 133 534 133 534.5 115.5 c 128,-1,42
 535 98 535 98 510 76 c 128,-1,43
 485 54 485 54 439.5 37 c 128,-1,44
 394 20 394 20 351 20 c 0,45,46
 281 20 281 20 225.5 58.5 c 128,-1,47
 170 97 170 97 138 168 c 0,48,49
 125 196 125 196 120 232 c 1,50,-1
 44 232 l 2,51,52
 27 232 27 232 27 244 c 0,53,54
 27 249 27 249 30 256 c 0,55,56
 40 280 40 280 65 285 c 1,57,-1
 116 285 l 1,58,-1
 116 294 l 2,59,60
 116 301 116 301 117 312 c 1,61,-1
 76 312 l 2,62,63
 60 312 60 312 60 324 c 0,64,65
 60 329 60 329 63 336 c 0,66,67
 72 361 72 361 98 365 c 1,68,-1
 124 365 l 1,69,70
 139 436 139 436 192.5 489 c 128,-1,71
 246 542 246 542 276.5 550 c 128,-1,72
 307 558 307 558 352.5 558 c 128,-1,73
 398 558 398 558 416.5 550.5 c 128,-1,74
 435 543 435 543 439 538 c 1,0,1
EndSplineSet
Validated: 3105
EndChar

StartChar: section
Encoding: 102 167 168
Width: 320
VWidth: 0
Flags: W
HStem: 13 43<133.181 210.415> 391 21G<229.5 252.5> 482 43<113.558 190.2>
VStem: 29 81<256.002 306.276> 37 68<400.416 470.276> 43 84<65.7972 135.14> 193 87<402.86 472.203> 219 68<67.0832 139.25 225.628 271.031>
LayerCount: 2
Fore
SplineSet
213 217 m 1,0,-1
 213 256 l 1,1,2
 209 268 209 268 134 312 c 1,3,4
 111 295 111 295 110 282 c 1,5,6
 110 259 110 259 189 227 c 2,7,-1
 213 217 l 1,0,-1
92 330 m 1,8,9
 37 359 37 359 37 403 c 0,10,11
 37 463 37 463 89 499 c 0,12,13
 125 525 125 525 169 525 c 128,-1,14
 213 525 213 525 246.5 497 c 128,-1,15
 280 469 280 469 280 440 c 0,16,17
 280 428 280 428 274 415 c 0,18,19
 264 391 264 391 241 391 c 128,-1,20
 218 391 218 391 205.5 402.5 c 128,-1,21
 193 414 193 414 193 429 c 1,22,-1
 196 452 l 1,23,24
 196 463 196 463 186.5 472.5 c 128,-1,25
 177 482 177 482 157 482 c 128,-1,26
 137 482 137 482 121 468.5 c 128,-1,27
 105 455 105 455 105 435 c 128,-1,28
 105 415 105 415 122 401.5 c 128,-1,29
 139 388 139 388 199.5 367.5 c 128,-1,30
 260 347 260 347 269 336 c 0,31,32
 293 306 293 306 292 277 c 0,33,34
 292 229 292 229 232 208 c 1,35,36
 251 198 251 198 269 181 c 128,-1,37
 287 164 287 164 287 131 c 0,38,39
 287 75 287 75 235 39 c 0,40,41
 199 13 199 13 154.5 13 c 128,-1,42
 110 13 110 13 76.5 41 c 128,-1,43
 43 69 43 69 43 98 c 0,44,45
 43 110 43 110 49 123 c 0,46,47
 60 147 60 147 83 147 c 128,-1,48
 106 147 106 147 118.5 135.5 c 128,-1,49
 131 124 131 124 131 109 c 1,50,-1
 127 86 l 1,51,52
 127 75 127 75 137 65.5 c 128,-1,53
 147 56 147 56 167 56 c 128,-1,54
 187 56 187 56 203 69.5 c 128,-1,55
 219 83 219 83 219 103 c 128,-1,56
 219 123 219 123 201.5 136.5 c 128,-1,57
 184 150 184 150 134 167.5 c 128,-1,58
 84 185 84 185 64 200 c 0,59,60
 29 225 29 225 29 257 c 0,61,62
 29 308 29 308 92 330 c 1,8,9
EndSplineSet
Validated: 3105
EndChar

StartChar: uni00B5
Encoding: 116 181 169
Width: 433
VWidth: 0
Flags: W
HStem: -14 59<187.837 288.75> 357 23G<134.5 149.5 361 397>
VStem: 27 140<321.696 356.982> 87 74<-156.047 33 73.7229 309> 324 73<81.9253 297.001>
LayerCount: 2
Fore
SplineSet
167 323 m 2,0,-1
 165 207 l 1,1,2
 165 133 165 133 175 94 c 0,3,4
 188 45 188 45 234 45 c 0,5,6
 254 45 254 45 278.5 59 c 128,-1,7
 303 73 303 73 313.5 103.5 c 128,-1,8
 324 134 324 134 324 208 c 128,-1,9
 324 282 324 282 317 297.5 c 128,-1,10
 310 313 310 313 287 321.5 c 128,-1,11
 264 330 264 330 264 341 c 0,12,13
 264 357 264 357 304.5 363.5 c 128,-1,14
 345 370 345 370 377 377 c 1,15,-1
 397 362 l 25,16,-1
 397 113 l 2,17,18
 397 73 397 73 331 15 c 0,19,20
 297 -14 297 -14 230 -14 c 2,21,-1
 219 -14 l 1,22,23
 191 -13 191 -13 161 33 c 1,24,-1
 161 -152 l 17,25,26
 83 -204 83 -204 60 -204 c 0,27,28
 51 -204 51 -204 51 -195.5 c 128,-1,29
 51 -187 51 -187 59 -170 c 0,30,31
 87 -113 87 -113 87 -75 c 2,32,-1
 86 194 l 1,33,-1
 86 309 l 1,34,-1
 53 320 l 2,35,36
 27 329 27 329 27 339 c 0,37,38
 27 355 27 355 71.5 362.5 c 128,-1,39
 116 370 116 370 121.5 375 c 128,-1,40
 127 380 127 380 142 380 c 128,-1,41
 157 380 157 380 162 370.5 c 128,-1,42
 167 361 167 361 167 323 c 2,0,-1
EndSplineSet
Validated: 3073
EndChar

StartChar: exclamdown
Encoding: 96 161 170
Width: 184
VWidth: 0
Flags: W
HStem: 375 20G<90.5 99.5> 461 120<50.4016 127.953>
VStem: 27 129<-0.402954 165.521> 36 119<488.073 561.496> 81.5 26.5<266.156 394.995>
LayerCount: 2
Fore
SplineSet
117 300 m 1,0,1
 122 205 122 205 139 149 c 128,-1,2
 156 93 156 93 156 55 c 128,-1,3
 156 17 156 17 139.5 -1.5 c 128,-1,4
 123 -20 123 -20 94 -20 c 128,-1,5
 65 -20 65 -20 46 -1 c 128,-1,6
 27 18 27 18 27 50.5 c 128,-1,7
 27 83 27 83 46.5 156.5 c 128,-1,8
 66 230 66 230 71.5 295 c 128,-1,9
 77 360 77 360 81.5 377.5 c 128,-1,10
 86 395 86 395 95 395 c 128,-1,11
 104 395 104 395 108 376 c 128,-1,12
 112 357 112 357 117 300 c 1,0,1
130 485 m 1,13,14
 108 461 108 461 93 461 c 128,-1,15
 78 461 78 461 57 476 c 128,-1,16
 36 491 36 491 36 516 c 128,-1,17
 36 541 36 541 51.5 561 c 128,-1,18
 67 581 67 581 89.5 581 c 128,-1,19
 112 581 112 581 133.5 561.5 c 128,-1,20
 155 542 155 542 155 525 c 128,-1,21
 155 508 155 508 130 485 c 1,13,14
EndSplineSet
Validated: 3073
EndChar

StartChar: questiondown
Encoding: 126 191 171
Width: 373
VWidth: 0
Flags: W
HStem: -10 48<149.891 246.831> 469 121<175.77 256.996>
VStem: 27 100<60.6562 180.219> 157 120<487.77 570.136> 175 92<305.019 401.983> 254 93<56.1979 134.152>
LayerCount: 2
Fore
SplineSet
171 365 m 1,0,1
 171 419 171 419 212 419 c 0,2,3
 236 419 236 419 251.5 402.5 c 128,-1,4
 267 386 267 386 267 363.5 c 128,-1,5
 267 341 267 341 241.5 298.5 c 128,-1,6
 216 256 216 256 195 243.5 c 128,-1,7
 174 231 174 231 150.5 188 c 128,-1,8
 127 145 127 145 127 119 c 0,9,10
 127 70 127 70 165 48 c 0,11,12
 182 38 182 38 201 38 c 128,-1,13
 220 38 220 38 237 51 c 128,-1,14
 254 64 254 64 254 69.5 c 128,-1,15
 254 75 254 75 240.5 93.5 c 128,-1,16
 227 112 227 112 227 126.5 c 128,-1,17
 227 141 227 141 248.5 160 c 128,-1,18
 270 179 270 179 289.5 179 c 128,-1,19
 309 179 309 179 328 157 c 128,-1,20
 347 135 347 135 347 108 c 128,-1,21
 347 81 347 81 318 47 c 0,22,23
 269 -10 269 -10 175 -10 c 0,24,25
 101 -10 101 -10 59 34 c 0,26,27
 27 68 27 68 27 110 c 128,-1,28
 27 152 27 152 45 175.5 c 128,-1,29
 63 199 63 199 146 273 c 0,30,31
 168 293 168 293 171.5 301.5 c 128,-1,32
 175 310 175 310 175 320 c 2,33,-1
 171 365 l 1,0,1
257 489 m 128,-1,35
 237 469 237 469 217 469 c 128,-1,36
 197 469 197 469 177 489.5 c 128,-1,37
 157 510 157 510 157 532 c 128,-1,38
 157 554 157 554 174.5 572 c 128,-1,39
 192 590 192 590 213.5 590 c 128,-1,40
 235 590 235 590 256 569.5 c 128,-1,41
 277 549 277 549 277 529 c 128,-1,34
 277 509 277 509 257 489 c 128,-1,35
EndSplineSet
Validated: 3073
EndChar

StartChar: degree
Encoding: 111 176 172
Width: 201
VWidth: 0
Flags: W
HStem: 400 29<81.252 118.578> 499 30<77.6205 114.408>
VStem: 33 41<430.804 495.987>
LayerCount: 2
Fore
SplineSet
138 408 m 0,0,1
 125 400 125 400 97.5 400 c 128,-1,2
 70 400 70 400 51.5 418.5 c 128,-1,3
 33 437 33 437 33 463.5 c 128,-1,4
 33 490 33 490 52.5 509.5 c 128,-1,5
 72 529 72 529 98 529 c 128,-1,6
 124 529 124 529 143 510 c 1,7,8
 162 490 162 490 164 475 c 128,-1,9
 166 460 166 460 167 452 c 0,10,11
 166 444 166 444 158 430 c 128,-1,12
 150 416 150 416 138 408 c 0,0,1
77 454 m 0,13,14
 84 429 84 429 104 429 c 0,15,16
 109 429 109 429 116 433 c 128,-1,17
 123 437 123 437 123 456.5 c 128,-1,18
 123 476 123 476 111.5 487.5 c 128,-1,19
 100 499 100 499 93 499 c 128,-1,20
 86 499 86 499 80 493.5 c 128,-1,21
 74 488 74 488 74 476.5 c 128,-1,22
 74 465 74 465 77 454 c 0,13,14
EndSplineSet
Validated: 3073
EndChar

StartChar: Oslash
Encoding: 151 216 175
Width: 672
VWidth: 0
Flags: W
HStem: -17 56<282.474 435.691> 540 58.5<230.006 390.324>
VStem: 32 106<223.486 409.834> 530 111<180.993 368.563>
LayerCount: 2
Fore
SplineSet
548 618.5 m 128,-1,1
 566 609 566 609 566 591.5 c 128,-1,2
 566 574 566 574 552 555 c 128,-1,3
 538 536 538 536 541 527 c 128,-1,4
 544 518 544 518 571 488 c 128,-1,5
 598 458 598 458 619.5 409 c 128,-1,6
 641 360 641 360 641 293 c 128,-1,7
 641 226 641 226 618 178 c 0,8,9
 571 81 571 81 511 39 c 0,10,11
 430 -17 430 -17 348 -17 c 0,12,13
 307 -17 307 -17 275.5 -8.5 c 128,-1,14
 244 0 244 0 226.5 4 c 128,-1,15
 209 8 209 8 199.5 4 c 128,-1,16
 190 0 190 0 179 -17 c 1,17,-1
 166 -40 l 2,18,19
 161 -49 161 -49 154.5 -49 c 128,-1,20
 148 -49 148 -49 127.5 -38 c 128,-1,21
 107 -27 107 -27 107 -10.5 c 128,-1,22
 107 6 107 6 117 24 c 128,-1,23
 127 42 127 42 127.5 52 c 128,-1,24
 128 62 128 62 95 99 c 0,25,26
 32 171 32 171 32 290 c 2,27,-1
 32 317 l 2,28,29
 32 366 32 366 59 422 c 0,30,31
 113 533 113 533 227 576 c 1,32,33
 281 598 281 598 339 598.5 c 128,-1,34
 397 599 397 599 458 576 c 0,35,36
 460 575 460 575 463 574 c 0,37,38
 476 574 476 574 492.5 601 c 128,-1,39
 509 628 509 628 519.5 628 c 128,-1,0
 530 628 530 628 548 618.5 c 128,-1,1
195 150 m 0,40,41
 200 150 200 150 308.5 318.5 c 128,-1,42
 417 487 417 487 417 495.5 c 128,-1,43
 417 504 417 504 384.5 522 c 128,-1,44
 352 540 352 540 306 540 c 128,-1,45
 260 540 260 540 230 522 c 0,46,47
 138 467 138 467 138 349 c 0,48,49
 138 288 138 288 161 219 c 128,-1,50
 184 150 184 150 195 150 c 0,40,41
512 137 m 0,51,52
 530 175 530 175 530 243.5 c 128,-1,53
 530 312 530 312 507.5 371 c 128,-1,54
 485 430 485 430 478 430 c 128,-1,55
 471 430 471 430 362 261.5 c 128,-1,56
 253 93 253 93 253 84 c 0,57,58
 253 78 253 78 286.5 58.5 c 128,-1,59
 320 39 320 39 351 39 c 128,-1,60
 382 39 382 39 412 50 c 0,61,62
 481 75 481 75 512 137 c 0,51,52
EndSplineSet
Validated: 3105
EndChar

StartChar: oslash
Encoding: 183 248 176
Width: 464
VWidth: 0
Flags: W
HStem: -16 48<189.661 308.578> 322 49<155.352 273.263>
VStem: 32 92<109.172 270.709> 341 91<88.7778 240.435>
LayerCount: 2
Fore
SplineSet
146 108 m 1,0,1
 176 153 176 153 223.5 214.5 c 128,-1,2
 271 276 271 276 271 286 c 1,3,-1
 277 297 l 1,4,5
 248 322 248 322 214 322 c 128,-1,6
 180 322 180 322 156.5 301.5 c 128,-1,7
 133 281 133 281 128.5 267 c 128,-1,8
 124 253 124 253 124 202 c 128,-1,9
 124 151 124 151 146 108 c 1,0,1
98 33 m 1,10,11
 32 91 32 91 32 191 c 0,12,13
 32 249 32 249 66 293.5 c 128,-1,14
 100 338 100 338 149.5 354.5 c 128,-1,15
 199 371 199 371 240 371 c 128,-1,16
 281 371 281 371 314 356 c 1,17,-1
 333 384 l 2,18,19
 346 402 346 402 357.5 402 c 128,-1,20
 369 402 369 402 378.5 389 c 128,-1,21
 388 376 388 376 387.5 368.5 c 128,-1,22
 387 361 387 361 364 325 c 1,23,24
 432 269 432 269 432 180 c 0,25,26
 432 71 432 71 336 15 c 0,27,28
 282 -16 282 -16 236 -16 c 128,-1,29
 190 -16 190 -16 152 0 c 1,30,-1
 133 -28 l 2,31,32
 119 -48 119 -48 110 -48 c 128,-1,33
 101 -48 101 -48 88 -35.5 c 128,-1,34
 75 -23 75 -23 75 -15 c 128,-1,35
 75 -7 75 -7 98 33 c 1,10,11
316 247 m 1,36,-1
 252 149 l 1,37,38
 249 142 249 142 189 54 c 1,39,40
 219 32 219 32 253 32 c 128,-1,41
 287 32 287 32 312.5 57 c 128,-1,42
 338 82 338 82 340 111 c 0,43,44
 341 122 341 122 341 133 c 0,45,46
 341 201 341 201 316 247 c 1,36,-1
EndSplineSet
Validated: 3073
EndChar

StartChar: divide
Encoding: 182 247 177
Width: 320
VWidth: 801
Flags: W
HStem: 73 91<118.725 183.048> 204 59<32.0728 286.945> 306 91<118.725 183.048>
VStem: 110 88<83.3169 156.147 316.317 389.147>
LayerCount: 2
Fore
SplineSet
114 105 m 0,0,1
 110 116 110 116 110 127 c 128,-1,2
 110 138 110 138 121 151 c 128,-1,3
 132 164 132 164 145.5 164 c 128,-1,4
 159 164 159 164 168 160 c 0,5,6
 198 149 198 149 198 121 c 128,-1,7
 198 93 198 93 183.5 83 c 128,-1,8
 169 73 169 73 160 73 c 0,9,10
 125 73 125 73 114 105 c 0,0,1
114 338 m 0,11,12
 110 349 110 349 110 360 c 128,-1,13
 110 371 110 371 121 384 c 128,-1,14
 132 397 132 397 145.5 397 c 128,-1,15
 159 397 159 397 168 393 c 0,16,17
 198 382 198 382 198 354 c 128,-1,18
 198 326 198 326 183.5 316 c 128,-1,19
 169 306 169 306 160 306 c 0,20,21
 125 306 125 306 114 338 c 0,11,12
237 263 m 2,22,23
 288 263 288 263 288 235 c 128,-1,24
 288 207 288 207 258 204 c 1,25,-1
 57 204 l 2,26,27
 31 204 31 204 31 231 c 128,-1,28
 31 258 31 258 57 263 c 1,29,-1
 129 262 l 1,30,-1
 237 263 l 2,22,23
EndSplineSet
Validated: 3073
EndChar

StartChar: thorn
Encoding: 205 254 178
Width: 455
VWidth: 0
Flags: W
HStem: -185 21G<58.25 156.75> -18 49<178.172 284.889> 310 60<171.836 290.011> 631 20G<165 179>
VStem: 62 82<-121.491 9 70.0444 264.099 333.024 530.102> 344 79<90.6511 239.566>
LayerCount: 2
Fore
SplineSet
245 370 m 1,0,-1
 271 369 l 1,1,2
 315 369 315 369 354 341 c 0,3,4
 423 292 423 292 423 183 c 0,5,6
 424 99 424 99 372 42 c 0,7,8
 352 20 352 20 311.5 1 c 128,-1,9
 271 -18 271 -18 246 -18 c 2,10,-1
 232 -18 l 2,11,12
 219 -18 219 -18 182 -5 c 2,13,-1
 144 9 l 1,14,-1
 144 -53 l 2,15,16
 144 -106 144 -106 151.5 -122 c 128,-1,17
 159 -138 159 -138 188 -148 c 1,18,19
 199 -153 199 -153 206 -160 c 128,-1,20
 213 -167 213 -167 211 -172 c 0,21,22
 206 -185 206 -185 107.5 -185 c 128,-1,23
 9 -185 9 -185 9 -172 c 128,-1,24
 9 -159 9 -159 34 -146 c 2,25,-1
 59 -133 l 1,26,-1
 62 199 l 1,27,-1
 64 531 l 1,28,-1
 39 531 l 2,29,30
 14 531 14 531 14 550.5 c 128,-1,31
 14 570 14 570 86 610.5 c 128,-1,32
 158 651 158 651 172 651 c 128,-1,33
 186 651 186 651 183.5 633 c 128,-1,34
 181 615 181 615 166 596 c 128,-1,35
 151 577 151 577 147.5 551.5 c 128,-1,36
 144 526 144 526 144 429.5 c 128,-1,37
 144 333 144 333 152 333 c 1,38,39
 179 370 179 370 245 370 c 1,0,-1
324 238 m 128,-1,41
 304 280 304 280 282.5 295 c 128,-1,42
 261 310 261 310 234.5 310 c 128,-1,43
 208 310 208 310 180 293.5 c 128,-1,44
 152 277 152 277 148 264.5 c 128,-1,45
 144 252 144 252 144 196 c 0,46,47
 144 68 144 68 192 42 c 0,48,49
 212 31 212 31 239 31 c 128,-1,50
 266 31 266 31 285.5 41.5 c 128,-1,51
 305 52 305 52 324.5 94 c 128,-1,52
 344 136 344 136 344 166 c 128,-1,40
 344 196 344 196 324 238 c 128,-1,41
EndSplineSet
Validated: 3105
EndChar

StartChar: Thorn
Encoding: 206 222 179
Width: 465
VWidth: 0
Flags: W
HStem: -5 50<33.5819 80.3264 193.314 256.363> 404 50<187.136 306.333> 524.5 46<31.7656 81.4188>
VStem: 91 92<71 404 457.097 514.289> 348 86<224.797 362.662>
LayerCount: 2
Fore
SplineSet
93 573 m 0,0,1
 262 573 262 573 262 552 c 0,2,3
 262 543 262 543 233.5 530.5 c 128,-1,4
 205 518 205 518 194 504 c 128,-1,5
 183 490 183 490 183 475 c 128,-1,6
 183 460 183 460 187 457 c 128,-1,7
 191 454 191 454 242 454 c 128,-1,8
 293 454 293 454 329.5 440.5 c 128,-1,9
 366 427 366 427 400 387.5 c 128,-1,10
 434 348 434 348 434 293 c 128,-1,11
 434 238 434 238 402 196 c 0,12,13
 354 133 354 133 285 133 c 0,14,15
 266 133 266 133 239 139.5 c 128,-1,16
 212 146 212 146 212 156.5 c 128,-1,17
 212 167 212 167 257.5 183 c 128,-1,18
 303 199 303 199 319 216 c 0,19,20
 348 245 348 245 348 298 c 128,-1,21
 348 351 348 351 305 384 c 0,22,23
 280 404 280 404 232 404 c 2,24,-1
 183 404 l 1,25,-1
 183 284 l 2,26,27
 183 85 183 85 193 65 c 128,-1,28
 203 45 203 45 220.5 45 c 128,-1,29
 238 45 238 45 251 30.5 c 128,-1,30
 264 16 264 16 257.5 5.5 c 128,-1,31
 251 -5 251 -5 161.5 -5 c 128,-1,32
 72 -5 72 -5 54 -2.5 c 128,-1,33
 36 0 36 0 33.5 6.5 c 128,-1,34
 31 13 31 13 31 19 c 128,-1,35
 31 25 31 25 40.5 34 c 128,-1,36
 50 43 50 43 62.5 45 c 128,-1,37
 75 47 75 47 80.5 51.5 c 128,-1,38
 86 56 86 56 87 71 c 2,39,-1
 89 96 l 2,40,41
 91 119 91 119 91 226 c 2,42,-1
 91 360 l 2,43,44
 91 489 91 489 87.5 499.5 c 128,-1,45
 84 510 84 510 81.5 516 c 128,-1,46
 79 522 79 522 64 524.5 c 128,-1,47
 49 527 49 527 40 535.5 c 128,-1,48
 31 544 31 544 31 550 c 0,49,50
 31 568 31 568 47 570.5 c 128,-1,51
 63 573 63 573 93 573 c 0,0,1
EndSplineSet
Validated: 3073
EndChar

StartChar: plusminus
Encoding: 112 177 180
Width: 414
VWidth: 829
Flags: W
HStem: 186 59<32.2441 380.311> 440 59<33.0527 166 248 381.268>
VStem: 154 95<499.814 631.155> 166 87<293.939 440 499 594.744>
LayerCount: 2
Fore
SplineSet
204 636 m 0,0,1
 240 636 240 636 249 613 c 1,2,-1
 247 499 l 1,3,-1
 352 500 l 2,4,5
 382 500 382 500 382 470 c 128,-1,6
 382 440 382 440 352 440 c 2,7,-1
 248 440 l 1,8,-1
 253 337 l 2,9,10
 253 334 253 334 253 331 c 0,11,12
 253 287 253 287 209 287 c 1,13,14
 172 294 172 294 166 319 c 1,15,-1
 167 377 l 2,16,17
 167 395 167 395 166 440 c 1,18,-1
 67 440 l 2,19,20
 32 440 32 440 32 467 c 0,21,22
 33 500 33 500 58 500 c 10,23,-1
 166 499 l 1,24,25
 166 525 166 525 160 556 c 128,-1,26
 154 587 154 587 154 595 c 0,27,28
 154 636 154 636 204 636 c 0,0,1
352 245 m 2,29,30
 382 245 382 245 381.5 217 c 128,-1,31
 381 189 381 189 352 186 c 1,32,-1
 57 186 l 2,33,34
 31 186 31 186 31 213 c 128,-1,35
 31 240 31 240 58 245 c 1,36,-1
 352 245 l 2,29,30
EndSplineSet
Validated: 3105
EndChar

StartChar: underscore
Encoding: 63 95 181
Width: 329
VWidth: 801
Flags: W
HStem: -67 59<36.0728 290.945>
VStem: 35 257<-65.4521 -11.5522>
LayerCount: 2
Fore
SplineSet
241 -8 m 2,0,1
 292 -8 292 -8 292 -36 c 128,-1,2
 292 -64 292 -64 262 -67 c 1,3,-1
 61 -67 l 2,4,5
 35 -67 35 -67 35 -40 c 128,-1,6
 35 -13 35 -13 61 -8 c 1,7,-1
 133 -9 l 1,8,-1
 241 -8 l 2,0,1
EndSplineSet
Validated: 3073
EndChar

StartChar: longs
Encoding: 207 383 182
Width: 279
VWidth: 0
Flags: W
HStem: -6 21G<91.5 225> 321 40<30.4905 105> 600 50<196.139 264.25>
VStem: 98 90<52.0339 551.5> 105 80<122 321 361 572.152>
LayerCount: 2
Fore
SplineSet
30 336 m 0,0,1
 30 361 30 361 71 361 c 2,2,-1
 105 361 l 1,3,-1
 105 450 l 2,4,5
 105 525 105 525 121 561 c 128,-1,6
 137 597 137 597 185 629 c 0,7,8
 215 649 215 649 245 650 c 1,9,10
 314 650 314 650 344 617 c 0,11,12
 356 604 356 604 356 590 c 128,-1,13
 356 576 356 576 344 564 c 128,-1,14
 332 552 332 552 314 552 c 128,-1,15
 296 552 296 552 267.5 576 c 128,-1,16
 239 600 239 600 227.5 600 c 128,-1,17
 216 600 216 600 203.5 588 c 128,-1,18
 191 576 191 576 188 551.5 c 128,-1,19
 185 527 185 527 185 465 c 2,20,-1
 185 320 l 1,21,-1
 187 153 l 1,22,-1
 189 122 l 2,23,24
 192 86 192 86 193 81.5 c 128,-1,25
 194 77 194 77 194.5 65 c 128,-1,26
 195 53 195 53 198 52 c 128,-1,27
 201 51 201 51 203.5 49.5 c 128,-1,28
 206 48 206 48 221.5 39.5 c 128,-1,29
 237 31 237 31 243 19.5 c 128,-1,30
 249 8 249 8 249 4 c 0,31,32
 249 -5 249 -5 228 -5 c 2,33,-1
 225 -5 l 1,34,-1
 142 -6 l 1,35,-1
 124 -6 l 2,36,37
 59 -6 59 -6 55 -3.5 c 128,-1,38
 51 -1 51 -1 56.5 13.5 c 128,-1,39
 62 28 62 28 78 44 c 128,-1,40
 94 60 94 60 98 94 c 128,-1,41
 102 128 102 128 103 201 c 2,42,-1
 106 321 l 1,43,-1
 72 321 l 2,44,45
 43 321 43 321 36.5 325.5 c 128,-1,46
 30 330 30 330 30 336 c 0,0,1
EndSplineSet
Validated: 3073
EndChar

StartChar: numbersign
Encoding: 3 35 183
Width: 452
Flags: W
HStem: 135 58<28.8345 107 190 243 321 409.097> 248 62<46.0703 131.374> 254 58<87.78 132 215 269 347 422.438>
VStem: 300 68<370.737 420.406>
LayerCount: 2
Fore
SplineSet
347 312 m 1,0,1
 366 315 366 315 382 317 c 1,2,3
 424 317 424 317 424 287 c 0,4,5
 423 256 423 256 394 255 c 2,6,-1
 335 254 l 1,7,-1
 321 193 l 1,8,-1
 373 193 l 1,9,10
 410 192 410 192 410 164.5 c 128,-1,11
 410 137 410 137 374 136 c 2,12,-1
 308 135 l 1,13,-1
 291 48 l 1,14,15
 292 21 292 21 274 21 c 0,16,17
 270 21 270 21 264 23 c 1,18,19
 228 25 228 25 229 67 c 1,20,-1
 243 135 l 1,21,-1
 178 135 l 1,22,23
 164 70 164 70 158.5 47.5 c 128,-1,24
 153 25 153 25 126 25 c 0,25,26
 92 25 92 25 92 61 c 1,27,-1
 107 133 l 1,28,-1
 53 132 l 2,29,30
 27 132 27 132 27 159.5 c 128,-1,31
 27 187 27 187 58 190 c 128,-1,32
 89 193 89 193 119 194 c 1,33,-1
 132 251 l 1,34,35
 112 248 112 248 87 248 c 128,-1,36
 62 248 62 248 45 262 c 1,37,38
 44 268 44 268 44 274 c 0,39,40
 44 308 44 308 81.5 310 c 128,-1,41
 119 312 119 312 144 312 c 1,42,43
 153 379 153 379 179 432 c 1,44,-1
 194 431 l 2,45,46
 236 428 236 428 236 397 c 1,47,48
 228 381 228 381 215 312 c 1,49,-1
 281 312 l 1,50,-1
 300 405 l 1,51,52
 316 423 316 423 333 423 c 128,-1,53
 350 423 350 423 368 406 c 1,54,55
 367 383 367 383 347 312 c 1,0,1
269 254 m 1,56,-1
 203 254 l 1,57,-1
 191 196 l 1,58,-1
 190 193 l 1,59,-1
 255 193 l 1,60,-1
 269 254 l 1,56,-1
EndSplineSet
Validated: 3105
EndChar

StartChar: ampersand
Encoding: 6 38 184
Width: 603
VWidth: 0
Flags: W
HStem: -19 89<462.834 548.644> -9 74<167.528 313.16> 278 81<325.538 353.748> 417 64<475.357 509> 531 41<177.447 257.021>
VStem: 27 80<115.188 243.199> 103 66<403.832 517.897> 265 58<436.555 523.271> 420 50<176.189 302.204> 472 102<417.284 466.555>
LayerCount: 2
Fore
SplineSet
225 350 m 1,0,1
 237 331 237 331 307.5 258.5 c 128,-1,2
 378 186 378 186 392 164 c 1,3,4
 420 212 420 212 420 258 c 0,5,6
 420 273 420 273 413 287.5 c 128,-1,7
 406 302 406 302 392.5 303.5 c 128,-1,8
 379 305 379 305 370 294 c 128,-1,9
 361 283 361 283 354 278 c 0,10,11
 346 272 346 272 330 278 c 0,12,13
 309 286 309 286 309 311 c 1,14,15
 308 327 308 327 325 343 c 128,-1,16
 342 359 342 359 387 359 c 0,17,18
 400 359 400 359 416 358 c 2,19,-1
 434 356 l 1,20,-1
 485 355 l 1,21,22
 508 358 508 358 520.5 369.5 c 128,-1,23
 533 381 533 381 528.5 396 c 128,-1,24
 524 411 524 411 509 413 c 2,25,-1
 487 417 l 1,26,27
 472 426 472 426 472 445.5 c 128,-1,28
 472 465 472 465 494 476 c 0,29,30
 503 481 503 481 515.5 481 c 128,-1,31
 528 481 528 481 544 472 c 0,32,33
 572 457 572 457 574 423 c 0,34,35
 574 419 574 419 574 415 c 0,36,37
 574 369 574 369 533 337 c 1,38,39
 505 317 505 317 467 311 c 1,40,41
 470 289 470 289 470 270 c 0,42,43
 470 190 470 190 429 114 c 1,44,45
 461 70 461 70 498 70 c 0,46,47
 509 70 509 70 523.5 75 c 128,-1,48
 538 80 538 80 547 80 c 0,49,50
 568 80 568 80 568 59 c 0,51,52
 568 42 568 42 555 11.5 c 128,-1,53
 542 -19 542 -19 514 -19 c 128,-1,54
 486 -19 486 -19 438 22 c 1,55,-1
 384 66 l 1,56,57
 315 -9 315 -9 218 -9 c 0,58,59
 60 -9 60 -9 32 119 c 0,60,61
 27 143 27 143 27 164 c 0,62,63
 27 253 27 253 133 334 c 1,64,65
 103 391 103 391 103 433.5 c 128,-1,66
 103 476 103 476 118 506 c 0,67,68
 150 572 150 572 228 572 c 0,69,70
 276 572 276 572 299.5 548.5 c 128,-1,71
 323 525 323 525 323 491 c 1,72,73
 322 484 322 484 322 477 c 0,74,75
 316 434 316 434 294 408 c 128,-1,76
 272 382 272 382 225 350 c 1,0,1
198 391 m 1,77,78
 265 447 265 447 265 485 c 0,79,80
 265 505 265 505 250.5 518 c 128,-1,81
 236 531 236 531 226 531 c 0,82,83
 169 531 169 531 169 479 c 0,84,85
 169 436 169 436 198 391 c 1,77,78
108 212 m 0,86,87
 107 200 107 200 107 189 c 0,88,89
 107 126 107 126 147 98 c 0,90,91
 194 66 194 66 252 65 c 1,92,-1
 255 65 l 2,93,94
 311 65 311 65 346 102 c 1,95,96
 318 125 318 125 247.5 195.5 c 128,-1,97
 177 266 177 266 158 291 c 1,98,99
 113 258 113 258 108 212 c 0,86,87
EndSplineSet
Validated: 3105
EndChar

StartChar: ellipsis
Encoding: 208 8230 185
Width: 440
VWidth: 0
Flags: W
HStem: -3 91<45.5378 109.156 184.538 248.64 325.538 389.671>
VStem: 36.0771 87.9999<6.80151 81.6802> 175.077 88<6.80151 80.8472> 316.077 88<6.80151 81.6802>
LayerCount: 2
Fore
SplineSet
41.0771 28 m 1,0,1
 36.0771 39 36.0771 39 36.0771 50 c 0,2,3
 35.0771 60 35.0771 60 47.0771 74 c 128,-1,4
 59.0771 88 59.0771 88 72.0771 88 c 128,-1,5
 85.0771 88 85.0771 88 95.0771 85 c 0,6,7
 125.077 73 125.077 73 124.077 44.5 c 128,-1,8
 123.077 16 123.077 16 109.577 6.5 c 128,-1,9
 96.0771 -3 96.0771 -3 86.0771 -3 c 0,10,11
 52.0771 -3 52.0771 -3 41.0771 28 c 1,0,1
321.077 28 m 1,12,13
 316.077 39 316.077 39 316.077 50 c 0,14,15
 315.077 60 315.077 60 327.077 74 c 128,-1,16
 339.077 88 339.077 88 352.077 88 c 128,-1,17
 365.077 88 365.077 88 375.077 85 c 0,18,19
 405.077 73 405.077 73 404.077 44.5 c 128,-1,20
 403.077 16 403.077 16 390.077 6.5 c 128,-1,21
 377.077 -3 377.077 -3 366.077 -3 c 0,22,23
 332.077 -3 332.077 -3 321.077 28 c 1,12,13
180.077 28 m 1,24,25
 175.077 39 175.077 39 175.077 50 c 0,26,27
 175.077 60 175.077 60 187.077 74 c 128,-1,28
 199.077 88 199.077 88 211.077 88 c 128,-1,29
 223.077 88 223.077 88 233.077 85 c 0,30,31
 263.077 73 263.077 73 263.077 44.5 c 128,-1,32
 263.077 16 263.077 16 249.077 6.5 c 128,-1,33
 235.077 -3 235.077 -3 225.077 -3 c 0,34,35
 191.077 -3 191.077 -3 180.077 28 c 1,24,25
EndSplineSet
Validated: 3105
Ligature2: "standard ligatures" period period period
EndChar

StartChar: periodcentered
Encoding: 118 183 186
Width: 157
VWidth: 0
Flags: W
HStem: 230 91<43.5378 107.156>
VStem: 34.0771 87.9999<239.802 314.688>
LayerCount: 2
Fore
SplineSet
39.0771 261 m 1,0,1
 34.0771 272 34.0771 272 34.0771 283 c 0,2,3
 33.0771 294 33.0771 294 45.0771 308 c 128,-1,4
 57.0771 322 57.0771 322 70.0771 321 c 0,5,6
 83.0771 321 83.0771 321 93.0771 318 c 0,7,8
 123.077 306 123.077 306 122.077 277.5 c 128,-1,9
 121.077 249 121.077 249 107.577 239.5 c 128,-1,10
 94.0771 230 94.0771 230 84.0771 230 c 0,11,12
 50.0771 230 50.0771 230 39.0771 261 c 1,0,1
EndSplineSet
Validated: 3105
EndChar

StartChar: quotesingle
Encoding: 7 39 187
Width: 137
VWidth: -558
Flags: W
HStem: 393 181<45.6875 85.1338>
VStem: 33 70<401.912 571.215> 45 42<393 461>
LayerCount: 2
Fore
SplineSet
87 422 m 0,0,1
 83 393 83 393 68 393 c 2,2,3
 64 393 l 2,4,5
 49 393 49 393 45 417 c 2,6,-1
 39 461 l 2,7,8
 33 509 33 509 33 529 c 128,-1,9
 33 549 33 549 35 556 c 0,10,11
 40 573 40 573 61 574 c 1,12,13
 97 574 97 574 102 549 c 1,14,15
 103 538 103 538 103 517 c 128,-1,16
 103 496 103 496 93 461 c 1,17,18
 88 423 88 423 87 422 c 0,0,1
EndSplineSet
Validated: 3073
EndChar

StartChar: registered
Encoding: 109 174 188
Width: 425
VWidth: 0
Flags: W
HStem: 205 19<191.634 264.751> 303.5 22.5<198.791 221.559> 538 20<153.906 236.081>
VStem: 30 54<316.775 474.867> 161 38<327 460> 235 38<394.297 453.623> 341 53<292.003 442.713>
LayerCount: 2
Fore
SplineSet
137 543 m 128,-1,1
 182 558 182 558 220 558 c 0,2,3
 225 558 225 558 249 556.5 c 128,-1,4
 273 555 273 555 307.5 533.5 c 128,-1,5
 342 512 342 512 364.5 481 c 128,-1,6
 387 450 387 450 390.5 423 c 128,-1,7
 394 396 394 396 394 374 c 128,-1,8
 394 352 394 352 380.5 310 c 128,-1,9
 367 268 367 268 312.5 236.5 c 128,-1,10
 258 205 258 205 211 205 c 0,11,12
 201 205 201 205 168 209 c 128,-1,13
 135 213 135 213 96 245 c 0,14,15
 30 298 30 298 30 394 c 0,16,17
 30 400 30 400 31 425 c 128,-1,18
 32 450 32 450 62 489 c 128,-1,0
 92 528 92 528 137 543 c 128,-1,1
265 511 m 0,19,20
 230 538 230 538 190 538 c 128,-1,21
 150 538 150 538 122.5 516 c 128,-1,22
 95 494 95 494 89.5 479 c 128,-1,23
 84 464 84 464 84 442 c 2,24,-1
 84 417 l 1,25,26
 85 332 85 332 130 278 c 128,-1,27
 175 224 175 224 245 224 c 0,28,29
 277 224 277 224 307.5 251 c 128,-1,30
 338 278 338 278 340 309 c 0,31,32
 341 319 341 319 341 333 c 0,33,34
 341 452 341 452 265 511 c 0,19,20
198 347 m 2,35,36
 198 326 198 326 208 326 c 0,37,38
 213 326 213 326 217.5 321.5 c 128,-1,39
 222 317 222 317 222 311.5 c 128,-1,40
 222 306 222 306 217 303.5 c 128,-1,41
 212 301 212 301 182.5 301 c 128,-1,42
 153 301 153 301 148 304.5 c 128,-1,43
 143 308 143 308 143 312 c 0,44,45
 143 324 143 324 159 327 c 1,46,-1
 160 337 l 2,47,48
 161 344 161 344 161 400 c 128,-1,49
 161 456 161 456 159 460 c 1,50,51
 143 462 143 462 143 474 c 0,52,53
 143 477 143 477 146.5 481.5 c 128,-1,54
 150 486 150 486 182 486 c 2,55,-1
 184 486 l 1,56,57
 223 485 223 485 235 481 c 0,58,59
 273 466 273 466 273 426.5 c 128,-1,60
 273 387 273 387 235 373 c 1,61,-1
 258 349 l 2,62,63
 274 331 274 331 286.5 326 c 128,-1,64
 299 321 299 321 299 313.5 c 128,-1,65
 299 306 299 306 290 305 c 0,66,67
 283 304 283 304 267 303 c 2,68,-1
 237 303 l 1,69,-1
 234 317 l 2,70,71
 233 324 233 324 217 346 c 128,-1,72
 201 368 201 368 200 376 c 1,73,-1
 200 377 l 2,74,75
 200 385 200 385 217.5 395 c 128,-1,76
 235 405 235 405 235 423.5 c 128,-1,77
 235 442 235 442 222.5 450 c 128,-1,78
 210 458 210 458 199 460 c 1,79,-1
 199 376 l 1,80,-1
 198 347 l 2,35,36
EndSplineSet
Validated: 3073
EndChar

StartChar: copyright
Encoding: 104 169 189
Width: 425
VWidth: 0
Flags: W
HStem: 205 19<191.634 264.751> 283 48<232.53 275.916> 449 24<192.315 242.717> 538 20<153.906 236.081>
VStem: 30 54<316.775 474.867> 136 42<336.171 435.62> 243 38<470 478.049> 243 20.5<470.292 482.967> 341 53<292.003 442.713>
LayerCount: 2
Fore
SplineSet
137 543 m 128,-1,1
 182 558 182 558 220 558 c 0,2,3
 225 558 225 558 249 556.5 c 128,-1,4
 273 555 273 555 307.5 533.5 c 128,-1,5
 342 512 342 512 364.5 481 c 128,-1,6
 387 450 387 450 390.5 423 c 128,-1,7
 394 396 394 396 394 374 c 128,-1,8
 394 352 394 352 380.5 310 c 128,-1,9
 367 268 367 268 312.5 236.5 c 128,-1,10
 258 205 258 205 211 205 c 0,11,12
 201 205 201 205 168 209 c 128,-1,13
 135 213 135 213 96 245 c 0,14,15
 30 298 30 298 30 394 c 0,16,17
 30 400 30 400 31 425 c 128,-1,18
 32 450 32 450 62 489 c 128,-1,0
 92 528 92 528 137 543 c 128,-1,1
265 511 m 0,19,20
 230 538 230 538 190 538 c 128,-1,21
 150 538 150 538 122.5 516 c 128,-1,22
 95 494 95 494 89.5 479 c 128,-1,23
 84 464 84 464 84 442 c 2,24,-1
 84 417 l 1,25,26
 85 332 85 332 130 278 c 128,-1,27
 175 224 175 224 245 224 c 0,28,29
 277 224 277 224 307.5 251 c 128,-1,30
 338 278 338 278 340 309 c 0,31,32
 341 319 341 319 341 333 c 0,33,34
 341 452 341 452 265 511 c 0,19,20
243 474 m 2,35,36
 243 482 243 482 253 483 c 0,37,38
 260 483 260 483 263.5 475.5 c 128,-1,39
 267 468 267 468 274 448 c 128,-1,40
 281 428 281 428 281 422 c 2,41,-1
 281 421 l 2,42,43
 281 412 281 412 272 412 c 0,44,45
 266 412 266 412 250.5 430.5 c 128,-1,46
 235 449 235 449 220 449 c 0,47,48
 205 448 205 448 191 436 c 128,-1,49
 177 424 177 424 178 391 c 128,-1,50
 179 358 179 358 197 338 c 128,-1,51
 215 318 215 318 232 319 c 128,-1,52
 249 320 249 320 261 325.5 c 128,-1,53
 273 331 273 331 276 331 c 0,54,55
 285 331 285 331 285 321.5 c 128,-1,56
 285 312 285 312 275 304 c 0,57,58
 251 283 251 283 219 283 c 1,59,-1
 219 284 l 1,60,61
 167 284 167 284 143 336 c 0,62,63
 136 353 136 353 136 378 c 0,64,65
 136 422 136 422 165 451 c 0,66,67
 181 467 181 467 192 470 c 128,-1,68
 203 473 203 473 218.5 473 c 128,-1,69
 234 473 234 473 243 470 c 1,70,-1
 243 474 l 2,35,36
EndSplineSet
Validated: 3105
EndChar

StartChar: ordmasculine
Encoding: 121 186 190
Width: 378
VWidth: 0
Flags: W
HStem: 172 59<32.0728 345.114> 277 44<153.011 249.742> 531 45<127.07 225.02>
VStem: 36 76<366.978 491.684> 267 76<346.996 484.281>
LayerCount: 2
Fore
SplineSet
295 231 m 1,0,1
 296 231 l 2,2,3
 346 231 346 231 346 203 c 0,4,5
 346 172 346 172 316 172 c 2,6,-1
 57 172 l 2,7,8
 31 172 31 172 31 199 c 128,-1,9
 31 226 31 226 57 231 c 1,10,-1
 187 230 l 1,11,-1
 295 231 l 1,0,1
126 563 m 132,-1,13
 164 576 164 576 182.5 576 c 132,-1,14
 201 576 201 576 221 574.5 c 132,-1,15
 241 573 241 573 270 555 c 132,-1,16
 299 537 299 537 321 507 c 132,-1,17
 343 477 343 477 343 439.5 c 132,-1,18
 343 402 343 402 331 366.5 c 132,-1,19
 319 331 319 331 273.5 304 c 132,-1,20
 228 277 228 277 181.5 277 c 132,-1,21
 135 277 135 277 92 311 c 4,22,23
 36 356 36 356 36 437 c 4,24,25
 36 442 36 442 37 463.5 c 132,-1,26
 38 485 38 485 63 517.5 c 132,-1,12
 88 550 88 550 126 563 c 132,-1,13
221 513 m 4,27,28
 200 531 200 531 176 531 c 132,-1,29
 152 531 152 531 135 516.5 c 132,-1,30
 118 502 118 502 115 492 c 132,-1,31
 112 482 112 482 112 456 c 4,32,33
 112 394 112 394 139.5 357.5 c 132,-1,34
 167 321 167 321 210 321 c 4,35,36
 229 321 229 321 247 339.5 c 132,-1,37
 265 358 265 358 266 371 c 132,-1,38
 267 384 267 384 267 393 c 4,39,40
 267 473 267 473 221 513 c 4,27,28
EndSplineSet
Validated: 3073
EndChar

StartChar: ordfeminine
Encoding: 105 170 191
Width: 373
VWidth: 0
Flags: W
HStem: 172 59<30.0728 343.114> 272 54<120.828 197.7> 528 42<148.283 221.328>
VStem: 43 75<329.008 389.906> 224 74.5<349.207 431 466.307 515.626>
LayerCount: 2
Fore
SplineSet
293 231 m 1,0,1
 294 231 l 2,2,3
 344 231 344 231 344 203 c 0,4,5
 344 172 344 172 314 172 c 2,6,-1
 55 172 l 2,7,8
 29 172 29 172 29 199 c 128,-1,9
 29 226 29 226 55 231 c 1,10,-1
 185 230 l 1,11,-1
 293 231 l 1,0,1
103.5 470 m 128,-1,13
 95 467 95 467 88.5 467 c 128,-1,14
 82 467 82 467 73 476.5 c 128,-1,15
 64 486 64 486 64 497.5 c 128,-1,16
 64 509 64 509 77 527 c 128,-1,17
 90 545 90 545 125 557.5 c 128,-1,18
 160 570 160 570 182 570 c 128,-1,19
 204 570 204 570 234.5 564.5 c 128,-1,20
 265 559 265 559 281 531 c 0,21,22
 292 513 292 513 294.5 447 c 128,-1,23
 297 381 297 381 298.5 355 c 128,-1,24
 300 329 300 329 307 323 c 0,25,26
 308 322 308 322 322 315 c 128,-1,27
 336 308 336 308 336 298 c 0,28,29
 336 295 336 295 332.5 288.5 c 128,-1,30
 329 282 329 282 290 275.5 c 128,-1,31
 251 269 251 269 240 269 c 128,-1,32
 229 269 229 269 226 276 c 128,-1,33
 223 283 223 283 222 291 c 2,34,-1
 220 306 l 1,35,-1
 191 290 l 2,36,37
 158 272 158 272 133 272 c 128,-1,38
 108 272 108 272 88.5 282.5 c 128,-1,39
 69 293 69 293 56 314.5 c 128,-1,40
 43 336 43 336 43 346 c 2,41,-1
 43 359 l 1,42,43
 45 382 45 382 71.5 405 c 128,-1,44
 98 428 98 428 148 444.5 c 128,-1,45
 198 461 198 461 212 473 c 128,-1,46
 226 485 226 485 226 494.5 c 128,-1,47
 226 504 226 504 219.5 516 c 128,-1,48
 213 528 213 528 196 528 c 0,49,50
 193 528 193 528 178.5 525.5 c 128,-1,51
 164 523 164 523 138 498 c 128,-1,12
 112 473 112 473 103.5 470 c 128,-1,13
123 344 m 0,52,53
 132 326 132 326 158 326 c 128,-1,54
 184 326 184 326 204 348.5 c 128,-1,55
 224 371 224 371 224 408 c 2,56,-1
 224 431 l 1,57,58
 199 418 199 418 168 405 c 0,59,60
 118 384 118 384 118 359 c 0,61,62
 118 352 118 352 123 344 c 0,52,53
EndSplineSet
Validated: 3073
EndChar

StartChar: paragraph
Encoding: 117 182 192
Width: 501
VWidth: 0
Flags: W
HStem: -8 50<99.9886 162.392> 523.5 39.5<415.366 474.937> 549 20G<339.25 389.75>
VStem: 27 236<307.641 480.594> 174 89<68 230.517> 318 91<57 495.517>
LayerCount: 2
Fore
SplineSet
174 226 m 1,0,1
 40 251 40 251 28 376 c 0,2,3
 27 386 27 386 27 395 c 0,4,5
 27 511 27 511 142 558 c 0,6,7
 182 574 182 574 201 573 c 0,8,9
 264 573 264 573 295 568 c 1,10,11
 314 569 314 569 364.5 569 c 128,-1,12
 415 569 415 569 453 563 c 0,13,14
 475 559 475 559 475 542 c 0,15,16
 475 529 475 529 446.5 523.5 c 128,-1,17
 418 518 418 518 412 496 c 0,18,19
 408 481 408 481 408 408.5 c 128,-1,20
 408 336 408 336 409 266 c 2,21,-1
 412 57 l 1,22,-1
 442 40 l 1,23,24
 471 22 471 22 471 14 c 0,25,26
 471 11 471 11 467 9 c 0,27,28
 439 -5 439 -5 409 -5 c 128,-1,29
 379 -5 379 -5 352 0 c 0,30,31
 318 6 318 6 318 55 c 2,32,-1
 318 504 l 1,33,-1
 287 520 l 1,34,35
 275 518 275 518 272 513 c 128,-1,36
 269 508 269 508 266 494.5 c 128,-1,37
 263 481 263 481 263 358 c 2,38,-1
 263 223 l 2,39,40
 263 118 263 118 265 93 c 2,41,-1
 267 68 l 1,42,43
 265 62 265 62 269 43 c 128,-1,44
 273 24 273 24 273 22 c 1,45,46
 273 -8 273 -8 189 -8 c 128,-1,47
 105 -8 105 -8 98.5 2.5 c 128,-1,48
 92 13 92 13 105.5 27.5 c 128,-1,49
 119 42 119 42 137 42 c 128,-1,50
 155 42 155 42 166 72 c 128,-1,51
 177 102 177 102 176 128 c 2,52,-1
 174 226 l 1,0,1
EndSplineSet
Validated: 3105
EndChar

StartChar: uni00AD
Encoding: 108 173 193
Width: 327
VWidth: 801
Flags: W
HStem: 204 59<36.0728 290.945>
VStem: 35 257<205.548 259.448>
LayerCount: 2
Fore
SplineSet
241 263 m 2,0,1
 292 263 292 263 292 235 c 128,-1,2
 292 207 292 207 262 204 c 1,3,-1
 61 204 l 2,4,5
 35 204 35 204 35 231 c 128,-1,6
 35 258 35 258 61 263 c 1,7,-1
 133 262 l 1,8,-1
 241 263 l 2,0,1
EndSplineSet
Validated: 3073
EndChar

StartChar: multiply
Encoding: 150 215 194
Width: 348
VWidth: 797
Flags: W
HStem: 150 274
VStem: 31 285
LayerCount: 2
Fore
SplineSet
76.5 318 m 128,-1,1
 50 336 50 336 40.5 345.5 c 128,-1,2
 31 355 31 355 31 371 c 128,-1,3
 31 387 31 387 49.5 405.5 c 128,-1,4
 68 424 68 424 79.5 424 c 128,-1,5
 91 424 91 424 98 420 c 1,6,-1
 178 340 l 1,7,-1
 252 414 l 2,8,9
 275 437 275 437 293 417 c 0,10,11
 303 407 303 407 303 395 c 128,-1,12
 303 383 303 383 294 372 c 1,13,-1
 220 299 l 1,14,-1
 297 230 l 1,15,16
 316 211 316 211 316 194.5 c 128,-1,17
 316 178 316 178 301 163 c 1,18,19
 282 150 282 150 269 150 c 128,-1,20
 256 150 256 150 248 155 c 1,21,-1
 162 241 l 1,22,-1
 91 170 l 2,23,24
 77 156 77 156 67 156 c 128,-1,25
 57 156 57 156 49 164 c 1,26,27
 36 174 36 174 36 182 c 128,-1,28
 36 190 36 190 38 195 c 2,29,-1
 44 206 l 1,30,-1
 120 282 l 1,31,0
 103 300 103 300 76.5 318 c 128,-1,1
EndSplineSet
Validated: 3105
EndChar

StartChar: percent
Encoding: 5 37 195
Width: 561
VWidth: 0
Flags: W
HStem: -11 41<391.625 444.575> 210 43<113.936 168.115> 244 45<389.844 447.081> 468 44<113.18 168.946>
VStem: 27 72<265.928 454.487> 184 73<268.002 452.641> 304 72<42.5991 230.957> 460 73<43.6471 233.358>
LayerCount: 2
Fore
SplineSet
252 315 m 0,0,1
 228 210 228 210 143 210 c 0,2,3
 107 210 107 210 84 227 c 0,4,5
 27 267 27 267 27 361.5 c 128,-1,6
 27 456 27 456 89 496 c 1,7,8
 107 512 107 512 145 512 c 2,9,-1
 147 512 l 2,10,11
 185 512 185 512 216 479 c 0,12,13
 257 436 257 436 257 359 c 0,14,15
 257 336 257 336 252 315 c 0,0,1
129 465 m 0,16,17
 99 444 99 444 99 374.5 c 128,-1,18
 99 305 99 305 111.5 279 c 128,-1,19
 124 253 124 253 141 253 c 0,20,21
 151 253 151 253 160 263 c 0,22,23
 184 286 184 286 184 366 c 128,-1,24
 184 446 184 446 153 464 c 0,25,26
 147 468 147 468 141 468 c 128,-1,27
 135 468 135 468 129 465 c 0,16,17
455 -7 m 0,28,29
 444 -11 444 -11 413.5 -11 c 128,-1,30
 383 -11 383 -11 362 4 c 0,31,32
 304 43 304 43 304 137.5 c 128,-1,33
 304 232 304 232 366 273 c 0,34,35
 390 289 390 289 425 289 c 128,-1,36
 460 289 460 289 496.5 252.5 c 128,-1,37
 533 216 533 216 533 139 c 0,38,39
 533 115 533 115 528 92 c 0,40,41
 513 16 513 16 455 -7 c 0,28,29
460 137 m 0,42,43
 460 244 460 244 417 244 c 0,44,45
 401 244 401 244 388.5 220 c 128,-1,46
 376 196 376 196 376 139 c 0,47,48
 376 39 376 39 416 30 c 1,49,-1
 423 30 l 2,50,51
 429 30 429 30 437 40 c 1,52,53
 460 63 460 63 460 137 c 0,42,43
136 48 m 1,54,-1
 382 490 l 1,55,56
 388 505 388 505 405 505 c 0,57,58
 433 505 433 505 433 476 c 0,59,60
 433 467 433 467 427 455 c 2,61,-1
 182 14 l 1,62,63
 170 -5 170 -5 149 -5 c 128,-1,64
 128 -5 128 -5 128 20 c 0,65,66
 128 31 128 31 136 48 c 1,54,-1
EndSplineSet
Validated: 3073
EndChar

StartChar: perthousand
Encoding: 209 8240 196
Width: 808
VWidth: 0
Flags: W
HStem: -11 41<391.625 444.575 637.625 692.477> 210 43<113.936 168.115> 244 45<389.844 447.081 636.045 693.813> 468 44<113.18 168.946>
VStem: 27 72<265.928 454.487> 184 73<268.002 452.641> 304 72<42.5991 230.957> 460 73<43.6471 233.358> 550 72<42.5991 229.692> 707 73<42.4531 233.166>
LayerCount: 2
Fore
SplineSet
252 315 m 0,0,1
 228 210 228 210 143 210 c 0,2,3
 107 210 107 210 84 227 c 0,4,5
 27 267 27 267 27 361.5 c 128,-1,6
 27 456 27 456 89 496 c 1,7,8
 107 512 107 512 145 512 c 2,9,-1
 147 512 l 2,10,11
 185 512 185 512 216 479 c 0,12,13
 257 436 257 436 257 359 c 0,14,15
 257 336 257 336 252 315 c 0,0,1
129 465 m 0,16,17
 99 444 99 444 99 374.5 c 128,-1,18
 99 305 99 305 111.5 279 c 128,-1,19
 124 253 124 253 141 253 c 0,20,21
 151 253 151 253 160 263 c 0,22,23
 184 286 184 286 184 366 c 128,-1,24
 184 446 184 446 153 464 c 0,25,26
 147 468 147 468 141 468 c 128,-1,27
 135 468 135 468 129 465 c 0,16,17
528 92 m 0,28,29
 513 16 513 16 455 -7 c 0,30,31
 444 -11 444 -11 413.5 -11 c 128,-1,32
 383 -11 383 -11 362 4 c 0,33,34
 304 43 304 43 304 137.5 c 128,-1,35
 304 232 304 232 366 273 c 0,36,37
 390 289 390 289 425 289 c 128,-1,38
 460 289 460 289 496.5 252.5 c 128,-1,39
 533 216 533 216 533 139 c 0,40,41
 533 115 533 115 528 92 c 0,28,29
460 137 m 0,42,43
 460 244 460 244 417 244 c 0,44,45
 401 244 401 244 388.5 220 c 128,-1,46
 376 196 376 196 376 139 c 0,47,48
 376 39 376 39 416 30 c 1,49,-1
 423 30 l 2,50,51
 429 30 429 30 437 40 c 1,52,53
 460 63 460 63 460 137 c 0,42,43
136 48 m 1,54,-1
 382 490 l 1,55,56
 388 505 388 505 405 505 c 0,57,58
 433 505 433 505 433 476 c 0,59,60
 433 467 433 467 427 455 c 2,61,-1
 182 14 l 1,62,63
 170 -5 170 -5 149 -5 c 128,-1,64
 128 -5 128 -5 128 20 c 0,65,66
 128 31 128 31 136 48 c 1,54,-1
776 92 m 0,67,68
 760 16 760 16 703 -7 c 0,69,70
 692 -11 692 -11 661 -11 c 128,-1,71
 630 -11 630 -11 608 4 c 0,72,73
 550 43 550 43 550 137.5 c 128,-1,74
 550 232 550 232 613 273 c 0,75,76
 636 289 636 289 671.5 289 c 128,-1,77
 707 289 707 289 743.5 252.5 c 128,-1,78
 780 216 780 216 780 139 c 0,79,80
 781 115 781 115 776 92 c 0,67,68
707 137 m 0,81,82
 707 244 707 244 663 244 c 0,83,84
 647 244 647 244 634.5 220 c 128,-1,85
 622 196 622 196 622 139 c 0,86,87
 622 39 622 39 662 30 c 1,88,-1
 669 30 l 2,89,90
 675 30 675 30 685 40 c 0,91,92
 707 63 707 63 707 137 c 0,81,82
EndSplineSet
Validated: 3105
EndChar

StartChar: afii61289
Encoding: 210 8467 197
Width: 313
VWidth: 0
Flags: W
HStem: -2.5 40.5<142.732 234.918> 476 26<191.001 210.368>
VStem: 38 75<65.1514 330.739> 217 67<279.167 457.81>
LayerCount: 2
Fore
SplineSet
159 38 m 2,0,-1
 203 41 l 1,1,2
 235 41 235 41 235 19 c 0,3,4
 235 8 235 8 214 0 c 1,5,6
 198 -2 198 -2 171 -2.5 c 128,-1,7
 144 -3 144 -3 108 12 c 1,8,-1
 84 -5 l 1,9,10
 55 -11 55 -11 40 -11 c 128,-1,11
 25 -11 25 -11 25 -5 c 0,12,13
 25 0 25 0 35 7 c 2,14,-1
 73 35 l 1,15,16
 40 84 40 84 38 117 c 1,17,18
 36 189 36 189 36 194 c 0,19,20
 36 266 36 266 65 346 c 128,-1,21
 94 426 94 426 115 449 c 0,22,23
 163 502 163 502 203 502 c 128,-1,24
 243 502 243 502 268 446 c 0,25,26
 283 412 283 412 284 368 c 1,27,28
 284 258 284 258 233 147 c 0,29,30
 216 111 216 111 185 80.5 c 128,-1,31
 154 50 154 50 142 41 c 1,32,33
 152 38 152 38 159 38 c 2,0,-1
122 64 m 1,34,35
 130 77 130 77 151.5 128.5 c 128,-1,36
 173 180 173 180 189 249 c 0,37,38
 217 376 217 376 217 447 c 0,39,40
 217 456 217 456 209 466 c 128,-1,41
 201 476 201 476 196 476 c 0,42,43
 191 477 191 477 191 476 c 0,44,45
 171 468 171 468 134 367 c 0,46,47
 124 339 124 339 118 240 c 1,48,-1
 113 140 l 1,49,-1
 113 118 l 2,50,51
 113 101 113 101 122 64 c 1,34,35
EndSplineSet
Validated: 3105
EndChar

StartChar: uniFB05
Encoding: 211 64261 198
Width: 523
VWidth: 0
Flags: W
HStem: -5 37<196.125 242.958> 310 51<417.094 503.799> 317 37<286.013 335 458.871 473.719> 321 40<36.7086 103 292 335 417 473.719> 601 49<210.406 298.047>
VStem: 104 81<49.5078 321 361 566.133> 335 82<52 129.68 200.5 312.634 361 386>
LayerCount: 2
Fore
SplineSet
292 354 m 1,0,-1
 335 361 l 1,1,-1
 335 543 l 1,2,-1
 306 572 l 2,3,4
 277 601 277 601 262 601 c 0,5,6
 220 602 220 602 202 566.5 c 128,-1,7
 184 531 184 531 185 446 c 2,8,-1
 186 136 l 2,9,10
 186 126 186 126 188 112 c 128,-1,11
 190 98 190 98 191 68 c 128,-1,12
 192 38 192 38 196 36.5 c 128,-1,13
 200 35 200 35 202.5 33.5 c 128,-1,14
 205 32 205 32 211 32 c 0,15,16
 243 32 243 32 243 15 c 0,17,18
 243 -4 243 -4 224 -5 c 0,19,20
 164 -8 164 -8 120 -8 c 128,-1,21
 76 -8 76 -8 54 -4 c 1,22,23
 49 -2 49 -2 55 13 c 128,-1,24
 61 28 61 28 77 43.5 c 128,-1,25
 93 59 93 59 97 96.5 c 128,-1,26
 101 134 101 134 102 201 c 2,27,-1
 104 321 l 1,28,-1
 72 321 l 2,29,30
 43 321 43 321 36.5 325.5 c 128,-1,31
 30 330 30 330 30 336 c 0,32,33
 30 361 30 361 70 361 c 2,34,-1
 103 361 l 1,35,-1
 107 454 l 2,36,37
 110 520 110 520 114.5 540 c 128,-1,38
 119 560 119 560 141.5 589 c 128,-1,39
 164 618 164 618 197 634 c 128,-1,40
 230 650 230 650 263 650 c 128,-1,41
 296 650 296 650 325.5 636 c 128,-1,42
 355 622 355 622 365 622 c 128,-1,43
 375 622 375 622 405 636.5 c 128,-1,44
 435 651 435 651 446 651 c 128,-1,45
 457 651 457 651 454.5 632.5 c 128,-1,46
 452 614 452 614 439 599.5 c 128,-1,47
 426 585 426 585 423.5 552.5 c 128,-1,48
 421 520 421 520 418 386 c 1,49,-1
 417 361 l 1,50,-1
 458 361 l 2,51,52
 486 361 486 361 496 357.5 c 128,-1,53
 506 354 506 354 506 342 c 128,-1,54
 506 330 506 330 494.5 320 c 128,-1,55
 483 310 483 310 474 310 c 128,-1,56
 465 310 465 310 459 312 c 128,-1,57
 453 314 453 314 430 315 c 2,58,-1
 416 315 l 1,59,60
 415 239 415 239 415 200.5 c 128,-1,61
 415 162 415 162 417 119 c 128,-1,62
 419 76 419 76 426 58 c 128,-1,63
 433 40 433 40 451 35 c 0,64,65
 476 29 476 29 475 10 c 0,66,67
 476 -2 476 -2 464 -5 c 128,-1,68
 452 -8 452 -8 427 -8 c 0,69,70
 277 -8 277 -8 277 13 c 0,71,72
 277 22 277 22 304 36 c 2,73,-1
 335 52 l 1,74,-1
 336 317 l 1,75,-1
 325 317 l 2,76,77
 286 317 286 317 286 336 c 0,78,79
 286 344 286 344 292 354 c 1,0,-1
EndSplineSet
Validated: 3105
Ligature2: "standard ligatures" longs t
EndChar

